<?xml version="1.0" encoding="UTF-8"?>
<svg version="1.1" xmlns="http://www.w3.org/2000/svg" width="1024" height="1536">
<path d="M0 0 C337.92 0 675.84 0 1024 0 C1024 506.88 1024 1013.76 1024 1536 C686.08 1536 348.16 1536 0 1536 C0 1029.12 0 522.24 0 0 Z " fill="#F8F8F9" transform="translate(0,0)"/>
<path d="M0 0 C1.19915039 0.27150879 2.39830078 0.54301758 3.63378906 0.82275391 C33.77026737 7.70165008 62.8325766 17.20784764 91 30 C91.9811377 30.44311523 92.96227539 30.88623047 93.97314453 31.34277344 C123.67922524 44.86484309 151.28756324 61.90553844 177 82 C177.90363281 82.70253906 178.80726563 83.40507812 179.73828125 84.12890625 C194.90253069 96.10068212 209.08112852 109.01421835 222.79006958 122.61483765 C224.20625098 124.01911861 225.62638008 125.41941491 227.04663086 126.81958008 C232.38587349 132.1521109 237.32883279 137.64259879 242.0246582 143.55102539 C243.92203107 145.90333626 245.89723433 148.14637293 247.9375 150.375 C300.22712895 208.74961536 331.86063435 286.52732369 345 363 C345.16193848 363.91571777 345.32387695 364.83143555 345.49072266 365.77490234 C346.49218232 371.49929526 347.29300794 377.23232629 348 383 C348.20302734 384.58119629 348.20302734 384.58119629 348.41015625 386.19433594 C352.85284003 421.9059089 352.51892174 458.32097023 348 494 C347.86078125 495.17933105 347.7215625 496.35866211 347.578125 497.57373047 C344.30618351 525.08606254 337.75284334 551.73736645 329 578 C328.66274902 579.01835938 328.32549805 580.03671875 327.97802734 581.0859375 C305.55817927 647.99434031 266.01462835 706.8011436 216.52865601 756.64657593 C215.48482152 757.69845855 214.44247112 758.75181643 213.40176392 759.80679321 C206.60500829 766.68679628 199.57235209 772.96425656 192 779 C190.89820565 779.93481938 189.80186152 780.87616364 188.71484375 781.828125 C117.9302664 843.5530729 22.44255822 878.63569334 -103.875 885.375 C-104.53966782 885.37476082 -105.20433563 885.37452164 -105.8891449 885.37427521 C-127.52630184 885.36446233 -148.63062096 884.53066315 -170 881 C-171.38150774 880.78247534 -172.76318512 880.56602566 -174.14501953 880.35058594 C-213.50460451 874.15672045 -251.87189268 862.85812578 -288 846 C-289.01642578 845.52949219 -290.03285156 845.05898438 -291.08007812 844.57421875 C-329.08287189 826.91258928 -363.85902612 804.89651959 -396 778 C-396.99837891 777.17129395 -397.99675781 776.34258789 -399.02539062 775.48876953 C-407.70454631 768.21528458 -415.82666372 760.4848364 -423.80639648 752.4543457 C-425.82117835 750.42877518 -427.84653275 748.41421616 -429.87304688 746.40039062 C-437.04507869 739.23564373 -443.72783933 731.9728828 -450 724 C-450.92258844 722.90950319 -451.85226746 721.82491106 -452.79296875 720.75 C-472.11722024 698.55705865 -487.55278104 673.54635226 -502 648 C-502.42764648 647.24686523 -502.85529297 646.49373047 -503.29589844 645.71777344 C-548.59846332 565.25160831 -562.84759337 469.18260858 -539.06643677 318.05728149 C-531.58477977 291.75274021 -521.90647122 266.62581829 -510 242 C-509.53980469 241.03723145 -509.07960938 240.07446289 -508.60546875 239.08251953 C-489.88457448 200.01546603 -465.04334083 163.97027351 -435.34326172 132.44042969 C-433.27500672 130.22256264 -431.26487676 127.95380583 -429.25 125.6875 C-423.56547826 119.35770822 -417.63165012 113.43920262 -411.17578125 107.8984375 C-408.69347802 105.73254995 -406.28944855 103.49123043 -403.875 101.25 C-398.12361764 96.01213392 -392.09113107 91.21659238 -385.92285156 86.48144531 C-383.92694116 84.94371241 -381.94353559 83.39078651 -379.9609375 81.8359375 C-317.16925294 32.84857905 -241.75972048 2.97141415 -163 -7 C-161.89060059 -7.15098145 -160.78120117 -7.30196289 -159.63818359 -7.45751953 C-107.39426146 -14.39692572 -51.35657029 -12.01911711 0 0 Z " fill="#C9E1F7" transform="translate(614,169)"/>
<path d="M0 0 C0.98385538 0.00037972 1.96771075 0.00075944 2.98137993 0.00115067 C4.11199114 -0.00084038 5.24260236 -0.00283143 6.40747452 -0.00488281 C7.66522892 -0.00196997 8.92298333 0.00094287 10.21885151 0.00394398 C11.55615009 0.00350839 12.89344859 0.00263372 14.23074663 0.00135481 C17.92260799 -0.00089265 21.61444062 0.00313455 25.30629832 0.00813287 C29.28109634 0.01243361 33.25589263 0.01099122 37.23069233 0.0102306 C44.12296985 0.00970512 51.01523793 0.01285438 57.90751308 0.01846844 C67.87270274 0.02658026 77.83788783 0.02919833 87.80308043 0.03045643 C103.96921549 0.03264745 120.13534552 0.0393089 136.30147785 0.04875904 C152.0094854 0.05793186 167.7174916 0.06501333 183.42550129 0.06926686 C184.39302513 0.06952958 185.36054897 0.0697923 186.35739172 0.07006299 C191.21096017 0.07136798 196.06452862 0.0726317 200.91809708 0.07387489 C241.2115029 0.08424907 281.50490317 0.10186874 321.79830402 0.1241985 C321.80194965 1.22729862 321.80559528 2.33039875 321.80935138 3.46692616 C321.84640251 13.8974203 321.90428533 24.32762198 321.98220676 34.75789315 C322.02160073 40.119346 322.0538288 45.48063659 322.06930012 50.84221607 C322.08451995 56.02308205 322.11905977 61.2035017 322.16661304 66.38416821 C322.18137204 68.35391746 322.18934187 70.32373045 322.19018787 72.29353482 C322.1291427 91.35420256 322.1291427 91.35420256 331.68178791 107.35121876 C342.73971505 116.61430947 354.24863263 115.99637987 367.97017902 115.928886 C369.86423955 115.93996059 371.75828636 115.95370736 373.65230793 115.97014576 C380.61752035 116.01209809 387.5829661 116.0026324 394.54830402 115.9991985 C410.14080402 116.0404485 425.73330402 116.0816985 441.79830402 116.1241985 C441.79830402 162.3241985 441.79830402 208.5241985 441.79830402 256.1241985 C433.87830402 254.1441985 433.87830402 254.1441985 425.79830402 252.1241985 C418.9293734 251.14292269 412.32992543 250.90307228 405.42232746 250.88396412 C403.33108802 250.87434923 401.24087245 250.84330558 399.14986652 250.8116985 C372.64655254 250.60323887 348.17057901 260.40531021 327.79830402 277.1241985 C326.71162433 277.98271412 326.71162433 277.98271412 325.60299152 278.8585735 C319.85232617 283.59441555 315.32512904 289.23604567 310.79830402 295.1241985 C310.18986652 295.90537037 309.58142902 296.68654225 308.95455402 297.491386 C290.23195536 322.76689418 283.33741182 354.33878867 287.19381183 385.29949147 C290.87559817 407.79232842 301.2547417 434.37893927 319.3966164 449.25473744 C322.48417192 452.94365196 322.47358183 455.80670472 322.36593097 460.40276295 C322.36666111 461.22279301 322.36739124 462.04282307 322.3681435 462.88770252 C322.36467017 465.58830976 322.32582281 468.28717523 322.28658527 470.98747975 C322.2772562 472.86362474 322.27014053 474.73978195 322.26514667 476.61594349 C322.24608426 481.5465497 322.19698994 486.47641582 322.14162678 491.40673023 C322.09041799 496.44070636 322.06762915 501.47480243 322.04244465 506.50896412 C321.98887051 516.38103352 321.90356681 526.25255439 321.79830402 536.1241985 C280.68406215 536.16993437 239.56982359 536.20519654 198.45556138 536.22632916 C193.60626722 536.22883069 188.75697311 536.23141933 183.90767902 536.23406178 C182.94223507 536.2345864 181.97679112 536.23511102 180.98209129 536.23565154 C165.33120736 536.2443641 149.68033807 536.26013874 134.02946283 536.27850409 C117.98101798 536.29717948 101.93258081 536.30831021 85.88412553 536.31237549 C75.97416885 536.31512546 66.06425352 536.323824 56.15430956 536.34003143 C49.36702314 536.35056921 42.57975822 536.35380643 35.79246421 536.35120125 C31.87127209 536.34991494 27.95015242 536.35194445 24.02897304 536.36260945 C20.44394368 536.37228945 16.859036 536.37286792 13.27400123 536.36599629 C11.35278772 536.36474127 9.43157579 536.37341411 7.51038271 536.38236111 C5.81670441 536.37638797 5.81670441 536.37638797 4.08881038 536.37029415 C2.61815355 536.37143331 2.61815355 536.37143331 1.11778647 536.37259549 C-1.20169598 536.1241985 -1.20169598 536.1241985 -3.20169598 534.1241985 C-3.39830392 531.23681352 -3.46747682 528.44540649 -3.45058495 525.55683762 C-3.45449588 524.20397072 -3.45449588 524.20397072 -3.45848581 522.82377318 C-3.46483821 519.76767218 -3.45679044 516.71177259 -3.44893414 513.65567738 C-3.45052071 511.45614459 -3.45298278 509.25661228 -3.45625055 507.05708134 C-3.46269427 500.98646832 -3.45657266 494.91592148 -3.44848627 488.84531277 C-3.44260449 482.97924751 -3.44607563 477.113193 -3.44931548 471.24712679 C-3.45560005 459.24270284 -3.45240831 447.2382985 -3.44372135 435.23387676 C-3.43511804 423.34270696 -3.43020093 411.45154595 -3.43038899 399.56037289 C-3.43039663 398.82173266 -3.43040428 398.08309243 -3.43041216 397.32206916 C-3.43045306 394.32398012 -3.43051867 391.32589108 -3.43061797 388.32780203 C-3.43152476 360.18312749 -3.42156829 332.0384664 -3.4061883 303.89379652 C-3.39256227 278.86650994 -3.38632704 253.8392329 -3.38699871 228.81194264 C-3.38703912 227.20489436 -3.38707948 225.59784609 -3.38711979 223.99079781 C-3.38714014 223.196319 -3.38716049 222.40184019 -3.38718146 221.58328627 C-3.38728225 217.58432977 -3.38737283 213.58537328 -3.38745171 209.58641678 C-3.38746842 208.79755432 -3.38748514 208.00869185 -3.38750236 207.19592446 C-3.3878672 186.30778605 -3.38333246 165.41964884 -3.37712514 144.53151143 C-3.37690487 143.78887081 -3.3766846 143.0462302 -3.37645765 142.28108532 C-3.37556938 139.29449119 -3.374681 136.30789706 -3.3737667 133.32130294 C-3.37060214 122.91334396 -3.36909684 112.50538592 -3.36865521 102.09742649 C-3.36805914 88.68833882 -3.36408529 75.27925905 -3.35422375 61.87017476 C-3.34959099 55.39930786 -3.34656567 48.92845073 -3.34781796 42.45758206 C-3.3489069 36.54426607 -3.34543227 30.63097173 -3.33816943 24.71766026 C-3.33634478 22.56832288 -3.33623669 20.41898328 -3.33793672 18.2696458 C-3.33997894 15.36831032 -3.33597882 12.46704736 -3.33033043 9.56571823 C-3.33238575 8.71380082 -3.33444107 7.86188341 -3.33655867 6.98415032 C-3.31206119 0.18683461 -3.31206119 0.18683461 0 0 Z " fill="#C9E1F7" transform="translate(287.2016959786415,331.8758015036583)"/>
<path d="M0 0 C1.43623352 -0.00963638 2.87245641 -0.02098173 4.30866438 -0.03387552 C8.23264996 -0.06401361 12.15632982 -0.06943341 16.08041656 -0.07047355 C20.32119026 -0.07584798 24.56182516 -0.10402992 28.80252075 -0.12893677 C38.06269128 -0.17881727 47.32278093 -0.19890281 56.58306575 -0.21278453 C62.3686704 -0.22158248 68.15424849 -0.23658439 73.9398365 -0.25279427 C89.97058701 -0.29671927 106.00131454 -0.33373595 122.03212643 -0.34342098 C123.05673675 -0.34404768 124.08134708 -0.34467439 125.1370062 -0.34532008 C127.21393907 -0.34656919 129.29087194 -0.34781693 131.36780482 -0.34906333 C132.39873529 -0.34969168 133.42966576 -0.35032002 134.49183655 -0.35096741 C135.52403006 -0.35159082 136.55622357 -0.35221422 137.61969567 -0.35285652 C154.35374007 -0.36430018 171.08718294 -0.42626515 187.82100575 -0.51018434 C205.016802 -0.59572493 222.21229786 -0.63998294 239.40831095 -0.64261633 C249.05735599 -0.64503241 258.70564707 -0.66496296 268.35449028 -0.73025322 C276.56786513 -0.78561035 284.78023397 -0.80306911 292.9937536 -0.77152949 C297.18216026 -0.75656256 301.36855986 -0.75917744 305.55672836 -0.81005478 C309.39647877 -0.85626327 313.23270717 -0.85102422 317.07243998 -0.80599851 C319.10793896 -0.79513243 321.14350946 -0.83814794 323.17853206 -0.88350433 C329.63402704 -0.75539746 333.70914185 -0.01865454 338.3876766 4.42565745 C340.57683575 6.71869302 342.6131054 9.13527758 344.66004944 11.55503845 C345.88280935 12.66902647 347.12635718 13.76184849 348.41004944 14.80503845 C353.22584481 18.90443452 357.60568752 23.44998946 362.03016663 27.96226501 C365.04284816 31.01632516 368.08182472 33.95936619 371.34754944 36.74253845 C377.85744028 42.35581969 383.77807702 48.61876009 389.81483459 54.73033142 C391.43816969 56.37196575 393.06467064 58.01041865 394.69129944 59.64878845 C395.1717572 60.13754456 395.65221497 60.62630066 396.14723206 61.12986755 C401.75178616 66.77347115 407.6442308 71.8886372 414.11247253 76.5262146 C434.22555814 91.07410832 457.3452984 109.03591105 461.7404573 134.83440125 C463.15242819 144.83671834 463.39626992 154.8778783 463.33973694 164.9651947 C463.33479753 165.90420986 463.32985811 166.84322501 463.32476902 167.81069517 C463.22405313 179.45790142 462.70488583 191.07222287 462.0282681 202.6986059 C461.28092329 215.64892196 460.88271594 228.61196128 460.52858162 241.57830715 C460.50237389 242.53510327 460.47616617 243.49189939 460.44916427 244.47768933 C460.39715234 246.38479092 460.34591384 248.29191377 460.29547131 250.19905752 C460.14003873 255.73606458 459.89848094 261.26044318 459.57804942 266.79030144 C459.38791086 270.2070914 459.24503817 273.62488751 459.11102486 277.04428864 C459.03777089 278.62042359 458.94315442 280.19574022 458.82512093 281.7691555 C458.47131646 286.54471767 458.34926961 290.89011094 459.66004944 295.55503845 C463.232014 299.53129034 467.01319144 301.90031005 471.66004944 304.55503845 C490.00646146 318.65772351 501.47607291 338.90456968 508.66004944 360.55503845 C508.88740784 361.22889587 509.11476624 361.9027533 509.34901428 362.59703064 C512.72728214 373.13431808 513.04444434 383.76864807 513.09754944 394.74253845 C513.10708145 395.74912506 513.10708145 395.74912506 513.11680603 396.77604675 C513.19353615 409.81299197 511.1908998 422.20256324 506.97254944 434.55503845 C506.71908752 435.30213074 506.46562561 436.04922302 506.20448303 436.81895447 C501.74786549 449.42554116 495.01721757 462.45175409 485.3320446 471.80270767 C480.91037235 476.08124626 478.12720692 479.28342339 477.5599823 485.53862 C477.52569222 487.77660648 477.53982605 490.01569037 477.59413147 492.25328064 C477.58475807 494.0990696 477.58475807 494.0990696 477.57519531 495.98214722 C477.56636534 499.32868081 477.59680668 502.67047752 477.6443696 506.01638317 C477.68395181 509.53029038 477.66975391 513.04397009 477.66075134 516.55802917 C477.6512301 523.20561967 477.68470108 529.85219537 477.73612106 536.49956727 C477.82684168 548.40953859 477.84399089 560.31974617 477.84531486 572.23002553 C477.84748636 576.40505958 477.86848973 580.57945234 477.90550542 584.75431871 C477.93105487 587.96095588 477.93842212 591.16765968 477.94960022 594.37437439 C477.96517471 595.52463608 477.98074921 596.67489777 477.99679565 597.86001587 C477.99987537 604.84683957 477.36981221 609.42187525 472.66004944 614.86753845 C469.15928802 617.8213059 465.50720234 618.03355923 461.09364319 617.9417572 C456.44139702 617.20247571 453.30771925 614.38797325 449.66004944 611.55503845 C448.50943291 610.69335225 447.35694113 609.83416683 446.20301819 608.97691345 C443.49201744 606.95853949 440.79022441 604.92857163 438.09364319 602.89097595 C432.75313359 598.86269226 427.37227235 594.88955256 421.97059631 590.94371033 C417.73644073 587.84647203 413.54705945 584.70586407 409.40614319 581.48472595 C408.1199408 580.49835144 408.1199408 580.49835144 406.80775452 579.49205017 C405.15691057 578.22448065 403.51685405 576.94270539 401.88929749 575.64537048 C401.14591125 575.07931091 400.40252502 574.51325134 399.63661194 573.93003845 C398.9877301 573.42214783 398.33884827 572.9142572 397.67030334 572.39097595 C395.61743232 571.29897274 395.61743232 571.29897274 393.18739319 572.20640564 C390.66243747 573.55376416 388.5027685 575.0001867 386.24598694 576.75816345 C385.4122052 577.40172791 384.57842346 578.04529236 383.71937561 578.70835876 C382.83354797 579.40026306 381.94772034 580.09216736 381.03504944 580.80503845 C379.14410496 582.26464565 377.25215712 583.7229538 375.35926819 585.18003845 C374.40584534 585.91480408 373.45242249 586.6495697 372.47010803 587.40660095 C368.30193098 590.5933914 364.08041027 593.70493969 359.84754944 596.80503845 C355.23158233 600.18593679 350.62208974 603.57235688 346.05848694 607.02378845 C345.3273468 607.576474 344.59620667 608.12915955 343.84291077 608.69859314 C342.47083476 609.73811647 341.10074177 610.78026464 339.73304749 611.82554626 C334.2106193 616.00798957 330.82803629 618.04959074 323.91004944 617.86753845 C320.32135367 617.36910848 318.31615343 615.95818016 315.66004944 613.55503845 C312.21650453 608.27982073 312.29428955 603.75001627 312.47254944 597.68003845 C312.48608459 596.80089783 312.49961975 595.9217572 312.51356506 595.01597595 C312.54868321 592.86206294 312.6024825 590.70846842 312.66004944 588.55503845 C311.96557665 588.55693705 311.27110387 588.55883566 310.55558646 588.56079179 C269.38727678 588.67270402 228.21898477 588.75848227 187.05055354 588.8103651 C182.10642041 588.81661857 177.16228758 588.82309018 172.21815491 588.82969666 C171.23387514 588.83100821 170.24959537 588.83231976 169.23548894 588.83367106 C153.30220894 588.85542227 137.36901922 588.89484225 121.43579276 588.94080243 C105.08447067 588.98757494 88.73319583 589.01533554 72.38180959 589.02548093 C62.29366802 589.03233843 52.20578164 589.05399013 42.11771862 589.09462079 C35.19812815 589.12106894 28.27866944 589.12903474 21.35903211 589.12254534 C17.36784309 589.11934566 13.37709974 589.12421916 9.38599014 589.15106583 C5.72756156 589.17549431 2.06987603 589.17656488 -1.5885876 589.15953293 C-3.5297737 589.15643788 -5.47095175 589.17791705 -7.4120096 589.200445 C-16.41367701 589.12381476 -22.98527479 587.16987363 -29.96104431 581.3792572 C-30.56045837 580.67414001 -31.15987244 579.96902283 -31.77745056 579.24253845 C-32.3949115 578.54515564 -33.01237244 577.84777283 -33.64854431 577.1292572 C-37.91189337 570.64069593 -38.78091604 564.68511092 -38.72585392 557.12394333 C-38.73111303 556.20152082 -38.73637214 555.27909831 -38.74179062 554.32872361 C-38.75574291 551.23880381 -38.74838169 548.14930924 -38.74108887 545.05937195 C-38.74669421 542.82124971 -38.75359672 540.58313041 -38.76168483 538.34501576 C-38.78004567 532.19516967 -38.77963728 526.04544588 -38.77610171 519.89557862 C-38.7755527 513.94405474 -38.78902356 507.99256671 -38.80194038 502.04106047 C-38.83094253 488.36530066 -38.83939241 474.6895746 -38.84111155 461.01378766 C-38.84249056 450.45200362 -38.84866755 439.8902328 -38.85821342 429.32845306 C-38.86090609 426.28746201 -38.86357553 423.24647094 -38.86623806 420.20547986 C-38.86723277 419.07145728 -38.86723277 419.07145728 -38.86824759 417.91452515 C-38.88670839 396.65118733 -38.89854946 375.38785409 -38.89721775 354.1245079 C-38.89717101 353.32294553 -38.89712428 352.52138316 -38.89707613 351.69553102 C-38.89682681 347.63294692 -38.89652968 343.57036283 -38.896222 339.50777873 C-38.89616217 338.70094558 -38.89610233 337.89411243 -38.89604068 337.06282979 C-38.89591937 335.43121674 -38.89579398 333.79960368 -38.89566451 332.16799063 C-38.89382632 306.78377143 -38.91634531 281.39967247 -38.9573822 256.01548767 C-39.00347604 227.49152277 -39.0292802 198.96763686 -39.02649254 170.44363236 C-39.02626865 167.40138388 -39.02612253 164.3591354 -39.02602959 161.3168869 C-39.02599462 160.56781727 -39.02595966 159.81874764 -39.02592364 159.04697893 C-39.02583137 146.99910597 -39.04497854 134.9513375 -39.07082638 122.90349559 C-39.09627202 110.79253442 -39.09921323 98.6817259 -39.07949842 86.57075277 C-39.06939594 80.0112873 -39.06956286 73.45212405 -39.09555817 66.89268684 C-39.11911935 60.88567349 -39.11489489 54.87933894 -39.08870577 48.87234238 C-39.08409321 46.70145069 -39.08957809 44.53050863 -39.106286 42.35967633 C-39.19727499 29.69709332 -39.14991859 19.52677084 -30.53132445 9.43786502 C-21.76060114 0.93164631 -11.73539983 -0.03695031 0 0 Z M-12.33995056 28.55503845 C-12.44079933 31.37682162 -12.47539412 34.17422472 -12.46858501 36.99655819 C-12.47033805 37.89701601 -12.47209109 38.79747384 -12.47389725 39.72521827 C-12.47859791 42.78235236 -12.4760814 45.83943974 -12.47366333 48.89657593 C-12.47552926 51.09453259 -12.47782908 53.29248892 -12.48052865 55.49044472 C-12.48668001 61.56136674 -12.48650917 67.63227507 -12.48533428 73.70319951 C-12.48515194 79.5682146 -12.48963382 85.43322489 -12.49394717 91.29823813 C-12.50363706 104.78341206 -12.50643201 118.2685822 -12.50700422 131.7537592 C-12.50746309 142.16418956 -12.50951786 152.57461842 -12.51270485 162.98504829 C-12.51360234 165.97748265 -12.51449215 168.96991702 -12.51537973 171.96235138 C-12.51560078 172.70619664 -12.51582182 173.45004189 -12.51604957 174.21642792 C-12.52220698 195.15003738 -12.52614981 216.08364633 -12.52570629 237.01725674 C-12.52569071 237.8071048 -12.52567513 238.59695287 -12.52565908 239.41073572 C-12.52557597 243.41436974 -12.52547693 247.41800375 -12.52537438 251.42163777 C-12.52535443 252.21682987 -12.52533448 253.01202198 -12.52531394 253.83131082 C-12.5252735 255.43938399 -12.5252317 257.04745716 -12.52518854 258.65553032 C-12.52457559 283.68266709 -12.53208473 308.70979032 -12.54576111 333.73692322 C-12.56110585 361.82893919 -12.56972831 389.92094626 -12.56879789 418.01296669 C-12.56872325 421.00571541 -12.56867455 423.99846413 -12.56864357 426.99121284 C-12.56863192 427.7281507 -12.56862026 428.46508856 -12.56860825 429.22435787 C-12.56857742 441.10811024 -12.5749762 452.9918509 -12.58357583 464.87559978 C-12.59203314 476.80908769 -12.59305741 488.74255838 -12.58646651 500.67604762 C-12.58318581 507.14704434 -12.58320004 513.61799841 -12.59181976 520.08899117 C-12.59961775 526.00365061 -12.59832282 531.91823311 -12.58953563 537.83289052 C-12.58798572 539.98160374 -12.58987203 542.13032251 -12.59539571 544.27902918 C-12.60236871 547.18200748 -12.59723156 550.08470928 -12.58883953 552.98767757 C-12.59380771 553.83725382 -12.59877589 554.68683006 -12.60389462 555.56215104 C-12.76665112 560.0310514 -12.76665112 560.0310514 -10.33995056 563.55503845 C-7.91690332 563.85646372 -7.91690332 563.85646372 -5.0494442 563.80113411 C-3.3557659 563.80710725 -3.3557659 563.80710725 -1.62787187 563.81320107 C0.24855405 563.80446255 0.24855405 563.80446255 2.16288757 563.79554749 C3.49692503 563.79641894 4.83096216 563.7981688 6.16499746 563.80072582 C9.84323055 563.80521527 13.52134801 563.79717388 17.19956636 563.78716969 C21.16139514 563.77856038 25.123217 563.78145356 29.08505249 563.78297424 C35.95331501 563.7840247 42.82153964 563.77773139 49.68979263 563.76649857 C59.62021885 563.75026818 69.55062668 563.74503809 79.48106472 563.74252258 C95.59119242 563.7381416 111.70129991 563.7248216 127.81141663 563.70591736 C143.46408487 563.68756897 159.11674762 563.67340738 174.76942444 563.66490173 C175.73369856 563.66437629 176.69797269 563.66385084 177.69146724 563.66330947 C182.52878095 563.66069946 187.3660947 563.65817203 192.20340848 563.65568566 C232.35563629 563.63494062 272.50784153 563.59970415 312.66004944 563.55503845 C312.84573164 552.741261 312.98771873 541.92786513 313.07454681 531.11281586 C313.11622917 526.09037818 313.17272815 521.0690342 313.26356506 516.04722595 C313.35074249 511.19715699 313.39837585 506.34813718 313.41906738 501.49734497 C313.4338047 499.65050749 313.46258519 497.80372495 313.50588989 495.95733643 C314.05418162 485.93839542 314.05418162 485.93839542 310.92799377 476.72361755 C308.94301223 474.74022481 306.93338197 473.18631637 304.66004944 471.55503845 C302.64823945 469.16949577 300.89997117 466.64387096 299.16004944 464.05503845 C298.69647034 463.3699823 298.23289124 462.68492615 297.75526428 461.97911072 C290.03341663 450.31110326 284.45514846 438.02476491 280.66004944 424.55503845 C280.18051819 422.94435486 280.18051819 422.94435486 279.69129944 421.3011322 C274.93146694 402.28383848 275.9601942 380.25548943 281.66004944 361.55503845 C281.86372131 360.87763611 282.06739319 360.20023376 282.27723694 359.50230408 C287.25380486 343.57421476 295.55870075 328.97386238 306.66004944 316.55503845 C307.40641663 315.6133783 307.40641663 315.6133783 308.16786194 314.6526947 C324.21655251 294.43134458 352.50052929 281.64673081 377.66004944 278.55503845 C382.11797724 278.34946045 386.57408347 278.32714693 391.036026 278.31480408 C393.12726544 278.30518918 395.21748101 278.27414553 397.30848694 278.24253845 C409.69229558 278.1453102 420.62825573 280.54709003 432.66004944 283.55503845 C432.66004944 237.35503845 432.66004944 191.15503845 432.66004944 143.55503845 C401.60686175 143.46371373 401.60686175 143.46371373 370.55360413 143.43736267 C364.51405334 143.40098572 364.51405334 143.40098572 361.6764679 143.37635803 C359.71702865 143.36490117 357.75749896 143.36501086 355.79804993 143.37464905 C342.99883042 143.42759954 332.79597869 143.37040717 322.54353333 134.78205872 C312.20132628 124.26943098 313.0565575 110.49119928 313.05067444 96.7933197 C313.03567294 94.7912056 313.0189417 92.78910378 313.00056458 90.78701782 C312.95710003 85.55105481 312.93693849 80.31525869 312.92182922 75.07914734 C312.90218245 69.72270424 312.86022117 64.36643939 312.82020569 59.01011658 C312.74513016 48.5251458 312.69470185 38.04021536 312.66004944 27.55503845 C271.40138747 27.53217377 230.14272624 27.51454109 188.88405919 27.50397312 C184.01845502 27.50272234 179.15285086 27.50142803 174.2872467 27.50010681 C173.31854983 27.4998445 172.34985295 27.49958219 171.35180163 27.49931193 C155.6452825 27.49495487 139.93876701 27.48706713 124.23225004 27.47788566 C108.12843872 27.46855011 92.02462932 27.46298305 75.92081541 27.46094996 C65.97555347 27.45957452 56.03030183 27.45522283 46.08504307 27.44712199 C39.27487371 27.44185575 32.46470971 27.44023388 25.65453846 27.44153707 C21.7193147 27.44218065 17.78410899 27.44116079 13.8488884 27.43583298 C10.25222112 27.43099879 6.65558417 27.43069992 3.05891555 27.43413956 C1.12901519 27.43476816 -0.80088478 27.4304266 -2.73078007 27.42595714 C-3.86139128 27.42794819 -4.9920025 27.42993924 -6.15687466 27.43199062 C-7.14073003 27.4316109 -8.12458541 27.43123118 -9.13825458 27.43083996 C-11.31539383 27.30842853 -11.31539383 27.30842853 -12.33995056 28.55503845 Z " fill="#1B3349" transform="translate(296.33995056152344,304.44496154785156)"/>
<path d="M0 0 C1.19915039 0.27150879 2.39830078 0.54301758 3.63378906 0.82275391 C33.77026737 7.70165008 62.8325766 17.20784764 91 30 C91.9811377 30.44311523 92.96227539 30.88623047 93.97314453 31.34277344 C123.67922524 44.86484309 151.28756324 61.90553844 177 82 C177.90363281 82.70253906 178.80726563 83.40507812 179.73828125 84.12890625 C194.90253069 96.10068212 209.08112852 109.01421835 222.79006958 122.61483765 C224.20625098 124.01911861 225.62638008 125.41941491 227.04663086 126.81958008 C232.38587349 132.1521109 237.32883279 137.64259879 242.0246582 143.55102539 C243.92203107 145.90333626 245.89723433 148.14637293 247.9375 150.375 C300.22712895 208.74961536 331.86063435 286.52732369 345 363 C345.16193848 363.91571777 345.32387695 364.83143555 345.49072266 365.77490234 C346.49218232 371.49929526 347.29300794 377.23232629 348 383 C348.20302734 384.58119629 348.20302734 384.58119629 348.41015625 386.19433594 C352.85284003 421.9059089 352.51892174 458.32097023 348 494 C347.86078125 495.17933105 347.7215625 496.35866211 347.578125 497.57373047 C344.30618351 525.08606254 337.75284334 551.73736645 329 578 C328.66274902 579.01835938 328.32549805 580.03671875 327.97802734 581.0859375 C305.55817927 647.99434031 266.01462835 706.8011436 216.52865601 756.64657593 C215.48482152 757.69845855 214.44247112 758.75181643 213.40176392 759.80679321 C206.60500829 766.68679628 199.57235209 772.96425656 192 779 C190.89820565 779.93481938 189.80186152 780.87616364 188.71484375 781.828125 C117.9302664 843.5530729 22.44255822 878.63569334 -103.875 885.375 C-104.53966782 885.37476082 -105.20433563 885.37452164 -105.8891449 885.37427521 C-127.52630184 885.36446233 -148.63062096 884.53066315 -170 881 C-171.38150774 880.78247534 -172.76318512 880.56602566 -174.14501953 880.35058594 C-213.50460451 874.15672045 -251.87189268 862.85812578 -288 846 C-289.01642578 845.52949219 -290.03285156 845.05898438 -291.08007812 844.57421875 C-329.08287189 826.91258928 -363.85902612 804.89651959 -396 778 C-396.99837891 777.17129395 -397.99675781 776.34258789 -399.02539062 775.48876953 C-407.70454631 768.21528458 -415.82666372 760.4848364 -423.80639648 752.4543457 C-425.82117835 750.42877518 -427.84653275 748.41421616 -429.87304688 746.40039062 C-437.04507869 739.23564373 -443.72783933 731.9728828 -450 724 C-450.92258844 722.90950319 -451.85226746 721.82491106 -452.79296875 720.75 C-472.11722024 698.55705865 -487.55278104 673.54635226 -502 648 C-502.42764648 647.24686523 -502.85529297 646.49373047 -503.29589844 645.71777344 C-548.59846332 565.25160831 -562.84759337 469.18260858 -539.06643677 318.05728149 C-531.58477977 291.75274021 -521.90647122 266.62581829 -510 242 C-509.53980469 241.03723145 -509.07960938 240.07446289 -508.60546875 239.08251953 C-489.88457448 200.01546603 -465.04334083 163.97027351 -435.34326172 132.44042969 C-433.27500672 130.22256264 -431.26487676 127.95380583 -429.25 125.6875 C-423.56547826 119.35770822 -417.63165012 113.43920262 -411.17578125 107.8984375 C-408.69347802 105.73254995 -406.28944855 103.49123043 -403.875 101.25 C-398.12361764 96.01213392 -392.09113107 91.21659238 -385.92285156 86.48144531 C-383.92694116 84.94371241 -381.94353559 83.39078651 -379.9609375 81.8359375 C-317.16925294 32.84857905 -241.75972048 2.97141415 -163 -7 C-161.89060059 -7.15098145 -160.78120117 -7.30196289 -159.63818359 -7.45751953 C-107.39426146 -14.39692572 -51.35657029 -12.01911711 0 0 Z M-231 34 C-232.06412109 34.32693848 -233.12824219 34.65387695 -234.22460938 34.99072266 C-289.23990667 52.02735279 -339.45460044 80.45082524 -383 118 C-383.71671875 118.61488281 -384.4334375 119.22976563 -385.171875 119.86328125 C-387.13028972 121.55868573 -389.06881332 123.27363615 -391 125 C-391.86625 125.7734375 -392.7325 126.546875 -393.625 127.34375 C-404.73499943 137.39002608 -415.67775103 147.67441985 -424.9609375 159.4609375 C-427.04499822 162.05603226 -429.24185126 164.49311219 -431.5 166.9375 C-436.40276263 172.3398533 -440.73562194 178.08832325 -445 184 C-445.45246094 184.62261719 -445.90492188 185.24523437 -446.37109375 185.88671875 C-502.30084672 263.0364322 -531.10094348 354.14112676 -524.12109375 505.44140625 C-517.93791113 542.47029988 -506.45697054 577.85390993 -491 612 C-490.34879408 613.46867718 -489.69774093 614.93742212 -489.046875 616.40625 C-472.38357042 653.44067397 -448.2973497 688.36822147 -420.6875 718.09375 C-418.25730486 720.72175172 -415.87370804 723.38360092 -413.5 726.0625 C-406.8598086 733.45104929 -399.89045942 740.56974046 -392.32421875 747.015625 C-390.4543397 748.61209316 -388.60850147 750.22778363 -386.76953125 751.859375 C-377.51470561 760.03553217 -367.92438464 767.65350252 -358 775 C-357.08951904 775.67458252 -357.08951904 775.67458252 -356.16064453 776.36279297 C-340.17731421 788.13740256 -323.35287316 798.38007736 -306 808 C-305.22994629 808.4316748 -304.45989258 808.86334961 -303.66650391 809.30810547 C-274.3476867 825.67016493 -242.36128262 837.30073048 -210 846 C-208.71077637 846.34756348 -208.71077637 846.34756348 -207.39550781 846.70214844 C-191.48097536 850.91427304 -175.28461433 853.66151615 -159 856 C-157.83404297 856.16806152 -156.66808594 856.33612305 -155.46679688 856.50927734 C-109.45187974 862.79173278 -60.38706245 860.866387 -15 851 C-14.02482422 850.79681152 -13.04964844 850.59362305 -12.04492188 850.38427734 C62.39831783 834.79961537 131.38945295 799.30601856 187.60546875 748.17578125 C189.22415471 746.70496873 190.85205971 745.24424845 192.48828125 743.79296875 C200.50669356 736.67241909 208.18613411 729.27659728 215.16015625 721.12109375 C217.36900254 718.57458942 219.65320554 716.1039984 221.9375 713.625 C226.52713337 708.57985415 230.83798969 703.40159821 235 698 C235.41411133 697.46906738 235.82822266 696.93813477 236.25488281 696.39111328 C250.32108012 678.3111026 263.05844169 659.12770685 274 639 C274.54366211 638.00162109 275.08732422 637.00324219 275.64746094 635.97460938 C299.13680898 592.50686995 315.64303818 545.50149633 321.59423828 496.31933594 C321.86308217 494.12005703 322.14773 491.92264805 322.44873047 489.72753906 C324.83929937 472.26532105 325.28852887 454.97774311 325.3125 437.375 C325.31787781 435.78532913 325.31787781 435.78532913 325.32336426 434.1635437 C325.34858921 420.31357104 324.65982096 406.74820176 323 393 C322.85409424 391.70755371 322.70818848 390.41510742 322.55786133 389.08349609 C312.55626694 302.4342237 276.49741994 222.3791773 219 157 C218.19820312 156.08476562 217.39640625 155.16953125 216.5703125 154.2265625 C210.73204365 147.71679947 204.61104398 141.48471557 198.45355225 135.27832031 C197.04332142 133.85618705 195.63707405 132.43010712 194.23095703 131.00390625 C188.13076648 124.89608092 181.73702221 119.3884034 175 114 C173.89837384 113.06498242 172.80202586 112.12364867 171.71484375 111.171875 C112.13591392 59.21837782 34.45777579 29.94936703 -43 19 C-44.12631836 18.83483887 -45.25263672 18.66967773 -46.41308594 18.49951172 C-107.2856336 9.94622 -172.36259097 15.65454369 -231 34 Z " fill="#1B3349" transform="translate(614,169)"/>
<path d="M0 0 C1.00675781 0.24492188 2.01351562 0.48984375 3.05078125 0.7421875 C26.93168472 7.33203388 47.37657266 22.76619589 59.92333984 44.14257812 C71.69993242 65.29632961 75.22971529 91.72459524 69 115.25 C61.70200762 140.1400794 45.28353671 159.94635818 22.87890625 172.7890625 C19.63521736 174.40057673 16.39583664 175.73965094 13 177 C12.36126953 177.24121582 11.72253906 177.48243164 11.06445312 177.73095703 C-7.83443307 184.57257003 -32.19953156 185.46455097 -51 178 C-52.76923828 177.34644531 -52.76923828 177.34644531 -54.57421875 176.6796875 C-77.69540921 167.53119484 -95.55932091 149.65376051 -106.02929688 127.265625 C-115.19241819 105.87886298 -116.57669382 79.62853647 -108.15429688 57.80908203 C-104.2836744 48.37289891 -99.52863056 39.87895453 -93 32 C-92.28972656 31.13890625 -91.57945312 30.2778125 -90.84765625 29.390625 C-78.10362526 14.60844494 -61.7230037 5.07525613 -43 0 C-42.11570312 -0.24492188 -41.23140625 -0.48984375 -40.3203125 -0.7421875 C-27.6328157 -3.62750609 -12.57555005 -3.08624218 0 0 Z " fill="#FED455" transform="translate(712,609)"/>
<path d="M0 0 C0.69867188 -0.00257813 1.39734375 -0.00515625 2.1171875 -0.0078125 C6.54966703 0.07581919 9.48252594 0.78195186 13 3.5 C14.59412284 6.68824568 14.10174735 10.12896662 14.0625 13.625 C14.05798828 14.37910156 14.05347656 15.13320313 14.04882812 15.91015625 C14.03703499 17.77347127 14.01909942 19.63674555 14 21.5 C15.21623047 21.72042969 15.21623047 21.72042969 16.45703125 21.9453125 C29.04769728 24.49569188 39.46255649 29.67895485 48 39.5 C52.90521547 47.33638081 55.1458444 54.03677737 55.125 63.25 C55.12886719 64.97476563 55.12886719 64.97476563 55.1328125 66.734375 C55 69.5 55 69.5 54 70.5 C51.85441173 70.58775605 49.70595579 70.60695219 47.55859375 70.59765625 C46.25341797 70.59443359 44.94824219 70.59121094 43.60351562 70.58789062 C42.2148431 70.57953401 40.82617123 70.57106905 39.4375 70.5625 C38.04492344 70.55748666 36.65234519 70.55292347 35.25976562 70.54882812 C31.8398013 70.53699434 28.41992156 70.5205088 25 70.5 C24.80301514 69.81655518 24.60603027 69.13311035 24.40307617 68.42895508 C24.0082605 67.08160278 24.0082605 67.08160278 23.60546875 65.70703125 C23.34660889 64.81733643 23.08774902 63.9276416 22.82104492 63.01098633 C20.79087406 56.80215275 17.40522752 53.74260801 12 50.48046875 C4.92471026 47.01191851 -4.59748099 47.48540611 -12 49.6875 C-17.12066315 51.66999527 -19.99436186 54.9915428 -23 59.5 C-23.56748098 64.26094436 -23.63136395 68.88651436 -21.875 73.375 C-12.22558069 84.31100855 3.64186945 87.07045809 17.21240234 91.04956055 C31.25971349 95.18529203 45.89433894 100.52245632 53.921875 113.640625 C58.00787406 121.69588029 59.20512131 127.62603116 59.25 136.5625 C59.270625 137.56216797 59.29125 138.56183594 59.3125 139.59179688 C59.3779965 152.19168605 55.38302096 162.70367831 47 172.1875 C38.71893082 179.920154 25.2855132 185.5 14 185.5 C14.04640625 186.44101562 14.0928125 187.38203125 14.140625 188.3515625 C14.47222222 199.79166667 14.47222222 199.79166667 12.125 203.3125 C9.4761271 206.03928093 8.72552649 206.46045927 4.91796875 206.66796875 C3.68691406 206.67441406 2.45585937 206.68085937 1.1875 206.6875 C-0.03582031 206.70167969 -1.25914062 206.71585938 -2.51953125 206.73046875 C-6.8421553 206.44423439 -9.57638493 205.79700288 -12.80078125 202.859375 C-14.49526516 199.5256021 -14.32179993 196.39331603 -14.1875 192.75 C-14.16719727 191.70392578 -14.16719727 191.70392578 -14.14648438 190.63671875 C-14.1112945 188.92414459 -14.05749155 187.21197059 -14 185.5 C-15.155 185.45875 -16.31 185.4175 -17.5 185.375 C-29.05099718 184.04289448 -41.0165754 179.04606595 -49 170.5 C-57.12939843 159.926582 -58.50756818 149.54638201 -58 136.5 C-52.3015717 135.31202257 -46.67113783 135.24462357 -40.875 135.1875 C-39.88628906 135.15849609 -38.89757812 135.12949219 -37.87890625 135.09960938 C-30.68768413 135.03635776 -30.68768413 135.03635776 -27.41015625 137.24609375 C-26.0062929 139.48994181 -25.21292461 141.31815843 -24.5625 143.875 C-22.92080917 149.13705115 -20.80283951 152.75974568 -15.98046875 155.75390625 C-6.5837867 160.22629057 5.11354475 159.98488085 14.84375 156.546875 C19.37056295 154.34907451 22.78105581 151.46091023 25.4375 147.1875 C26.6281949 141.49862435 26.96820237 136.55685207 24.125 131.3125 C16.88392131 121.56523992 4.32450693 119.17366064 -6.75 116.0625 C-40.98923915 106.43404095 -40.98923915 106.43404095 -50.875 90.47265625 C-56.93496601 78.92084605 -59.02508655 67.57308641 -55.75 54.6875 C-52.2477931 43.57040288 -45.86610944 33.4905518 -35.44140625 27.59375 C-28.60649137 24.53170813 -20.59467437 20.99175219 -13 21.5 C-13.05800781 20.40300781 -13.11601562 19.30601562 -13.17578125 18.17578125 C-13.22269688 16.72139686 -13.26819511 15.26696626 -13.3125 13.8125 C-13.35439453 13.09126953 -13.39628906 12.37003906 -13.43945312 11.62695312 C-13.53033472 7.64633919 -13.27354501 5.90476196 -10.98046875 2.51171875 C-7.26219297 0.00200443 -4.333382 -0.17589373 0 0 Z " fill="#1B3349" transform="translate(484,364.5)"/>
<path d="M0 0 C1.47013694 -0.00807831 1.47013694 -0.00807831 2.96997362 -0.01631981 C6.25725517 -0.03063829 9.54413624 -0.02348594 12.83143616 -0.01637268 C15.18694381 -0.02207419 17.5424487 -0.0290376 19.89794922 -0.03717041 C26.29871803 -0.05514084 32.69935004 -0.05392612 39.10013652 -0.04822803 C43.0974993 -0.04516827 47.09485018 -0.04812232 51.09221077 -0.05270576 C51.75588768 -0.05345419 52.41956459 -0.05420261 53.10335292 -0.05497371 C54.45163087 -0.05650519 55.79990882 -0.05804354 57.14818675 -0.05958868 C69.79084528 -0.07331527 82.43344193 -0.06787493 95.07609905 -0.05640347 C106.64040517 -0.04647086 118.20455129 -0.05941187 129.76883274 -0.08333766 C141.64546699 -0.10772441 153.52202672 -0.11733759 165.39868551 -0.11068493 C172.06556379 -0.10719176 178.73233738 -0.10976557 185.39919853 -0.12693596 C191.66765459 -0.14237508 197.93580459 -0.13848294 204.20424843 -0.11963081 C206.50607621 -0.11593659 208.80792651 -0.11907752 211.10973358 -0.1295166 C214.24969915 -0.14267068 217.3886432 -0.13122778 220.52856445 -0.11352539 C221.4415044 -0.1231304 222.35444434 -0.1327354 223.29504913 -0.14263147 C228.9328083 -0.07714199 231.98850137 0.71817816 236.32777405 4.38768005 C239.23626982 8.58603047 239.08633839 13.48023318 238.32777405 18.38768005 C236.70856241 21.66624908 234.47972106 23.75609122 231.24938869 25.52721596 C227.07233104 26.75742889 223.10263306 26.66995984 218.7694397 26.65510559 C217.31767874 26.66190226 217.31767874 26.66190226 215.83658928 26.66883624 C212.59084529 26.68150491 209.34526856 26.67985827 206.09950256 26.6782074 C203.77355228 26.68419103 201.44760399 26.69099619 199.12165833 26.69856262 C192.80149457 26.71624485 186.48138495 26.72091889 180.16119885 26.72219419 C174.88764114 26.72409232 169.61409606 26.73144871 164.34054321 26.73853838 C152.61192575 26.75418107 140.88333178 26.75987554 129.15470482 26.75852768 C128.09943292 26.75840781 128.09943292 26.75840781 127.02284241 26.75828552 C126.31846808 26.75820376 125.61409375 26.758122 124.88837474 26.75803776 C113.46957036 26.75722462 102.05089782 26.77637037 90.63213158 26.80456226 C78.90466622 26.83328769 67.17726516 26.84710279 55.44976372 26.8453747 C48.86670306 26.84486425 42.28379164 26.85059381 35.7007618 26.8717308 C29.51111223 26.8910621 23.32175508 26.89127249 17.13209534 26.87669754 C14.85928865 26.87460213 12.58646391 26.87935369 10.31368828 26.89141846 C7.21314348 26.9068126 4.11361435 26.89760086 1.01309204 26.88215637 C0.11182494 26.8924435 -0.78944216 26.90273062 -1.71802038 26.91332948 C-7.196587 26.85294123 -10.32236478 26.03438657 -14.67222595 22.38768005 C-17.87019531 18.65671581 -18.13871163 15.28221834 -17.9573822 10.53611755 C-17.41949165 6.48351752 -15.79576761 4.28739084 -12.66345882 1.77909756 C-8.41403611 -0.19758611 -4.63366933 -0.03042991 0 0 Z " fill="#1A3147" transform="translate(343.67222595214844,600.6123199462891)"/>
<path d="M0 0 C7.85088229 7.29252213 9.80365292 13.65762292 10.875 24.37109375 C3.615 24.37109375 -3.645 24.37109375 -11.125 24.37109375 C-12.445 21.73109375 -13.765 19.09109375 -15.125 16.37109375 C-20.44201353 11.05408022 -26.55766653 9.95460548 -33.875 9.93359375 C-41.87959341 9.95560959 -48.01868536 11.42237754 -53.95703125 17.1328125 C-62.32908033 27.1751974 -62.10140357 39.95520258 -61.125 52.37109375 C-59.8491557 60.3920994 -56.27115028 67.82673759 -50.125 73.24609375 C-42.96411343 78.3183884 -35.58111773 78.09887437 -27.125 77.37109375 C-23.55784054 76.40650471 -20.39422326 75.07731694 -17.125 73.37109375 C-16.41730469 73.07976562 -15.70960938 72.7884375 -14.98046875 72.48828125 C-10.57258909 69.8342737 -8.6769759 61.2510335 -7.125 57.37109375 C-16.035 57.37109375 -24.945 57.37109375 -34.125 57.37109375 C-34.125 52.09109375 -34.125 46.81109375 -34.125 41.37109375 C-18.945 41.37109375 -3.765 41.37109375 11.875 41.37109375 C11.875 59.19109375 11.875 77.01109375 11.875 95.37109375 C6.265 95.37109375 0.655 95.37109375 -5.125 95.37109375 C-6.115 90.91609375 -6.115 90.91609375 -7.125 86.37109375 C-7.681875 86.84160156 -8.23875 87.31210938 -8.8125 87.796875 C-20.73481455 97.52403366 -33.16707196 98.66317016 -48.125 97.37109375 C-57.81778939 95.35790041 -64.3919223 90.43323164 -71.125 83.37109375 C-72.0325 82.44296875 -72.94 81.51484375 -73.875 80.55859375 C-84.03366197 66.16715595 -86.7974534 50.12739968 -84.69140625 32.8046875 C-82.23152707 19.13020387 -76.31817483 6.90284793 -65.125 -1.62890625 C-45.44729409 -14.18608715 -19.00419381 -14.56755297 0 0 Z " fill="#1A3147" transform="translate(358.125,1202.62890625)"/>
<path d="M0 0 C8.415 3.465 8.415 3.465 17 7 C29.69897807 11.31066228 41.5220315 13.36617273 54.9375 13.25 C56.083396 13.24250732 57.22929199 13.23501465 58.40991211 13.22729492 C76.22070474 13.00010673 92.6113089 9.06046354 108.55859375 1.13671875 C111 0 111 0 113 0 C113 27.06 113 54.12 113 82 C107.00651688 78.00434459 101.30638117 74.01559821 95.6875 69.5625 C88.91800664 64.25502717 82.11302871 58.99858957 75.25 53.8125 C74.41686279 53.17707275 73.58372559 52.54164551 72.7253418 51.88696289 C64.07755233 45.23758365 64.07755233 45.23758365 53.6484375 43.28515625 C48.03968186 44.79902392 43.56813005 48.88314306 39.05859375 52.40820312 C36.09707986 54.69817829 33.07106492 56.89664668 30.0480957 59.10449219 C24.429806 63.20966468 18.84034479 67.35163984 13.30078125 71.5625 C12.56456543 72.1208252 11.82834961 72.67915039 11.06982422 73.25439453 C9.67623083 74.31355104 8.2857823 75.37686165 6.89892578 76.44482422 C2.22093444 80 2.22093444 80 0 80 C0 53.6 0 27.2 0 0 Z " fill="#4B74A5" transform="translate(635,803)"/>
<path d="M0 0 C1.25424552 -0.00679667 1.25424552 -0.00679667 2.53382933 -0.01373065 C5.34590154 -0.02642781 8.15778139 -0.02475086 10.96987915 -0.02310181 C12.98189037 -0.02908374 14.99389928 -0.03588851 17.00590515 -0.04345703 C22.47904139 -0.06115833 27.95211514 -0.06581415 33.42527723 -0.0670886 C37.99051122 -0.06898529 42.55573056 -0.07634018 47.12095892 -0.08343279 C57.88977969 -0.09973004 68.658567 -0.10460053 79.42739868 -0.10317993 C90.5444995 -0.10197813 101.66140629 -0.12308456 112.778458 -0.15466726 C122.31568199 -0.18079856 131.8528425 -0.19154855 141.39010203 -0.19026911 C147.08952754 -0.18975855 152.78878069 -0.1954935 158.48817062 -0.21662521 C163.84800078 -0.2359546 169.20749323 -0.23616836 174.56733513 -0.22159195 C176.5357875 -0.21949616 178.50426071 -0.22425034 180.47267723 -0.23631287 C183.1577218 -0.2517026 185.84159283 -0.24249907 188.52661133 -0.22705078 C189.69816208 -0.24248147 189.69816208 -0.24248147 190.89338052 -0.25822389 C194.54760131 -0.21168557 196.67608235 0.13115676 199.78801918 2.11083031 C203.18759263 5.59825268 204.21508381 7.7866271 204.32778931 12.57992554 C204.25817679 16.33900146 204.05641943 18.83977909 201.70278931 21.82992554 C196.66916656 26.19239858 192.2213141 26.56129421 185.73661804 26.53485107 C184.91986884 26.53938219 184.10311964 26.5439133 183.26162046 26.54858172 C180.52719005 26.56123334 177.79295862 26.55960487 175.0585022 26.55795288 C173.0970789 26.56393758 171.13565795 26.57074299 169.17424011 26.57830811 C163.84784433 26.59597941 158.5215128 26.60066391 153.19509053 26.60193968 C148.74914605 26.60383881 144.30321653 26.61119635 139.85727781 26.61828387 C129.36933187 26.63456906 118.88142027 26.63945263 108.39346313 26.63803101 C97.57171767 26.63682893 86.75017143 26.65794373 75.92847639 26.68951833 C66.63832792 26.71565916 57.34824461 26.72639925 48.05805963 26.72512019 C42.50897782 26.72460999 36.96007311 26.73032538 31.41102791 26.75147629 C26.19315946 26.77082212 20.97563778 26.77100811 15.75775719 26.75644302 C13.84293741 26.75434942 11.92809614 26.75908855 10.01331329 26.77116394 C7.39878136 26.78658427 4.78545001 26.77733002 2.17094421 26.76190186 C1.4136422 26.77218898 0.65634019 26.78247611 -0.12391037 26.79307497 C-5.25707733 26.72615793 -8.14333085 25.48034618 -12.10971069 22.26742554 C-15.27219502 18.57786049 -15.62593493 15.1916526 -15.46908569 10.48617554 C-14.91050475 7.03754538 -13.34564896 4.88666751 -11.10971069 2.26742554 C-7.33902373 -0.24636577 -4.36705562 -0.01721928 0 0 Z " fill="#1C334A" transform="translate(341.1097106933594,668.7325744628906)"/>
<path d="M0 0 C8.81357557 5.79926719 14.92197674 12.83723134 17.1015625 23.3828125 C17.18700847 25.1542687 17.21931054 26.92863772 17.21508789 28.70214844 C17.21497459 30.29334503 17.21497459 30.29334503 17.21485901 31.91668701 C17.20969772 33.05535217 17.20453644 34.19401733 17.19921875 35.3671875 C17.1978038 36.53791809 17.19638885 37.70864868 17.19493103 38.91485596 C17.1893334 42.65420079 17.1767813 46.39348576 17.1640625 50.1328125 C17.1590472 52.66796789 17.15448434 55.20312421 17.15039062 57.73828125 C17.13936473 63.95314807 17.12210169 70.16797013 17.1015625 76.3828125 C10.5015625 76.3828125 3.9015625 76.3828125 -2.8984375 76.3828125 C-2.8984375 73.7428125 -2.8984375 71.1028125 -2.8984375 68.3828125 C-3.5584375 68.3828125 -4.2184375 68.3828125 -4.8984375 68.3828125 C-5.12789063 68.98738281 -5.35734375 69.59195312 -5.59375 70.21484375 C-7.26540188 72.99258864 -8.86064752 73.70035045 -11.7734375 75.0703125 C-13.06894531 75.69486328 -13.06894531 75.69486328 -14.390625 76.33203125 C-22.51634098 79.73673156 -33.12015261 79.80049506 -41.3984375 76.8203125 C-47.49958939 73.93723906 -51.45699055 69.8472218 -54.8359375 64.0703125 C-56.60166062 57.94221461 -56.99316829 52.14589511 -54.3984375 46.1953125 C-50.04071062 38.67937241 -43.76322543 34.86260629 -35.70703125 32.109375 C-28.46300848 30.23539971 -21.38864267 30.26037447 -13.9609375 30.3203125 C-12.36282227 30.32708008 -12.36282227 30.32708008 -10.73242188 30.33398438 C-8.12103459 30.34569463 -5.50976626 30.36209526 -2.8984375 30.3828125 C-3.34801928 28.76743942 -3.80682228 27.15463074 -4.26953125 25.54296875 C-4.52404053 24.64457275 -4.7785498 23.74617676 -5.04077148 22.82055664 C-6.36614006 19.0534615 -8.39161513 17.13622368 -11.8984375 15.3828125 C-13.99792351 15.20809402 -16.10468158 15.11563398 -18.2109375 15.0703125 C-19.90669922 15.01423828 -19.90669922 15.01423828 -21.63671875 14.95703125 C-25.61192649 15.47595058 -27.13699719 16.51384708 -29.8984375 19.3828125 C-30.8884375 21.8578125 -30.8884375 21.8578125 -31.8984375 24.3828125 C-38.4984375 24.3828125 -45.0984375 24.3828125 -51.8984375 24.3828125 C-50.7560506 15.2437173 -48.27236214 10.30182455 -41.6484375 4.0703125 C-30.78785264 -4.31452613 -12.4758971 -6.30407522 0 0 Z " fill="#1A3046" transform="translate(500.8984375,1221.6171875)"/>
<path d="M0 0 C1.27302979 -0.0071553 2.54605957 -0.01431061 3.85766602 -0.02168274 C5.27655005 -0.02452315 6.69543435 -0.02723486 8.11431885 -0.02983093 C9.60239827 -0.03609457 11.09047612 -0.04274128 12.57855225 -0.04974365 C16.62828885 -0.06716367 20.67801364 -0.07770834 24.72777843 -0.08594918 C27.25756981 -0.09109769 29.78735752 -0.09717351 32.3171463 -0.10346031 C40.2311478 -0.12251601 48.14513996 -0.1367458 56.05915999 -0.14507228 C65.19647116 -0.15484425 74.33354004 -0.18116101 83.47076583 -0.22157317 C90.53156546 -0.25173055 97.59229564 -0.26654083 104.65315843 -0.26985329 C108.87099081 -0.27220441 113.08856448 -0.28117236 117.30632782 -0.30631447 C121.27577111 -0.32959349 125.24478532 -0.33382931 129.21427917 -0.32355309 C130.66952695 -0.32305755 132.12479582 -0.32938327 133.57997894 -0.34310913 C135.57016768 -0.36082774 137.56054272 -0.35133671 139.55078125 -0.34057617 C140.66355312 -0.34296453 141.776325 -0.34535288 142.92281723 -0.34781361 C146.78411213 0.26743075 148.97066499 1.76020365 152.02935791 4.14717102 C154.95138408 8.35286186 154.66585143 13.2259894 154.02935791 18.14717102 C151.97631166 22.25326353 150.29901325 24.51066511 146.02935791 26.14717102 C143.18287945 26.41002655 143.18287945 26.41002655 139.82493591 26.42805481 C137.91343498 26.44518524 137.91343498 26.44518524 135.96331787 26.46266174 C134.55328408 26.46515229 133.14324985 26.46740252 131.73321533 26.46943665 C130.24646005 26.47869657 128.75970951 26.48874638 127.27296448 26.49952698 C123.23567179 26.52574416 119.19844557 26.53865867 115.16108108 26.54754829 C112.6376295 26.5534145 110.11419601 26.56162499 107.59075356 26.57055664 C99.69223878 26.59789788 91.79376544 26.61723564 83.89520663 26.62496042 C74.78324412 26.6339214 65.67188173 26.66901848 56.56010169 26.72696161 C49.51282374 26.77021786 42.46571449 26.79037013 35.41830522 26.79304266 C31.21096451 26.79513711 27.00418825 26.80691513 22.79698753 26.84268188 C18.8380113 26.87568441 14.8800225 26.87993669 10.92095757 26.86240387 C9.47095338 26.86086521 8.02089567 26.86952191 6.57102585 26.88932037 C-5.73332106 27.04743865 -5.73332106 27.04743865 -10.32591248 23.22761536 C-14.07138934 19.32170342 -14.4194986 16.07166749 -14.39642334 10.76435852 C-13.69783694 6.47029532 -11.21682927 3.89717933 -7.97064209 1.14717102 C-5.23656168 -0.21986918 -3.06179041 0.01177444 0 0 Z " fill="#1A3147" transform="translate(339.97064208984375,735.8528289794922)"/>
<path d="M0 0 C7.91709632 4.85636321 12.14693981 11.95773632 14.79051208 20.73138428 C15.33020093 23.32256461 15.36971132 25.70105537 15.36352539 28.34863281 C15.36341209 29.96986053 15.36341209 29.96986053 15.36329651 31.62384033 C15.35813522 32.78437927 15.35297394 33.94491821 15.34765625 35.140625 C15.3462413 36.33355164 15.34482635 37.52647827 15.34336853 38.7555542 C15.33777038 42.56622829 15.32521819 46.37684366 15.3125 50.1875 C15.30748476 52.77083248 15.3029219 55.35416589 15.29882812 57.9375 C15.28780155 64.27085596 15.27053814 70.60416803 15.25 76.9375 C8.32 76.9375 1.39 76.9375 -5.75 76.9375 C-5.78738281 73.6375 -5.82476563 70.3375 -5.86328125 66.9375 C-5.9095586 63.72373007 -5.96076976 60.51007375 -6.01245117 57.29638672 C-6.04560258 55.07152268 -6.07366466 52.84657652 -6.09643555 50.62158203 C-6.13016145 47.4140337 -6.18248712 44.20723134 -6.23828125 41 C-6.24467117 40.01322266 -6.2510611 39.02644531 -6.25764465 38.00976562 C-6.40429753 31.04265336 -7.18020731 25.06943483 -11.75 19.5 C-15.93959942 16.22687545 -20.67210875 16.45927394 -25.75 16.9375 C-30.45813298 18.62532126 -33.06740144 20.72198797 -35.75 24.9375 C-37.85984444 30.80636653 -38.08851645 36.26357966 -38.1640625 42.46484375 C-38.18342865 43.45376114 -38.2027948 44.44267853 -38.2227478 45.46156311 C-38.28220622 48.59928951 -38.32879356 51.73705328 -38.375 54.875 C-38.41321084 57.01108311 -38.45226436 59.14715133 -38.4921875 61.28320312 C-38.58945542 66.50122162 -38.66929206 71.71909433 -38.75 76.9375 C-45.68 76.9375 -52.61 76.9375 -59.75 76.9375 C-59.75 51.5275 -59.75 26.1175 -59.75 -0.0625 C-52.82 -0.0625 -45.89 -0.0625 -38.75 -0.0625 C-38.42 2.5775 -38.09 5.2175 -37.75 7.9375 C-37.29625 7.215625 -36.8425 6.49375 -36.375 5.75 C-27.46223066 -3.79939573 -11.74601621 -5.35689527 0 0 Z " fill="#193045" transform="translate(595.75,1221.0625)"/>
<path d="M0 0 C4.56128473 3.64402455 8.01135812 7.79381468 9.69921875 13.45703125 C9.79296875 16.19921875 9.79296875 16.19921875 9.69921875 18.45703125 C6.78032727 18.61919189 3.8704265 18.73794327 0.94921875 18.83203125 C0.12421875 18.88230469 -0.70078125 18.93257812 -1.55078125 18.984375 C-3.93985181 19.04217509 -5.97678445 19.02348782 -8.30078125 18.45703125 C-10.74609375 15.51953125 -10.74609375 15.51953125 -12.30078125 12.45703125 C-16.64951014 9.64314785 -22.27965448 9.90184975 -27.30078125 10.45703125 C-29.54711939 11.1887337 -29.54711939 11.1887337 -31.30078125 12.45703125 C-32.38301491 15.36708028 -32.38301491 15.36708028 -32.30078125 18.45703125 C-30.04003863 21.56400031 -27.48767212 22.18945913 -23.85546875 23.10546875 C-22.7778125 23.3890625 -21.70015625 23.67265625 -20.58984375 23.96484375 C-18.33768255 24.536903 -16.08508647 25.1072533 -13.83203125 25.67578125 C-3.24552802 28.46699707 4.85347559 31.7072789 10.80078125 41.21875 C13.03455445 46.78375887 12.80037467 54.33053497 10.82421875 59.94140625 C6.62531079 67.06850003 0.40800364 71.74468101 -7.30078125 74.45703125 C-18.13698487 77.22455088 -31.43013573 76.8139645 -41.30078125 71.45703125 C-48.57761413 67.05880968 -53.11272172 61.84459278 -55.30078125 53.45703125 C-55.30078125 52.13703125 -55.30078125 50.81703125 -55.30078125 49.45703125 C-48.70078125 49.45703125 -42.10078125 49.45703125 -35.30078125 49.45703125 C-33.98078125 52.09703125 -32.66078125 54.73703125 -31.30078125 57.45703125 C-25.01567142 60.59958617 -18.28956987 60.25404155 -11.55078125 58.45703125 C-10.43703125 57.96203125 -10.43703125 57.96203125 -9.30078125 57.45703125 C-9.19241672 56.02120124 -9.11501958 54.58301105 -9.05078125 53.14453125 C-9.004375 52.34402344 -8.95796875 51.54351563 -8.91015625 50.71875 C-9.08308282 48.32952076 -9.08308282 48.32952076 -11.03564453 46.89135742 C-13.41123296 45.3870912 -15.19236581 44.80433774 -17.93359375 44.24609375 C-18.81772949 44.05619873 -19.70186523 43.86630371 -20.61279297 43.6706543 C-22.00522217 43.37928589 -22.00522217 43.37928589 -23.42578125 43.08203125 C-34.99678912 40.46620827 -44.40572826 37.79961073 -51.30078125 27.45703125 C-54.09787686 21.64695682 -54.36697918 15.39791473 -52.68359375 9.17578125 C-49.95473638 2.89699439 -45.21788096 -0.62068834 -39.19140625 -3.578125 C-26.98798883 -8.10180559 -10.83153161 -7.26393037 0 0 Z " fill="#193046" transform="translate(740.30078125,1224.54296875)"/>
<path d="M0 0 C5.93569367 4.88092065 11.34648423 10.22752282 16.75358009 15.6784153 C18.36110421 17.29883747 19.9718496 18.91599675 21.5834198 20.53239441 C24.99595296 23.95627546 28.40450092 27.38410667 31.8125 30.8125 C35.78114596 34.80476224 39.75141675 38.79538072 43.72589684 42.78183556 C45.31336386 44.37578761 46.89779399 45.97271704 48.48213196 47.56977844 C49.44993624 48.54121314 50.41788 49.5125089 51.38598633 50.48364258 C52.23091141 51.33380447 53.07583649 52.18396637 53.94636536 53.05989075 C55.84975695 55.04535509 55.84975695 55.04535509 58 56 C58 56.66 58 57.32 58 58 C58.86963379 58.38176392 58.86963379 58.38176392 59.75683594 58.77124023 C62.24044664 60.13171179 63.8967063 61.65362094 65.890625 63.66015625 C66.59960938 64.37107422 67.30859375 65.08199219 68.0390625 65.81445312 C68.76867187 66.55630859 69.49828125 67.29816406 70.25 68.0625 C70.99507812 68.80822266 71.74015625 69.55394531 72.5078125 70.32226562 C78 75.85971841 78 75.85971841 78 77 C68.568402 77.09272897 59.1369612 77.16377947 49.7050066 77.20724869 C45.32522784 77.22811306 40.94576123 77.25640935 36.56616211 77.30175781 C32.33863449 77.34525712 28.11140688 77.36914576 23.88367271 77.37950897 C22.27171799 77.38689306 20.65977947 77.40131267 19.04795265 77.42292023 C16.78787535 77.45200978 14.52903358 77.45595387 12.26879883 77.45410156 C10.34019768 77.46742523 10.34019768 77.46742523 8.37263489 77.48101807 C4.30718763 76.90118845 2.6783169 76.11284236 0 73 C-0.60127258 69.74761963 -0.60127258 69.74761963 -0.56762695 65.84472656 C-0.56835709 65.13213181 -0.56908722 64.41953705 -0.56983948 63.68534851 C-0.56636345 61.33632557 -0.52750664 58.98930025 -0.48828125 56.640625 C-0.47895305 55.00967492 -0.47183697 53.37871081 -0.46684265 51.7477417 C-0.44777302 47.45987101 -0.39867346 43.17285032 -0.34332275 38.88531494 C-0.29212895 34.50829568 -0.26932839 30.13113875 -0.24414062 25.75390625 C-0.19055384 17.16888123 -0.10524255 8.58454642 0 0 Z " fill="#4B79B4" transform="translate(635,346)"/>
<path d="M0 0 C6.93 0 13.86 0 21 0 C21 6.27 21 12.54 21 19 C27.27 19 33.54 19 40 19 C40 24.61 40 30.22 40 36 C33.73 36 27.46 36 21 36 C21.07409997 41.03624266 21.15701416 46.07074118 21.26245117 51.10620117 C21.29564169 52.81802238 21.32369189 54.52995148 21.34643555 56.24194336 C21.38009032 58.70733479 21.43240974 61.17174281 21.48828125 63.63671875 C21.49467117 64.39836838 21.5010611 65.16001801 21.50764465 65.94474792 C21.6312449 70.44293556 22.20720447 73.42393767 25 77 C29.54601728 79.27300864 36.08679597 78.68734156 41 79 C41 85.27 41 91.54 41 98 C37.54079759 98.10904666 34.08511093 98.18781572 30.625 98.25 C29.65949219 98.28351563 28.69398438 98.31703125 27.69921875 98.3515625 C20.18210261 98.45246339 12.85444659 97.45268963 7.0559082 92.25854492 C0.20113352 84.78637801 -0.15693509 76.35745454 -0.09765625 66.6640625 C-0.0962413 65.78471039 -0.09482635 64.90535828 -0.09336853 63.99935913 C-0.08779877 61.20787058 -0.0752519 58.41646406 -0.0625 55.625 C-0.05748109 53.72526158 -0.05291887 51.8255219 -0.04882812 49.92578125 C-0.03783925 45.28382286 -0.02059557 40.64192531 0 36 C-4.29 36 -8.58 36 -13 36 C-13 30.39 -13 24.78 -13 19 C-8.71 19 -4.42 19 0 19 C0 12.73 0 6.46 0 0 Z " fill="#1B3248" transform="translate(634,1201)"/>
<path d="M0 0 C0 6.27 0 12.54 0 19 C-7.5625 19.75 -7.5625 19.75 -9.90063477 19.95605469 C-15.14410876 20.54675572 -18.6524461 21.97466838 -23 25 C-24.57881564 26.90267274 -24.57881564 26.90267274 -25.375 29 C-25.67148437 29.66 -25.96796875 30.32 -26.2734375 31 C-27.53362238 34.46889602 -28.12751263 37.6191703 -28.20532227 41.30957031 C-28.22526749 42.15013977 -28.24521271 42.99070923 -28.26576233 43.85675049 C-28.29083107 45.20383087 -28.29083107 45.20383087 -28.31640625 46.578125 C-28.33718735 47.5046991 -28.35796844 48.43127319 -28.37937927 49.38592529 C-28.44466961 52.34054272 -28.50366431 55.29524768 -28.5625 58.25 C-28.60570473 60.25521732 -28.64931965 62.26042585 -28.69335938 64.265625 C-28.80110052 69.17699499 -28.90032658 74.08843313 -29 79 C-36.26 79 -43.52 79 -51 79 C-51 53.26 -51 27.52 -51 1 C-43.74 1 -36.48 1 -29 1 C-29 5.29 -29 9.58 -29 14 C-28.505 12.96875 -28.01 11.9375 -27.5 10.875 C-21.19305206 -0.24692971 -11.55231643 -0.10598455 0 0 Z " fill="#1B3349" transform="translate(439,1219)"/>
<path d="M0 0 C0.33 0 0.66 0 1 0 C1.33 174.57 1.66 349.14 2 529 C107.6 529.33 213.2 529.66 322 530 C322.33 503.6 322.66 477.2 323 450 C323.33 450 323.66 450 324 450 C324 477.39 324 504.78 324 533 C282.88575067 533.04405655 241.77152352 533.08099805 200.65725736 533.10213066 C195.8079632 533.1046322 190.95866909 533.10722083 186.109375 533.10986328 C185.14393105 533.1103879 184.1784871 533.11091252 183.18378727 533.11145304 C167.53290334 533.12016561 151.88203404 533.13594025 136.23115881 533.15430559 C120.18271395 533.17298099 104.13427678 533.18411171 88.08582151 533.18817699 C78.17586483 533.19092696 68.26594949 533.19962551 58.35600553 533.21583293 C51.56871912 533.22637071 44.7814542 533.22960794 37.99416019 533.22700275 C34.07296807 533.22571644 30.1518484 533.22774595 26.23066902 533.23841095 C22.64563966 533.24809096 19.06073198 533.24866942 15.4756972 533.24179779 C13.5544837 533.24054277 11.63327177 533.24921561 9.71207869 533.25816262 C8.01840039 533.25218947 8.01840039 533.25218947 6.29050636 533.24609566 C4.81984952 533.24723482 4.81984952 533.24723482 3.31948245 533.24839699 C1 533 1 533 -1 531 C-1.19066352 528.12160205 -1.25380075 525.34019576 -1.23047829 522.46108055 C-1.2310976 521.56224644 -1.23171692 520.66341232 -1.232355 519.73734081 C-1.23197027 516.69169569 -1.21715926 513.64628527 -1.20254517 510.60067749 C-1.19928999 508.40868349 -1.19691469 506.21668804 -1.1953491 504.02469218 C-1.18845815 497.97493171 -1.16899844 491.92526535 -1.14758825 485.87554121 C-1.1267015 479.36155497 -1.1173261 472.84755131 -1.10658264 466.33354187 C-1.08671177 455.03884064 -1.05885467 443.7441761 -1.02626419 432.44950485 C-0.99210372 420.60021074 -0.96206762 408.75091808 -0.93757248 396.90159988 C-0.93604865 396.16558722 -0.93452483 395.42957456 -0.93295482 394.67125849 C-0.92523803 390.93361268 -0.91759523 387.19596671 -0.90998094 383.45832069 C-0.85587782 356.96600753 -0.79247801 330.47372392 -0.72363281 303.98144531 C-0.65676065 278.24024388 -0.59408591 252.49903783 -0.53710938 226.7578125 C-0.53535227 225.96473186 -0.53359516 225.17165123 -0.5317848 224.35453784 C-0.51414428 216.39029189 -0.49658926 208.42604576 -0.47909689 200.46179948 C-0.44345912 184.23687115 -0.40725057 168.01194411 -0.37069702 151.78701782 C-0.36901695 151.04097778 -0.36733688 150.29493775 -0.3656059 149.52629043 C-0.2532969 99.6841705 -0.12763968 49.84208277 0 0 Z " fill="#C1D7EA" transform="translate(285,335)"/>
<path d="M0 0 C108.9 0 217.8 0 330 0 C330 6.6 330 13.2 330 20 C329.67 20 329.34 20 329 20 C328.67 14.39 328.34 8.78 328 3 C220.09 3 112.18 3 1 3 C0.67 2.01 0.34 1.02 0 0 Z " fill="#C4DCEE" transform="translate(279,893)"/>
<path d="M0 0 C0.92232422 0.00902344 1.84464844 0.01804687 2.79492188 0.02734375 C5.05105809 0.0507234 7.30663684 0.08349084 9.5625 0.125 C9.66923744 5.4430359 9.54034227 8.61020688 6.5625 13.125 C1.55447488 18.30237862 -2.14454046 20.24130891 -9.375 20.375 C-14.70671177 20.31227398 -17.47054827 19.09195173 -21.25 15.3125 C-22.89075941 12.29004845 -22.99156119 10.51862482 -22.4375 7.125 C-16.68917649 -0.53943134 -8.76312607 -0.1640326 0 0 Z " fill="#F6F7F8" transform="translate(488.4375,1264.875)"/>
<path d="M0 0 C20.13 0 40.26 0 61 0 C61 45.87 61 91.74 61 139 C58.03 138.01 58.03 138.01 55 137 C56.32 136.67 57.64 136.34 59 136 C59 91.45 59 46.9 59 1 C39.53 1 20.06 1 0 1 C0 0.67 0 0.34 0 0 Z " fill="#E2F4FD" transform="translate(668,449)"/>
<path d="M0 0 C7.26 0 14.52 0 22 0 C22 0.66 22 1.32 22 2 C15.4 2 8.8 2 2 2 C2 26.75 2 51.5 2 77 C8.6 77 15.2 77 22 77 C22 77.33 22 77.66 22 78 C14.74 78 7.48 78 0 78 C0 52.26 0 26.52 0 0 Z " fill="#2C3748" transform="translate(388,1220)"/>
<path d="M0 0 C1.485 0.99 1.485 0.99 3 2 C6.20396261 2.27143178 6.20396261 2.27143178 9.91821289 2.17944336 C10.61769547 2.17491653 11.31717804 2.17038971 12.03785706 2.16572571 C13.55533121 2.15477319 15.0727778 2.13927239 16.59016609 2.11976433 C18.98953935 2.08963172 21.38866981 2.07280351 23.78819275 2.05970764 C30.60971324 2.01992073 37.43094003 1.95472521 44.25219727 1.88354492 C48.42476027 1.84092196 52.597225 1.81277088 56.76995659 1.79324532 C58.36206373 1.78265332 59.95414286 1.76622801 61.54612923 1.74394035 C63.76794623 1.71287675 65.98918148 1.69999783 68.21118164 1.69116211 C70.10955528 1.67212074 70.10955528 1.67212074 72.04627991 1.6526947 C73.02100754 1.76730545 73.99573517 1.8819162 75 2 C75.99 3.485 75.99 3.485 77 5 C67.5511021 5.06950346 58.10229217 5.12281294 48.65319443 5.15543652 C44.265612 5.17109403 39.87820444 5.19233377 35.49072266 5.22631836 C31.25672944 5.2589089 27.02290444 5.27685237 22.78879547 5.28463173 C21.17324424 5.2901758 19.55770223 5.30100203 17.9422226 5.31719017 C15.67970365 5.33896085 13.41788024 5.34196715 11.15527344 5.34057617 C9.22334137 5.35056892 9.22334137 5.35056892 7.25238037 5.36076355 C3.82065926 4.980107 2.38264542 4.46077608 0 2 C0 1.34 0 0.68 0 0 Z " fill="#5081C1" transform="translate(636,418)"/>
<path d="M0 0 C0.33 0 0.66 0 1 0 C1 5.61 1 11.22 1 17 C-0.65 17 -2.3 17 -4 17 C-4 16.34 -4 15.68 -4 15 C-3.34 15 -2.68 15 -2 15 C-2 10.71 -2 6.42 -2 2 C-1.34 2 -0.68 2 0 2 C0 1.34 0 0.68 0 0 Z " fill="#C7DBE9" transform="translate(470,369)"/>
<path d="M0 0 C0.66 0.33 1.32 0.66 2 1 C2.05384521 3.29141286 2.09272087 5.58318188 2.125 7.875 C2.14820313 9.15117187 2.17140625 10.42734375 2.1953125 11.7421875 C2 15 2 15 0 17 C-1.13130884 13.60607349 -1.1329194 10.94665128 -1.125 7.375 C-1.12886719 5.62316406 -1.12886719 5.62316406 -1.1328125 3.8359375 C-1 1 -1 1 0 0 Z " fill="#23374E" transform="translate(428,424)"/>
<path d="M0 0 C0.66 0 1.32 0 2 0 C2 6.6 2 13.2 2 20 C1.01 20.33 0.02 20.66 -1 21 C-1.09733092 13.90565767 -1.10087193 7.01805857 0 0 Z " fill="#243B51" transform="translate(963,611)"/>
<path d="M0 0 C6.6 0 13.2 0 20 0 C20 2.31 20 4.62 20 7 C19.34 7 18.68 7 18 7 C18 5.35 18 3.7 18 2 C16.700625 2.020625 15.40125 2.04125 14.0625 2.0625 C9.30617675 2.07004972 4.71611047 1.59887117 0 1 C0 0.67 0 0.34 0 0 Z " fill="#E8EAEC" transform="translate(478,1265)"/>
<path d="M0 0 C1.15769691 3.47309072 0.81212588 4.27725213 -0.36328125 7.6328125 C-0.82831055 8.96505859 -0.82831055 8.96505859 -1.30273438 10.32421875 C-1.63595703 11.24847656 -1.96917969 12.17273438 -2.3125 13.125 C-2.63412109 14.05699219 -2.95574219 14.98898437 -3.28710938 15.94921875 C-5.74013158 22.87006579 -5.74013158 22.87006579 -8 24 C-7.125 16.375 -7.125 16.375 -6 13 C-5.34 13 -4.68 13 -4 13 C-3.8453125 11.7315625 -3.8453125 11.7315625 -3.6875 10.4375 C-2.9171146 6.58557299 -1.63725486 3.55924969 0 0 Z " fill="#112237" transform="translate(113,451)"/>
<path d="M0 0 C0.33 0 0.66 0 1 0 C1.33 5.61 1.66 11.22 2 17 C2.33 17 2.66 17 3 17 C3 19.97 3 22.94 3 26 C2.01 26 1.02 26 0 26 C0 17.42 0 8.84 0 0 Z " fill="#223C55" transform="translate(83,605)"/>
<path d="M0 0 C0.33 0 0.66 0 1 0 C0 7.42857143 0 7.42857143 -1 11 C-0.34 11 0.32 11 1 11 C1.268125 11.763125 1.53625 12.52625 1.8125 13.3125 C2.94424112 15.87380884 3.91223401 17.19692938 6 19 C2.78979202 18.77069943 1.94425548 17.93806165 -0.25 15.5 C-2.38777675 11.2244465 -2.77142949 7.70930792 -2 3 C-1.34 2.01 -0.68 1.02 0 0 Z " fill="#0E1B2E" transform="translate(328,674)"/>
<path d="M0 0 C0.33 0.66 0.66 1.32 1 2 C0.29296875 3.734375 0.29296875 3.734375 -0.8125 5.75 C-2.57574291 9.09345023 -3.91053122 12.36843741 -5 16 C-5.66 16 -6.32 16 -7 16 C-7.33 16.99 -7.66 17.98 -8 19 C-8.33 18.34 -8.66 17.68 -9 17 C-8.28735352 15.21240234 -8.28735352 15.21240234 -7.12890625 13.0859375 C-6.71962891 12.32539063 -6.31035156 11.56484375 -5.88867188 10.78125 C-5.45103516 9.9871875 -5.01339844 9.193125 -4.5625 8.375 C-4.12873047 7.57320313 -3.69496094 6.77140625 -3.24804688 5.9453125 C-2.17243012 3.95955849 -1.08952787 1.9781454 0 0 Z " fill="#09172C" transform="translate(115,390)"/>
<path d="M0 0 C2.91517292 1.07401108 4.77810176 1.77810176 7 4 C7.804375 4.268125 8.60875 4.53625 9.4375 4.8125 C12.62494348 6.28960796 13.45637931 7.91275861 15 11 C10.92584833 9.59790456 8.01720177 7.65552322 4.6875 4.9375 C3.80449219 4.22464844 2.92148437 3.51179687 2.01171875 2.77734375 C1.34785156 2.19082031 0.68398438 1.60429688 0 1 C0 0.67 0 0.34 0 0 Z " fill="#132237" transform="translate(714,891)"/>
<path d="M0 0 C5.86809507 0.52393706 10.54873741 1.76108858 16 4 C12.52487282 5.15837573 10.86329714 4.77265943 7.3125 4.0625 C6.31863281 3.86785156 5.32476563 3.67320312 4.30078125 3.47265625 C3.54152344 3.31667969 2.78226563 3.16070312 2 3 C2 2.34 2 1.68 2 1 C1.34 0.67 0.68 0.34 0 0 Z " fill="#111F33" transform="translate(638,176)"/>
<path d="M0 0 C3.60555842 1.33920741 6.70914824 3.02548894 10 5 C10.9075 5.33 11.815 5.66 12.75 6 C13.86375 6.495 13.86375 6.495 15 7 C15.33 7.99 15.66 8.98 16 10 C12.06342758 8.56786488 8.71068644 6.69667846 5.1875 4.4375 C4.21167969 3.81746094 3.23585938 3.19742188 2.23046875 2.55859375 C1.49441406 2.04425781 0.75835937 1.52992188 0 1 C0 0.67 0 0.34 0 0 Z " fill="#DEEDF4" transform="translate(278,958)"/>
<path d="M0 0 C0.33 0.66 0.66 1.32 1 2 C-2.33562767 6.51290803 -4.33289301 8.68206814 -10 10 C-8.37660195 8.29115995 -6.70680947 6.62553283 -5 5 C-4.34 5 -3.68 5 -3 5 C-2.690625 4.360625 -2.38125 3.72125 -2.0625 3.0625 C-1 1 -1 1 0 0 Z " fill="#142135" transform="translate(348,1269)"/>
<path d="M0 0 C3.3 0 6.6 0 10 0 C10 0.99 10 1.98 10 3 C7.03 3 4.06 3 1 3 C0.67 2.01 0.34 1.02 0 0 Z " fill="#EBEEF0" transform="translate(713,1234)"/>
<path d="M0 0 C1.43931117 0.45261358 2.87638999 0.91232979 4.3125 1.375 C5.11300781 1.63023437 5.91351562 1.88546875 6.73828125 2.1484375 C9 3 9 3 12 5 C8.22134307 6.25955231 6.96588214 5.48087189 3.3125 4.0625 C2.31863281 3.68222656 1.32476563 3.30195313 0.30078125 2.91015625 C-0.45847656 2.60980469 -1.21773437 2.30945313 -2 2 C-1.34 1.34 -0.68 0.68 0 0 Z " fill="#EFF2F3" transform="translate(661,180)"/>
<path d="M0 0 C0.66 0.33 1.32 0.66 2 1 C0.90716423 2.03295436 -0.19970579 3.05107835 -1.3125 4.0625 C-1.92738281 4.63097656 -2.54226563 5.19945312 -3.17578125 5.78515625 C-3.77777344 6.18605469 -4.37976563 6.58695313 -5 7 C-5.99 6.67 -6.98 6.34 -8 6 C-5.36 4.02 -2.72 2.04 0 0 Z " fill="#122248" transform="translate(748,772)"/>
<path d="M0 0 C0.33 0.99 0.66 1.98 1 3 C-1.64 5.31 -4.28 7.62 -7 10 C-7.66 9.67 -8.32 9.34 -9 9 C-6.03 6.03 -3.06 3.06 0 0 Z " fill="#0B182C" transform="translate(182,298)"/>
<path d="M0 0 C2 3 2 3 1.75 5.4375 C1.05282249 7.81952314 0.20252143 9.83546142 -1 12 C-2.09898702 8.70303895 -1.87124444 7.59505097 -1.0625 4.3125 C-0.86785156 3.50425781 -0.67320312 2.69601562 -0.47265625 1.86328125 C-0.31667969 1.24839844 -0.16070313 0.63351562 0 0 Z " fill="#E5E9EB" transform="translate(954,704)"/>
<path d="M0 0 C0.66 0.66 1.32 1.32 2 2 C1.9765625 4.1640625 1.9765625 4.1640625 1.625 6.625 C1.51414062 7.44226563 1.40328125 8.25953125 1.2890625 9.1015625 C1.19367187 9.72804688 1.09828125 10.35453125 1 11 C0.67 11 0.34 11 0 11 C-1.28571429 3.57142857 -1.28571429 3.57142857 0 0 Z " fill="#DAECF7" transform="translate(931,674)"/>
<path d="M0 0 C1.485 0.99 1.485 0.99 3 2 C2.67 4.97 2.34 7.94 2 11 C-0.10814567 6.78370866 -0.17700355 4.60209225 0 0 Z " fill="#BCD5EA" transform="translate(935,567)"/>
<path d="M0 0 C3.63 0 7.26 0 11 0 C11 0.33 11 0.66 11 1 C2.96428571 3.27678571 2.96428571 3.27678571 -1 2 C-0.67 1.34 -0.34 0.68 0 0 Z " fill="#D7EAF5" transform="translate(453,188)"/>
<path d="M0 0 C1.32 0.33 2.64 0.66 4 1 C4 3.64 4 6.28 4 9 C1.47740939 7.02579865 1.0070192 6.03254358 0.3125 2.8125 C0.209375 1.884375 0.10625 0.95625 0 0 Z " fill="#22384E" transform="translate(351,1286)"/>
<path d="M0 0 C2.40072955 2.88087546 4.47291037 5.56404834 6 9 C1.60841671 7.5361389 1.12052567 5.02168662 -1 1 C-0.67 0.67 -0.34 0.34 0 0 Z " fill="#EAEDF0" transform="translate(128,844)"/>
<path d="M0 0 C0 4.24645065 -1.81750806 6.38524772 -4 10 C-4.66 9.34 -5.32 8.68 -6 8 C-4.02 5.36 -2.04 2.72 0 0 Z " fill="#0D1C31" transform="translate(868,840)"/>
<path d="M0 0 C0.99 0.33 1.98 0.66 3 1 C1.6875 3 1.6875 3 0 5 C-0.99 5 -1.98 5 -3 5 C-1.125 1.125 -1.125 1.125 0 0 Z " fill="#FCE158" transform="translate(621,639)"/>
<path d="M0 0 C0.66 0.33 1.32 0.66 2 1 C1.34 2.32 0.68 3.64 0 5 C-1.98 5 -3.96 5 -6 5 C-4.06745228 2.9754262 -2.36841312 1.57894208 0 0 Z " fill="#112237" transform="translate(504,518)"/>
</svg>
