<?xml version="1.0" encoding="UTF-8"?>
<svg version="1.1" xmlns="http://www.w3.org/2000/svg" width="1024" height="1536">
<path d="M0 0 C337.92 0 675.84 0 1024 0 C1024 506.88 1024 1013.76 1024 1536 C686.08 1536 348.16 1536 0 1536 C0 1029.12 0 522.24 0 0 Z " fill="#F8F9FA" transform="translate(0,0)"/>
<path d="M0 0 C1.13155518 -0.00100708 2.26311035 -0.00201416 3.42895508 -0.00305176 C21.680826 0.00790839 39.46672383 0.78724583 57.5625 3.25 C58.71991699 3.39985352 59.87733398 3.54970703 61.06982422 3.70410156 C146.47031528 14.86338337 228.73051093 49.26385093 294.5625 105.25 C295.09649414 105.70052734 295.63048828 106.15105469 296.18066406 106.61523438 C311.85900926 119.84687443 327.29921755 133.54717088 340.5625 149.25 C341.43003906 150.24 342.29757812 151.23 343.19140625 152.25 C351.07737898 161.26910535 358.40429188 170.64648118 365.5625 180.25 C366.08956543 180.9507666 366.61663086 181.6515332 367.15966797 182.37353516 C393.29229114 217.20898943 413.9210308 256.2760144 428.5625 297.25 C428.94889648 298.3215332 429.33529297 299.39306641 429.73339844 300.49707031 C438.62975343 325.39642431 445.29866217 351.14776031 449.5625 377.25 C449.76866943 378.49354248 449.76866943 378.49354248 449.97900391 379.76220703 C453.57488251 401.86566294 454.90829304 424.02854934 454.82324219 446.40673828 C454.81250255 449.74920775 454.82323412 453.09114008 454.8359375 456.43359375 C454.85178761 477.55986203 453.46842322 498.43268425 449.8125 519.25 C449.68211334 520.00926788 449.55172668 520.76853577 449.41738892 521.55081177 C436.61520643 595.93059367 404.10550692 666.63331134 356.5625 725.25 C355.79421875 726.21164062 355.0259375 727.17328125 354.234375 728.1640625 C349.71557911 733.77305739 345.00461695 739.15861751 340.1171875 744.44921875 C338.77088976 745.92520572 337.42905239 747.40609092 336.13085938 748.92456055 C331.01795499 754.90488811 325.51784215 760.48078826 319.95751953 766.0402832 C318.32422552 767.67575882 316.6991153 769.31907708 315.07421875 770.96289062 C308.54670426 777.52496677 301.81566092 783.48912692 294.5625 789.25 C293.47241991 790.17308078 292.38779516 791.10270653 291.3125 792.04296875 C277.05811904 804.45480899 261.61286916 815.29664837 245.5625 825.25 C244.93424316 825.63994141 244.30598633 826.02988281 243.65869141 826.43164062 C234.1727927 832.28522542 224.46799166 837.73844258 214.68798828 843.08300781 C212.77312713 844.13435588 210.86795902 845.20103445 208.96484375 846.2734375 C175.28234102 864.88045705 137.8347161 877.26357249 100.390625 885.61816406 C98.62316542 886.01303504 96.85723236 886.41487863 95.09375 886.82714844 C83.4169543 889.55403527 71.64905986 891.07658114 59.75 892.4375 C59.01009827 892.52235657 58.27019653 892.60721313 57.50787354 892.69464111 C39.62027064 894.72198553 21.93450893 895.45751416 3.9375 895.4375 C2.85057861 895.43656342 1.76365723 895.43562683 0.64379883 895.43466187 C-37.15610322 895.36416039 -73.73395651 891.40034211 -110.4375 882.25 C-111.44586914 882.00056641 -112.45423828 881.75113281 -113.49316406 881.49414062 C-169.51428919 867.37543789 -223.36402842 840.91269763 -269.4375 806.25 C-270.32719482 805.58774414 -270.32719482 805.58774414 -271.23486328 804.91210938 C-283.56153087 795.72794846 -295.09030118 785.60822277 -306.4375 775.25 C-307.47638677 774.3162107 -308.51545971 773.38262851 -309.5546875 772.44921875 C-316.4472783 766.21992739 -322.85532638 759.73145179 -329.03857422 752.80175781 C-331.00331987 750.62236455 -333.01150903 748.48475835 -335.0168457 746.34277344 C-340.7664465 740.18540598 -346.2043847 733.85628476 -351.4375 727.25 C-352.44913679 726.00383971 -353.46086177 724.75775101 -354.47265625 723.51171875 C-396.88226047 670.71583516 -426.18385626 608.07680299 -441.4375 542.25 C-441.63778809 541.40791992 -441.83807617 540.56583984 -442.04443359 539.69824219 C-444.68965507 528.41288476 -446.21512735 516.99335533 -447.625 505.5 C-447.7099472 504.81202332 -447.79489441 504.12404663 -447.88241577 503.41522217 C-450.08290849 485.37630244 -450.67589082 467.47454812 -450.6875 449.3125 C-450.68850708 448.21350372 -450.68951416 447.11450745 -450.69055176 445.98220825 C-450.67898735 427.2313645 -449.85590821 408.85193728 -447.4375 390.25 C-447.29828125 389.15655273 -447.1590625 388.06310547 -447.015625 386.93652344 C-436.32324936 305.97642916 -400.91569477 226.2684569 -348.484375 163.6953125 C-347.11799102 162.06295302 -345.77405055 160.41154616 -344.453125 158.7421875 C-331.19339816 142.04290745 -315.79949453 125.94627632 -299.4375 112.25 C-298.52226562 111.45722656 -297.60703125 110.66445313 -296.6640625 109.84765625 C-246.12837073 66.20937109 -186.39837631 34.95502242 -122.4375 16.25 C-121.52661621 15.9813916 -120.61573242 15.7127832 -119.67724609 15.43603516 C-93.2164968 7.75877104 -65.85125527 3.56366576 -38.4375 1.25 C-37.43114502 1.1557373 -36.42479004 1.06147461 -35.38793945 0.96435547 C-23.61170688 -0.03267808 -11.81079894 0.00730281 0 0 Z " fill="#1A3452" transform="translate(510.4375,158.75)"/>
<path d="M0 0 C1.04541962 0.00254791 2.09083923 0.00509583 3.16793823 0.00772095 C22.54571435 0.08919228 41.57069563 0.85808271 60.75 3.6875 C62.35013982 3.9192163 63.95031935 4.15065853 65.55053711 4.38183594 C68.62178316 4.82741386 71.69205544 5.27900546 74.76171875 5.73535156 C77.76623497 6.17706029 80.77044594 6.59705186 83.78125 6.9921875 C118.14638201 11.7433345 152.36337974 23.85690493 183.6875 38.3125 C184.63286621 38.74143555 185.57823242 39.17037109 186.55224609 39.61230469 C221.04300811 55.29679414 253.10970746 76.4605223 281.6875 101.3125 C282.40035156 101.92480469 283.11320313 102.53710938 283.84765625 103.16796875 C296.53598083 114.13672572 309.1659842 125.56961005 320.03125 138.37890625 C321.94735577 140.61586935 323.94262856 142.77053578 325.9375 144.9375 C331.52371393 151.13810294 336.61555608 157.69079543 341.6875 164.3125 C342.4290332 165.27663818 342.4290332 165.27663818 343.18554688 166.26025391 C370.24811678 201.53389313 391.61321437 240.4842838 406.6875 282.3125 C407.04295898 283.28445313 407.39841797 284.25640625 407.76464844 285.2578125 C416.88583554 310.40316963 423.13180978 336.81383631 426.6875 363.3125 C426.90962158 364.82287842 426.90962158 364.82287842 427.13623047 366.36376953 C432.78169814 405.83342781 432.46149003 449.04157798 425.6875 488.3125 C425.44287252 489.92000791 425.20154809 491.52802507 424.96484375 493.13671875 C424.33699744 497.22336753 423.54688201 501.26876162 422.6875 505.3125 C422.39818604 506.69501953 422.39818604 506.69501953 422.10302734 508.10546875 C414.66802537 543.15381265 402.9618105 576.39417 386.6875 608.3125 C385.86741455 609.9217334 385.86741455 609.9217334 385.03076172 611.56347656 C376.85236033 627.46684213 367.77201554 642.54988975 357.6875 657.3125 C357.15382813 658.09979492 356.62015625 658.88708984 356.0703125 659.69824219 C348.81756475 670.36106994 340.97577363 680.43786863 332.6875 690.3125 C331.93750732 691.2111377 331.93750732 691.2111377 331.17236328 692.12792969 C317.49947629 708.47408472 302.9583149 724.50956884 286.6875 738.3125 C285.71941406 739.16972656 284.75132812 740.02695312 283.75390625 740.91015625 C260.93950173 761.02316716 235.15787391 777.47269915 208.6875 792.3125 C207.86040527 792.77640137 207.03331055 793.24030273 206.18115234 793.71826172 C160.97404335 818.82707863 110.22088383 834.71312534 59.0625 841.5 C57.82532227 841.66701416 56.58814453 841.83402832 55.31347656 842.00610352 C37.58536491 844.26217641 19.78939917 844.55179427 1.9375 844.5625 C0.39946213 844.56351212 0.39946213 844.56351212 -1.16964722 844.56454468 C-18.7271621 844.54632389 -35.90261863 843.74736538 -53.3125 841.3125 C-54.54629395 841.14089355 -55.78008789 840.96928711 -57.05126953 840.79248047 C-135.67966331 829.47605955 -209.32098912 797.23562085 -270.3125 746.3125 C-271.28002197 745.5095752 -271.28002197 745.5095752 -272.26708984 744.69042969 C-274.11935438 743.15225904 -275.96713627 741.60893983 -277.8125 740.0625 C-278.37106689 739.59634277 -278.92963379 739.13018555 -279.50512695 738.64990234 C-280.79381415 737.56015662 -282.05634826 736.43959505 -283.3125 735.3125 C-283.3125 734.9825 -283.3125 734.6525 -283.3125 734.3125 C-282.39864464 734.31160437 -282.39864464 734.31160437 -281.46632755 734.31069064 C-245.36690171 734.27480538 -209.26756387 734.21817981 -173.16821586 734.13457905 C-168.8348005 734.12456146 -164.50138475 734.11471735 -160.16796875 734.10498047 C-159.30525494 734.1030391 -158.44254114 734.10109772 -157.55368449 734.09909752 C-143.58034479 734.068067 -129.60702153 734.05109394 -115.63365386 734.03930578 C-101.29824066 734.02689966 -86.96291375 733.99941048 -72.62755501 733.95788693 C-63.78013986 733.93273604 -54.9328678 733.91938388 -46.08541639 733.92107043 C-40.02035622 733.92110016 -33.95544193 733.90649385 -27.8904386 733.88033572 C-24.3899435 733.86567176 -20.88974755 733.85750199 -17.38922691 733.86669731 C-13.5943575 733.87330252 -9.80036572 733.85549801 -6.00558472 733.83148193 C-4.89857771 733.83924235 -3.7915707 733.84700277 -2.65101802 733.85499835 C3.42824286 733.78667945 7.09800642 733.44361862 11.6875 729.3125 C13.99868163 725.84572756 13.93167896 724.54918119 13.91455078 720.46411133 C13.91439972 719.2630928 13.91424866 718.06207428 13.91409302 716.82466125 C13.90377045 715.52771835 13.89344788 714.23077545 13.8828125 712.89453125 C13.87908155 711.55360627 13.87623497 710.21267856 13.87423706 708.87174988 C13.86660699 705.34535167 13.84696403 701.81911866 13.8248291 698.29278564 C13.8043571 694.69326004 13.79523245 691.09370769 13.78515625 687.49414062 C13.76371745 680.43352624 13.72958913 673.37302391 13.6875 666.3125 C23.25823002 665.98659222 32.82702249 665.73862799 42.40211105 665.58712959 C46.84967154 665.5143728 51.29340965 665.41591362 55.73876953 665.25634766 C60.03799467 665.10301194 64.33357239 665.02028833 68.63532257 664.9842186 C70.2671477 664.95855708 71.89879604 664.90843522 73.5290451 664.83227921 C85.93412936 664.27640072 85.93412936 664.27640072 90.54753113 667.68798065 C94.02190424 671.0107956 96.83754131 674.73756568 99.5488205 678.69390488 C117.62085613 704.38270372 155.41871757 719.26528699 185.1875 724.75390625 C190.36529385 725.5802729 195.44787142 726.10907913 200.6875 726.3125 C201.68378418 726.35334717 201.68378418 726.35334717 202.70019531 726.39501953 C244.10487175 727.86780332 281.23130556 713.06147715 311.6875 685.3125 C312.47125 684.61125 313.255 683.91 314.0625 683.1875 C341.23607764 657.56669822 356.77933256 619.08007063 357.87109375 582.109375 C358.320527 557.26021085 353.39931053 533.72730316 342.6875 511.3125 C342.36378418 510.63461426 342.04006836 509.95672852 341.70654297 509.25830078 C332.94260403 491.253686 317.72976201 467.74690162 299.45301139 458.13769221 C293.20001343 454.75228355 293.20001343 454.75228355 291.85588288 450.97627115 C291.54227609 448.03655814 291.51828624 445.21207486 291.58743286 442.25616455 C291.57777618 441.13920031 291.5681195 440.02223608 291.5581702 438.87142444 C291.53664545 435.12561454 291.5793167 431.38328828 291.62158203 427.63769531 C291.61916957 424.95347057 291.61317815 422.26947868 291.60264587 419.58529663 C291.58694046 413.80324393 291.60376906 408.02202381 291.64242935 402.24008942 C291.69808245 393.86966355 291.70110871 385.49985387 291.69085012 377.12927923 C291.67533478 363.53395823 291.6977349 349.93898441 291.74609375 336.34375 C291.79285505 323.16341249 291.8293695 309.98314636 291.84667969 296.80273438 C291.84775341 295.99152796 291.84882714 295.18032154 291.8499334 294.34453312 C291.86125619 285.48146353 291.86836868 276.61839806 291.87049675 267.7553215 C291.87078977 266.58551822 291.87078977 266.58551822 291.87108871 265.39208256 C291.8718131 262.27363221 291.87249187 259.155182 291.87263368 256.03673157 C291.87315308 246.92018024 291.88668143 237.80387178 291.92397253 228.68739292 C291.94706621 222.96490207 291.96040861 217.2424462 291.96621557 211.5199118 C291.97006012 208.2213929 291.98069655 204.92313001 292.00136757 201.62466812 C292.02324792 198.0419121 292.02661181 194.45958224 292.02566528 190.87677002 C292.03665194 189.84387132 292.04763859 188.81097262 292.05895817 187.74677396 C292.01264883 176.23940907 288.64757822 166.0459217 280.94140625 157.33984375 C272.86703364 149.70192372 262.95858108 145.27901345 251.88745117 145.10717773 C250.74664597 145.08723251 249.60584076 145.06728729 248.4304657 145.04673767 C247.20946671 145.03002518 245.98846771 145.01331268 244.73046875 144.99609375 C243.47236893 144.97531265 242.2142691 144.95453156 240.91804504 144.93312073 C237.58577714 144.87889535 234.25349761 144.82862055 230.92114258 144.78027344 C227.51573445 144.72988916 224.1104118 144.67429177 220.70507812 144.61914062 C214.03262033 144.51213301 207.36009826 144.41033476 200.6875 144.3125 C200.57140381 143.63558105 200.45530762 142.95866211 200.33569336 142.26123047 C200.0902478 140.9214917 200.0902478 140.9214917 199.83984375 139.5546875 C199.68249756 138.67151855 199.52515137 137.78834961 199.36303711 136.87841797 C198.23746504 132.60311531 196.20846489 129.95046438 192.6875 127.3125 C185.35665619 123.70533706 178.4094675 122.71334255 170.33203125 122.703125 C168.79055672 122.67832062 168.79055672 122.67832062 167.21794128 122.65301514 C163.97856425 122.60494781 160.73965514 122.58325619 157.5 122.5625 C155.28578427 122.53430582 153.07158994 122.50437364 150.85742188 122.47265625 C145.46753175 122.39920071 140.07777097 122.34731783 134.6875 122.3125 C134.49704102 121.5071582 134.30658203 120.70181641 134.11035156 119.87207031 C133.8522168 118.80569336 133.59408203 117.73931641 133.328125 116.640625 C133.07579102 115.5877832 132.82345703 114.53494141 132.56347656 113.45019531 C129.57096609 102.73120293 123.67262108 94.27607932 114.046875 88.6171875 C104.47171329 83.60544949 93.86786118 84.37212226 83.33618164 84.56469727 C79.86433849 84.62518575 76.39612634 84.62623944 72.92382812 84.61914062 C70.6926816 84.63454054 68.4615552 84.65330333 66.23046875 84.67578125 C65.20527634 84.67709549 64.18008392 84.67840973 63.12382507 84.67976379 C52.76349308 84.91658881 43.91297014 88.78010724 36.6875 96.3125 C30.80571532 104.57574026 27.89178023 112.44208728 25.6875 122.3125 C25.08330231 122.31614563 24.47910461 122.31979126 23.8565979 122.32354736 C17.52885416 122.36558132 11.20182169 122.43507156 4.87451172 122.52001953 C2.5178135 122.54812546 0.16102282 122.56939123 -2.19580078 122.58349609 C-5.59715757 122.60506918 -8.99741487 122.65179471 -12.3984375 122.703125 C-13.44051361 122.70435364 -14.48258972 122.70558228 -15.5562439 122.70684814 C-23.00471136 122.85368025 -30.19762587 123.97548036 -36.15048218 128.80303955 C-39.1165413 131.949791 -40.67889541 134.9356411 -41.97265625 139.05078125 C-42.35562866 140.25214722 -42.35562866 140.25214722 -42.74633789 141.4777832 C-42.93317139 142.08323975 -43.12000488 142.68869629 -43.3125 143.3125 C-43.98964554 143.31614563 -44.66679108 143.31979126 -45.36445618 143.32354736 C-52.45465604 143.36557348 -59.54422066 143.43505915 -66.6340332 143.52001953 C-69.27491888 143.54812953 -71.91588714 143.56939328 -74.55688477 143.58349609 C-78.36777724 143.60506311 -82.1776872 143.65178702 -85.98828125 143.703125 C-87.15643875 143.70435364 -88.32459625 143.70558228 -89.52815247 143.70684814 C-101.7418904 143.92181863 -112.35845061 147.67516969 -121.28515625 156.1953125 C-127.63114819 163.06676874 -131.4420032 170.21923671 -131.43275452 179.65289307 C-131.43412918 180.73540344 -131.43550385 181.81791382 -131.43692017 182.93322754 C-131.43332489 184.11574097 -131.42972961 185.29825439 -131.42602539 186.51660156 C-131.42624443 188.39016327 -131.42624443 188.39016327 -131.4264679 190.30157471 C-131.42589074 193.72274003 -131.42087653 197.14384495 -131.41389394 200.56499958 C-131.40764131 204.14178095 -131.40705509 207.71856313 -131.40586853 211.29534912 C-131.40276085 218.06675661 -131.39455504 224.83814795 -131.38451904 231.60954833 C-131.37334043 239.3192866 -131.36784304 247.02902565 -131.36282361 254.73877001 C-131.35237197 270.59668936 -131.33478341 286.4545926 -131.3125 302.3125 C-133.22537594 301.83640141 -135.13810869 301.35972749 -137.05078125 300.8828125 C-138.11594971 300.61742676 -139.18111816 300.35204102 -140.27856445 300.07861328 C-142.04191415 299.63334159 -143.80336562 299.18011616 -145.55932617 298.70654297 C-171.50083667 291.76835561 -199.23642003 296.75887324 -222.44140625 309.53125 C-246.49577316 323.4497354 -264.63743118 346.56305499 -272.3125 373.3125 C-276.1995537 388.83643966 -277.49931382 403.89960116 -277.49780273 419.85058594 C-277.49997747 422.41097954 -277.51815318 424.9709329 -277.53710938 427.53125 C-277.61812699 450.67267333 -273.67736096 471.00967869 -262.3125 491.3125 C-261.75691406 492.31023437 -261.20132813 493.30796875 -260.62890625 494.3359375 C-254.41890463 504.73061647 -244.03814647 517.86592274 -233.07421875 523.453125 C-230.53293576 526.13527733 -230.90328089 528.38548548 -230.9609375 531.97460938 C-231.01121094 533.22467773 -231.01121094 533.22467773 -231.0625 534.5 C-231.08054687 535.34498047 -231.09859375 536.18996094 -231.1171875 537.06054688 C-231.16429414 539.14501573 -231.23603767 541.22890144 -231.3125 543.3125 C-232.45912109 543.46283691 -232.45912109 543.46283691 -233.62890625 543.61621094 C-270.64745986 548.52751724 -304.81678214 557.64245381 -328.97265625 588.1015625 C-343.60356489 608.17937034 -349.99646233 629.78974824 -352.3125 654.3125 C-355.54660159 650.43600837 -358.2813975 646.4035129 -360.9375 642.125 C-361.3720752 641.42503906 -361.80665039 640.72507812 -362.25439453 640.00390625 C-367.22338876 631.92459022 -371.85483133 623.68350155 -376.3125 615.3125 C-377.00448486 614.02255127 -377.00448486 614.02255127 -377.71044922 612.70654297 C-399.45586155 571.82988064 -413.57820352 526.82649613 -420.1875 481.0625 C-420.29122925 480.35277039 -420.3949585 479.64304077 -420.50183105 478.9118042 C-423.23445966 459.92207959 -423.51938416 440.97373729 -423.5 421.8125 C-423.49939575 420.70755188 -423.4987915 419.60260376 -423.49816895 418.46417236 C-423.46178645 393.9525786 -421.83336332 370.4351122 -417.3125 346.3125 C-417.01161123 344.63543595 -416.71082554 342.95835341 -416.41015625 341.28125 C-406.11788056 285.48657683 -383.00881662 230.69620429 -350.3125 184.3125 C-349.80332031 183.58836914 -349.29414063 182.86423828 -348.76953125 182.11816406 C-342.26748636 172.90950784 -335.6126675 163.9099098 -328.3125 155.3125 C-327.41868689 154.24528045 -326.52548885 153.17754557 -325.6328125 152.109375 C-316.68696793 141.44483274 -307.39940587 131.21261542 -297.55664062 121.37133789 C-295.9410932 119.75359808 -294.33374966 118.12799364 -292.7265625 116.50195312 C-286.95661972 110.70166136 -281.09020394 105.28273564 -274.66552734 100.20410156 C-272.45417289 98.42639101 -270.3776759 96.56897105 -268.3125 94.625 C-221.23853727 52.35966787 -158.59096295 25.59981776 -97.8125 10.6875 C-96.6376001 10.39786377 -95.4627002 10.10822754 -94.25219727 9.80981445 C-79.10974549 6.17198506 -63.85804108 3.73250748 -48.375 2.125 C-47.12947861 1.9946788 -47.12947861 1.9946788 -45.85879517 1.86172485 C-30.57409811 0.31404618 -15.35597495 -0.04204993 0 0 Z " fill="#CBE7FD" transform="translate(509.3125,184.6875)"/>
<path d="M0 0 C1.49130684 -0.00461494 1.49130684 -0.00461494 3.01274109 -0.00932312 C4.60515373 0.00145515 4.60515373 0.00145515 6.22973633 0.01245117 C7.87671257 0.0131385 7.87671257 0.0131385 9.55696106 0.01383972 C11.87262048 0.01685583 14.18827799 0.0247229 16.50390625 0.03710938 C20.05907322 0.05540606 23.61398023 0.05761869 27.16918945 0.05737305 C29.41854068 0.06228694 31.66789013 0.06811469 33.91723633 0.07495117 C34.98491745 0.076064 36.05259857 0.07717682 37.15263367 0.07832336 C38.13738174 0.08470322 39.12212982 0.09108307 40.13671875 0.09765625 C41.00544113 0.10146805 41.87416351 0.10527985 42.76921082 0.10920715 C44.87426758 0.24291992 44.87426758 0.24291992 46.87426758 1.24291992 C47.17195318 3.29664992 47.38506449 5.36276433 47.56176758 7.43041992 C48.83069241 17.34833645 52.61922347 26.17963909 59.87426758 33.24291992 C59.87426758 33.90291992 59.87426758 34.56291992 59.87426758 35.24291992 C60.42985352 35.50975586 60.98543945 35.7765918 61.55786133 36.05151367 C64.99481495 37.81925542 68.24374243 39.8791834 71.53442383 41.90307617 C75.76542233 44.32583491 79.45392858 44.39133103 84.1910553 44.39009094 C84.9420201 44.39376763 85.6929849 44.39744432 86.46670622 44.40123242 C88.99066909 44.41227179 91.51459081 44.41611357 94.03857422 44.41992188 C95.8454298 44.42618648 97.65228409 44.43283327 99.45913696 44.43983459 C105.40089011 44.4608827 111.34264354 44.47123959 117.28442383 44.48120117 C119.33067781 44.48524884 121.37693165 44.48936576 123.42318535 44.49355125 C133.03938011 44.51260677 142.65556719 44.52683547 152.27177721 44.53516322 C163.36506672 44.54492898 174.45815635 44.57122977 185.55137545 44.61166412 C194.12901764 44.64185387 202.70660265 44.65663493 211.28429693 44.65994424 C216.40542716 44.66229201 221.52634393 44.67121662 226.64741707 44.69640541 C231.46964975 44.71974026 236.29152928 44.7238976 241.11380386 44.71364403 C242.87859333 44.71314983 244.6434005 44.71943599 246.40813637 44.73320007 C259.24333337 44.82766277 270.2495021 43.61930435 279.87426758 34.24291992 C282.14052668 31.38054732 284.0793007 28.41985244 285.87426758 25.24291992 C286.3720874 24.38762695 286.86990723 23.53233398 287.3828125 22.65112305 C289.19050755 18.52026319 289.65042553 14.82098061 290.06176758 10.36791992 C290.18455078 9.19229492 290.18455078 9.19229492 290.30981445 7.99291992 C290.50838433 6.07730463 290.69278505 4.1602295 290.87426758 2.24291992 C298.73955246 2.14141158 306.60466808 2.07140833 314.47045898 2.02319336 C317.14590133 2.00535167 319.82048774 1.97580943 322.49584961 1.94116211 C326.34345329 1.89258486 330.19047545 1.86993627 334.03833008 1.85229492 C335.23229401 1.83164978 336.42625793 1.81100464 337.65640259 1.78973389 C344.03697388 1.78801379 348.07032172 1.86258655 352.87426758 6.24291992 C356.52039255 10.28322057 357.99995701 13.20251266 357.99731541 18.62572765 C357.99930646 19.52693346 358.0012975 20.42813927 358.00334889 21.35665435 C358.00043605 22.34788953 357.9975232 23.33912472 357.99452209 24.36039734 C357.99580373 25.93845169 357.99580373 25.93845169 357.99711126 27.54838592 C357.99876475 31.09070533 357.99324679 34.63297789 357.98779297 38.17529297 C357.98751104 40.70772297 357.98766894 43.24015305 357.98823547 45.77258301 C357.98846355 51.23354888 357.98561821 56.69449953 357.97999763 62.15546227 C357.97187648 70.05113105 357.96926678 77.94679406 357.96800964 85.84246657 C357.9658201 98.65214244 357.95916263 111.46181196 357.94970703 124.27148438 C357.94053041 136.71614551 357.9334508 149.16080492 357.92919922 161.60546875 C357.92880513 162.75577329 357.92880513 162.75577329 357.92840309 163.9293163 C357.92709807 167.7764107 357.92583435 171.62350511 357.92459118 175.47059953 C357.9142216 207.39471095 357.89660591 239.31881455 357.87426758 271.24291992 C357.34779633 271.07359955 356.82132507 270.90427917 356.27890015 270.72982788 C353.84026946 269.94739148 351.40025362 269.1693604 348.96020508 268.39135742 C348.13254639 268.12508545 347.3048877 267.85881348 346.45214844 267.58447266 C330.62706033 262.55096923 315.67133104 260.86785543 299.12426758 260.80541992 C298.34738586 260.79915588 297.57050415 260.79289185 296.77008057 260.78643799 C275.31350478 260.67708419 255.42242272 265.32937217 235.87426758 274.24291992 C234.80047852 274.72116211 233.72668945 275.1994043 232.62036133 275.69213867 C219.47122985 281.87028577 207.48387037 290.30430432 196.95239258 300.30541992 C194.87426758 302.24291992 194.87426758 302.24291992 192.30395508 304.28588867 C188.65104051 307.22818803 185.82184829 310.60571656 182.87426758 314.24291992 C182.47433594 314.73630859 182.0744043 315.22969727 181.66235352 315.73803711 C165.76770839 335.63329374 156.07363016 358.22801189 151.87426758 383.24291992 C151.7022583 384.14792236 151.53024902 385.0529248 151.35302734 385.98535156 C150.40891843 392.40924 150.62936616 398.94709319 150.62426758 405.43041992 C150.62359283 406.19580078 150.62291809 406.96118164 150.6222229 407.74975586 C150.63867279 419.48298717 151.1126368 430.78863925 153.87426758 442.24291992 C154.05650879 443.00443359 154.23875 443.76594727 154.42651367 444.55053711 C156.87267615 454.47823745 160.17425017 463.62287467 163.87426758 473.24291992 C143.41426758 473.24291992 122.95426758 473.24291992 101.87426758 473.24291992 C100.38926758 465.81791992 100.38926758 465.81791992 98.87426758 458.24291992 C90.02075359 428.8838534 70.52978574 405.00304897 43.7487793 390.2434082 C32.62363776 384.3055559 21.07223346 381.12181559 8.87426758 378.24291992 C7.48788086 377.90454102 7.48788086 377.90454102 6.07348633 377.55932617 C-2.1892612 375.71840315 -10.71670817 375.10397469 -19.12573242 374.24291992 C-19.82932943 368.93336841 -20.54219795 363.48501951 -19.12573242 358.24291992 C-15.72551074 354.2731752 -11.54900032 351.95792818 -7.12573242 349.24291992 C9.25249653 335.59439579 19.68614557 315.63665483 24.87426758 295.24291992 C25.07536133 294.46561523 25.27645508 293.68831055 25.48364258 292.88745117 C26.06081214 290.34703058 26.48639284 287.8195164 26.87426758 285.24291992 C27.05989258 284.01573242 27.24551758 282.78854492 27.43676758 281.52416992 C28.84483221 271.03709708 29.08710616 260.55812621 29.12426758 249.99291992 C29.12944397 249.32435974 29.13462036 248.65579956 29.13995361 247.96697998 C29.35012121 213.53012226 19.44280837 182.31155444 -4.76635742 157.44213867 C-7.46380427 154.7805865 -10.28517123 152.60667591 -13.43823242 150.49291992 C-15.8132775 148.76213196 -16.96726739 147.87342393 -17.69346619 144.98400879 C-17.74064285 144.12005493 -17.78781952 143.25610107 -17.83642578 142.3659668 C-17.89458466 141.3845874 -17.95274353 140.40320801 -18.01266479 139.39208984 C-18.04997711 138.35286377 -18.08728943 137.3136377 -18.12573242 136.24291992 C-18.16328644 135.22367432 -18.20084045 134.20442871 -18.23953247 133.15429688 C-18.33639192 129.77755496 -18.39415404 126.40195333 -18.44213867 123.02416992 C-18.46310104 121.75559143 -18.48406342 120.48701294 -18.50566101 119.17999268 C-18.57312736 115.03438904 -18.63103058 110.88867578 -18.68823242 106.74291992 C-18.70858632 105.31050573 -18.72897224 103.878092 -18.74938965 102.44567871 C-18.89594005 92.04497888 -19.01695828 81.6440778 -19.12573242 71.24291992 C-19.13350456 70.51420685 -19.1412767 69.78549377 -19.14928436 69.03469849 C-19.24533795 59.98379792 -19.31899602 50.93317523 -19.35690308 41.88183594 C-19.36941829 39.2970087 -19.38690525 36.71220058 -19.40945435 34.12744141 C-19.43903274 30.53560482 -19.44918702 26.94423863 -19.45385742 23.35229492 C-19.46615891 22.29383362 -19.47846039 21.23537231 -19.49113464 20.14483643 C-19.464016 11.21388585 -19.464016 11.21388585 -16.12573242 7.24291992 C-11.07040575 2.51728846 -6.96858543 -0.01139968 0 0 Z " fill="#FECE3C" transform="translate(419.125732421875,352.757080078125)"/>
<path d="M0 0 C0.69206543 0.16628906 1.38413086 0.33257813 2.09716797 0.50390625 C34.62314648 8.48574147 61.87194681 30.09766262 79.1484375 58.48046875 C96.80411641 88.78131844 98.32424463 123.18931909 90.3125 156.625 C84.27177997 177.66494185 73.31126875 195.53904007 58 211 C57.32453125 211.73605469 56.6490625 212.47210937 55.953125 213.23046875 C50.09053372 219.50644788 43.11263548 224.25824302 36 229 C35.04222656 229.64195312 34.08445312 230.28390625 33.09765625 230.9453125 C6.67411073 247.47392582 -28.14234297 251.49580383 -58.26953125 244.96875 C-59.50058594 244.6490625 -60.73164062 244.329375 -62 244 C-62.65532715 243.83371094 -63.3106543 243.66742187 -63.98583984 243.49609375 C-96.29027362 235.08713051 -123.32865536 212.97583481 -140.1328125 184.43359375 C-148.08483229 170.43714124 -152.59709734 155.86952981 -155 140 C-155.2784375 138.39511719 -155.2784375 138.39511719 -155.5625 136.7578125 C-159.57591573 102.28543808 -150.44226862 69.22235842 -129 42 C-117.48342991 28.09250966 -104.01889211 18.21638034 -88 10 C-87.04480469 9.50757813 -86.08960938 9.01515625 -85.10546875 8.5078125 C-59.11536173 -4.03913572 -27.94329185 -7.04301278 0 0 Z " fill="#FE7162" transform="translate(749,640)"/>
<path d="M0 0 C29.75187704 1.23966154 57.5903535 9.65137616 78.52734375 31.65625 C95.29477331 51.14659547 100.94224924 74.28104088 101.31640625 99.5390625 C101.33718735 100.73695404 101.35796844 101.93484558 101.37937927 103.16903687 C101.42247568 105.70217633 101.46353721 108.23535113 101.50268555 110.76855469 C101.56156236 114.5645471 101.62688229 118.3603839 101.69335938 122.15625 C101.73476191 124.63801441 101.77578852 127.11978512 101.81640625 129.6015625 C101.84451134 131.25135605 101.84451134 131.25135605 101.8731842 132.93447876 C101.9893748 140.6172728 102.00947998 148.29771765 102.00474548 155.98129272 C102.00440292 157.04354159 102.00406035 158.10579046 102.00370741 159.20022869 C102.00281939 161.80015281 102.0015749 164.40007623 102 167 C66.95845526 167.16021669 31.91698462 167.28356476 -3.12484929 167.35745731 C-7.26170026 167.36621227 -11.3985505 167.37527252 -15.53540039 167.38452148 C-16.35897389 167.38635766 -17.1825474 167.38819383 -18.03107768 167.39008565 C-31.36690496 167.4205462 -44.70252105 167.47573884 -58.03822304 167.54006957 C-71.72156382 167.60552685 -85.40479398 167.64441071 -99.08828491 167.65861946 C-107.5320923 167.66822518 -115.97530277 167.69856431 -124.41892641 167.75541527 C-130.20880153 167.79241309 -135.99836799 167.80360175 -141.78835274 167.79450964 C-145.12952628 167.79002478 -148.46881584 167.80072604 -151.80994797 167.83443832 C-155.43419734 167.8692182 -159.05588358 167.86091321 -162.68019104 167.84178162 C-163.73370288 167.86217151 -164.78721472 167.8825614 -165.87265116 167.90356916 C-171.14478966 167.82823288 -174.17126613 167.44490677 -177.98483181 163.63488865 C-178.99279145 162.42567352 -179.99793944 161.21410811 -181 160 C-182.16667452 158.9757799 -183.35240791 157.97253965 -184.5625 157 C-191.25031192 151.2359909 -197.04985092 144.5044338 -203 138 C-203.8765625 137.04996094 -204.753125 136.09992188 -205.65625 135.12109375 C-207.80519887 132.769761 -209.93578819 130.42628875 -212 128 C-212.589021 127.47631836 -213.17804199 126.95263672 -213.78491211 126.41308594 C-219.55131761 120.56846959 -219.79787197 114.94940138 -219.83744812 107.13925171 C-219.81933587 105.3386086 -219.78922317 103.53805073 -219.74780273 101.73779297 C-219.68823633 99.03342987 -219.6862035 96.333826 -219.69335938 93.62890625 C-219.55902075 69.67660297 -212.57147215 50.23127585 -197 32 C-196.15888672 31.00613281 -196.15888672 31.00613281 -195.30078125 29.9921875 C-180.26339249 13.70483948 -157.6482217 4.61522141 -136 2 C-135.01338379 1.85957275 -135.01338379 1.85957275 -134.00683594 1.71630859 C-129.02273722 1.07091084 -123.86911512 0.50086705 -119 2 C-115.89470308 4.95113324 -114.08977731 7.91114397 -112.0078125 11.60546875 C-105.49646546 22.61395236 -90.34131106 29.29852298 -78.4375 33 C-58.82694045 37.05000686 -37.22324173 34.21961359 -19.93359375 24 C-10.34786025 17.46485279 -4.39186056 10.78507529 0 0 Z " fill="#4F88DE" transform="translate(399,752)"/>
<path d="M0 0 C20.16129617 17.64113415 30.46953555 39.34124458 32.34375 65.90234375 C32.50740885 70.90231758 32.53939207 75.90010011 32.53125 80.90234375 C32.53064575 81.58731934 32.5300415 82.27229492 32.52941895 82.97802734 C32.46583667 109.55852112 29.00581802 135.5631874 10.34375 155.90234375 C9.67988281 156.65773438 9.01601563 157.413125 8.33203125 158.19140625 C-5.9413419 173.5464953 -26.45235819 182.32135342 -47.203125 183.25390625 C-60.55897126 183.63031798 -72.34789664 183.398875 -84.65625 177.90234375 C-85.57881592 177.50088135 -85.57881592 177.50088135 -86.52001953 177.09130859 C-94.32843472 173.6480214 -101.20210934 169.49512353 -107.65625 163.90234375 C-108.40390625 163.29777344 -109.1515625 162.69320312 -109.921875 162.0703125 C-126.98666731 147.82063048 -135.3705896 126.90834041 -137.46191406 105.32870483 C-137.97710593 98.89633048 -137.98912395 92.45038587 -137.97192383 86.00097656 C-137.96876028 83.53535774 -137.99236529 81.07094121 -138.01757812 78.60546875 C-138.12549635 51.45805744 -132.17685363 26.70844067 -112.65625 6.90234375 C-112.10582031 6.27972656 -111.55539062 5.65710938 -110.98828125 5.015625 C-83.88613247 -24.76327922 -30.16922723 -23.82481621 0 0 Z " fill="#FEC89B" transform="translate(392.65625,522.09765625)"/>
<path d="M0 0 C2.249796 -0.00436948 4.49762102 -0.04072886 6.74707031 -0.07861328 C14.97549825 -0.14364523 21.96470089 -0.14560932 28.38867188 5.74755859 C32.96080489 10.73238592 33.82923524 15.90818957 34.76269531 22.37060547 C35.55080955 27.26297616 36.43923586 30.63477439 39.88769531 34.37060547 C44.3819329 37.07780597 47.76595713 37.75449808 52.98144531 37.81201172 C53.65002563 37.82521957 54.31860596 37.83842743 55.00744629 37.85203552 C57.13423701 37.89262018 59.26060808 37.91445955 61.38769531 37.93310547 C89.82343688 38.26014292 89.82343688 38.26014292 96.88769531 43.37060547 C99.91204629 47.90713193 99.21665543 52.34673448 99.20019531 57.68310547 C99.21630859 58.71628906 99.23242188 59.74947266 99.24902344 60.81396484 C99.25326157 67.4212167 98.83172057 72.17901446 94.16894531 77.23388672 C93.58113281 77.71212891 92.99332031 78.19037109 92.38769531 78.68310547 C91.79988281 79.17423828 91.21207031 79.66537109 90.60644531 80.17138672 C86.95401851 82.71978451 83.51213248 82.50275226 79.20283508 82.51777649 C78.17840177 82.52329152 78.17840177 82.52329152 77.13327283 82.52891797 C74.83957339 82.53995097 72.54591926 82.543798 70.25219727 82.54760742 C68.60958207 82.55387242 66.9669683 82.56051925 65.32435608 82.56752014 C59.92490628 82.58856047 54.5254562 82.59892321 49.12597656 82.60888672 C47.26664909 82.61293443 45.40732178 82.61705136 43.54799461 82.6212368 C34.81173072 82.64028922 26.07547527 82.65451957 17.3391946 82.66284877 C7.25842519 82.67261868 -2.82212449 82.69893155 -12.90281647 82.73934966 C-20.69656996 82.76952466 -28.49026051 82.784319 -36.28407127 82.78762978 C-40.93789499 82.7899789 -45.59148398 82.79892117 -50.24524498 82.82409096 C-54.62590454 82.84740061 -59.00617533 82.85159334 -63.38688087 82.84132957 C-64.99125589 82.84083479 -66.59565023 82.84713838 -68.19996643 82.86088562 C-84.98783304 82.99664441 -84.98783304 82.99664441 -92.08520508 76.58959961 C-93.56589256 73.39065297 -93.56057262 70.32464704 -93.54589844 66.86669922 C-93.55114029 66.14700455 -93.55638214 65.42730988 -93.56178284 64.68580627 C-93.56819036 63.16872444 -93.56688243 61.65159285 -93.55834961 60.13452148 C-93.54981874 57.81193031 -93.57864629 55.49178318 -93.61035156 53.16943359 C-93.61196322 51.69352287 -93.61138671 50.2176078 -93.60839844 48.74169922 C-93.61963242 48.04789658 -93.63086639 47.35409393 -93.6424408 46.63926697 C-93.59696768 43.50035302 -93.52219137 41.80746208 -91.33129883 39.47241211 C-86.64655467 37.14627608 -82.21407453 37.20987307 -77.04980469 37.15966797 C-75.43130554 37.13156787 -73.81281611 37.10290326 -72.19433594 37.07373047 C-69.66488249 37.03276766 -67.13560425 36.99585058 -64.60595703 36.96923828 C-48.09226606 37.15282807 -48.09226606 37.15282807 -33.04980469 31.30810547 C-29.94489766 26.60066578 -28.65087357 21.49532116 -27.69824219 15.96826172 C-26.69928245 10.23893381 -24.82551946 6.00622627 -20.11230469 2.37060547 C-13.54004141 -0.28196727 -6.96435831 -0.00151465 0 0 Z " fill="#4773A8" transform="translate(587.1123046875,292.62939453125)"/>
<path d="M0 0 C8.09265734 5.76601835 13.0730032 14.61103207 15.1875 24.25 C16.44928748 38.67614678 14.62870003 50.26184622 6.1875 62.25 C5.630625 63.11625 5.07375 63.9825 4.5 64.875 C-1.97826168 71.52834983 -10.62147693 75.41964083 -19.87817383 75.68066406 C-27.84902131 75.70560915 -34.18554482 75.21694865 -40.8125 70.25 C-42.1325 68.93 -43.4525 67.61 -44.8125 66.25 C-45.1425 79.12 -45.4725 91.99 -45.8125 105.25 C-52.4125 105.25 -59.0125 105.25 -65.8125 105.25 C-65.8125 68.62 -65.8125 31.99 -65.8125 -5.75 C-59.5425 -5.75 -53.2725 -5.75 -46.8125 -5.75 C-46.8125 -2.12 -46.8125 1.51 -46.8125 5.25 C-46.1525 5.25 -45.4925 5.25 -44.8125 5.25 C-44.56886719 4.65445312 -44.32523438 4.05890625 -44.07421875 3.4453125 C-41.27181406 -1.43069814 -35.49256253 -4.06553008 -30.4375 -6.125 C-19.02707122 -8.09231531 -9.86399866 -6.04727556 0 0 Z " fill="#1A3350" transform="translate(812.8125,1232.75)"/>
<path d="M0 0 C0.85222147 -0.00384115 1.70444295 -0.00768229 2.58248931 -0.01163983 C3.98732952 -0.01034011 3.98732952 -0.01034011 5.42055035 -0.00901413 C6.415267 -0.01198525 7.40998366 -0.01495637 8.43484324 -0.01801753 C11.78349617 -0.02672138 15.13211343 -0.0282142 18.48077679 -0.02970505 C20.87539528 -0.03433201 23.27001304 -0.0393565 25.66462994 -0.04475021 C32.18117541 -0.05788749 38.69771344 -0.06435826 45.21426892 -0.06876087 C49.28297668 -0.07152323 53.35168207 -0.07576057 57.42038822 -0.08026505 C68.68473982 -0.09245767 79.94908952 -0.10275704 91.21344757 -0.10614014 C91.93442998 -0.1063597 92.65541239 -0.10657927 93.39824275 -0.10680549 C94.12095301 -0.10702377 94.84366326 -0.10724204 95.58827382 -0.10746694 C97.052767 -0.1079104 98.51726017 -0.10835697 99.98175335 -0.10880661 C100.70819299 -0.10902804 101.43463262 -0.10924947 102.18308558 -0.10947761 C113.95441475 -0.11342575 125.72568201 -0.13088029 137.49698726 -0.15416613 C149.58146629 -0.1778786 161.66591426 -0.19034194 173.75041693 -0.19150805 C180.53580832 -0.19242487 187.32111905 -0.19817875 194.10648823 -0.21632767 C200.48812531 -0.23277085 206.86960913 -0.23498205 213.2512598 -0.22618866 C215.59501715 -0.22541629 217.93878261 -0.2297872 220.28251934 -0.23964691 C223.47934838 -0.25230794 226.67562979 -0.24652113 229.87245464 -0.23606491 C230.80232262 -0.24412132 231.7321906 -0.25217772 232.69023639 -0.26047826 C237.82243205 -0.22115429 241.40982322 0.24110199 245.83697796 3.13142776 C248.66355028 6.40430098 249.74577421 8.38876866 250.27447796 12.69392776 C249.68658959 17.31305067 248.32790524 19.8268664 244.83697796 22.88142776 C241.76006461 24.8044986 239.23560401 25.2568318 235.68957329 25.26285553 C234.84083521 25.26669667 233.99209713 25.27053782 233.11763972 25.27449536 C232.18497053 25.27362888 231.25230133 25.2727624 230.29136944 25.27186966 C229.30073633 25.27484078 228.31010323 25.2778119 227.28945094 25.28087306 C223.95461751 25.28957676 220.61981991 25.29106972 217.28497601 25.29256058 C214.9002096 25.29718755 212.51544393 25.30221204 210.13067913 25.30760574 C203.64099277 25.32074292 197.15131328 25.32721378 190.66161609 25.3316164 C186.60965929 25.33437878 182.55770488 25.33861612 178.5057497 25.34312057 C167.28772125 25.35531319 156.06969471 25.36561256 144.85165977 25.36899567 C144.13364498 25.36921523 143.41563018 25.3694348 142.67585735 25.36966102 C141.95612205 25.3698793 141.23638674 25.37009757 140.49484128 25.37032247 C139.03637707 25.37076593 137.57791287 25.3712125 136.11944866 25.37166214 C135.39599964 25.37188357 134.67255062 25.372105 133.9271789 25.37233314 C122.20434856 25.37628127 110.48158039 25.39373577 98.75877406 25.41702166 C86.72401557 25.44073431 74.68928826 25.45319747 62.65450603 25.45436358 C55.89706018 25.45528039 49.13969531 25.46103402 42.38227177 25.4791832 C36.02689932 25.49562665 29.67168077 25.49783745 23.31629467 25.48904419 C20.98221265 25.48827183 18.64812249 25.49264254 16.31406116 25.50250244 C13.13036857 25.51516393 9.94722581 25.50937642 6.76353741 25.49892044 C5.83756038 25.50697685 4.91158335 25.51503325 3.95754641 25.52333379 C-2.40992835 25.47434644 -6.66043867 24.37058131 -11.53802204 20.00642776 C-13.81653554 15.97521158 -14.20453513 12.65236606 -13.16302204 8.13142776 C-9.88251028 2.59877783 -6.51893419 0.01102821 0 0 Z " fill="#193354" transform="translate(476.1630220413208,532.8685722351074)"/>
<path d="M0 0 C0.85570487 -0.00583219 1.71140974 -0.01166439 2.59304506 -0.01767331 C3.53349615 -0.01389399 4.47394724 -0.01011467 5.44289684 -0.00622082 C6.44169705 -0.01004636 7.44049726 -0.01387191 8.46956414 -0.01781338 C11.83208101 -0.02817073 15.19442799 -0.02414601 18.55695629 -0.02018261 C20.96142772 -0.02452762 23.36589775 -0.02971005 25.77036572 -0.03567028 C31.63343928 -0.04769961 37.49647037 -0.0502087 43.35955159 -0.04787002 C48.1253572 -0.04608833 52.89114891 -0.0478333 57.65695286 -0.05209446 C58.33477755 -0.05268965 59.01260225 -0.05328484 59.71096709 -0.05389806 C61.0879131 -0.0551098 62.46485911 -0.05632393 63.84180512 -0.05754044 C76.76247054 -0.06842321 89.68310988 -0.06625026 102.60377678 -0.06015559 C114.42360921 -0.05498825 126.24335918 -0.06623572 138.0631753 -0.08525381 C150.19738022 -0.10462814 162.33154612 -0.11288877 174.46576661 -0.10913056 C181.27909697 -0.10721758 188.09235718 -0.10971529 194.90567493 -0.1238451 C201.31357116 -0.13699941 207.72134361 -0.13450428 214.12924099 -0.12143421 C216.48267007 -0.11906297 218.83611069 -0.12182263 221.18952656 -0.13005733 C224.39950194 -0.14048009 227.60891838 -0.13245963 230.81887341 -0.11974621 C231.75263233 -0.12712049 232.68639125 -0.13449478 233.6484459 -0.14209253 C238.7993572 -0.09910578 242.35567557 0.39529586 246.82136059 3.25447559 C249.60305059 6.09509971 250.27220662 8.18486996 250.32136059 12.12947559 C250.21139015 15.6799496 249.83550675 17.93470165 247.63386059 20.75447559 C242.11273361 25.66214402 237.10100543 25.54551257 230.03524303 25.52190113 C229.04290108 25.52643224 228.05055913 25.53096336 227.02814621 25.53563178 C223.69948623 25.54830272 220.3709893 25.54665366 217.04230785 25.54500294 C214.65724508 25.55098643 212.27218425 25.55779156 209.88712597 25.56535816 C204.07913971 25.58120473 198.27120302 25.58746724 192.46319623 25.58858292 C187.74225089 25.5895337 183.02131894 25.59364547 178.30037785 25.59998417 C164.91328637 25.61759274 151.52622694 25.62682346 138.1391238 25.62532322 C137.41768724 25.62524331 136.69625067 25.6251634 135.95295238 25.62508106 C135.23063437 25.6249993 134.50831635 25.62491754 133.7641099 25.6248333 C122.05431325 25.62402015 110.34464514 25.64316597 98.63488568 25.6713578 C86.60909727 25.70008193 74.58337157 25.7138984 62.55754799 25.71217024 C55.80681804 25.71150625 49.05622292 25.71700258 42.30552387 25.73852634 C35.95828767 25.7578557 29.61133665 25.75806935 23.26409054 25.74349308 C20.9332319 25.74139743 18.60235565 25.74615064 16.27152729 25.758214 C13.09216782 25.77360467 9.91379927 25.76439859 6.73446178 25.74895191 C5.3475426 25.7643826 5.3475426 25.7643826 3.93260485 25.78012502 C-1.6103796 25.72051969 -4.77397134 24.94393792 -9.17863941 21.25447559 C-11.94258739 18.34413207 -12.6293905 16.31229332 -12.67863941 12.31697559 C-12.56929194 8.4092422 -12.351176 7.47830685 -9.86613941 4.25447559 C-4.15573003 0.00486861 -4.15573003 0.00486861 0 0 Z " fill="#1A3454" transform="translate(475.17863941192627,454.7455244064331)"/>
<path d="M0 0 C4.27099037 0.88480019 6.78880491 3.21562087 9.5078125 6.51953125 C11.91145875 10.22515255 11.81162349 13.75795741 11.16821289 18.01806641 C9.21773805 25.40607571 2.74884456 31.92996603 -1.9296875 37.83203125 C-7.03621891 44.33274415 -12.05175302 50.89174244 -16.9921875 57.51953125 C-21.79164238 63.95625007 -26.65976524 70.32875046 -31.6171875 76.64453125 C-36.1677375 82.4498145 -40.5771872 88.33171645 -44.8671875 94.33203125 C-49.82595744 101.26644667 -54.8984457 108.10553805 -60.0546875 114.89453125 C-60.7338623 115.79276611 -61.41303711 116.69100098 -62.11279297 117.61645508 C-62.75490723 118.45845459 -63.39702148 119.3004541 -64.05859375 120.16796875 C-64.62521729 120.91224121 -65.19184082 121.65651367 -65.77563477 122.42333984 C-69.82687207 127.37056264 -72.96283217 130.06897525 -79.4296875 130.89453125 C-88.31849363 129.80610601 -94.8951505 120.28019158 -100.42578125 113.87109375 C-102.98432865 110.95947648 -105.60865709 108.11325934 -108.2421875 105.26953125 C-108.75507324 104.71547607 -109.26795898 104.1614209 -109.79638672 103.59057617 C-110.84313036 102.4601648 -111.89000591 101.32987557 -112.93701172 100.19970703 C-137.90718638 73.22251048 -137.90718638 73.22251048 -137.76953125 63.80078125 C-137.17393466 58.90178961 -134.32988709 56.24299908 -130.7421875 53.14453125 C-126.87885573 51.21286536 -123.72715855 50.46078849 -119.4921875 51.51953125 C-114.74220946 54.23839554 -111.28625016 57.55565706 -107.6796875 61.58203125 C-107.15761719 62.15566406 -106.63554688 62.72929688 -106.09765625 63.3203125 C-102.19429236 67.6446274 -98.50931534 72.12242296 -94.87109375 76.671875 C-91.51076081 80.69434251 -87.92725275 84.49824016 -84.30078125 88.28125 C-80.4921875 92.30804443 -80.4921875 92.30804443 -80.4921875 94.51953125 C-79.8321875 94.51953125 -79.1721875 94.51953125 -78.4921875 94.51953125 C-78.08492432 93.65279785 -78.08492432 93.65279785 -77.66943359 92.76855469 C-76.48915611 90.51374005 -75.17206774 88.57742858 -73.65625 86.53515625 C-72.81126953 85.39240234 -72.81126953 85.39240234 -71.94921875 84.2265625 C-71.04236328 83.01033203 -71.04236328 83.01033203 -70.1171875 81.76953125 C-69.48941406 80.92261719 -68.86164063 80.07570313 -68.21484375 79.203125 C-63.84047098 73.30876815 -59.43899856 67.43472031 -55.02490234 61.57006836 C-51.22656361 56.51789089 -47.48070045 51.42857345 -43.7421875 46.33203125 C-37.93981543 38.42664439 -32.02276163 30.61375837 -26.05639648 22.83154297 C-21.97007193 17.49350155 -17.97899321 12.11729898 -14.16796875 6.578125 C-9.92628054 1.36747304 -6.58912207 -0.26553178 0 0 Z " fill="#FDFCFB" transform="translate(780.4921875,698.48046875)"/>
<path d="M0 0 C1.06927734 0.63615234 1.06927734 0.63615234 2.16015625 1.28515625 C10.65689735 6.98670776 15.00839022 15.15259609 17 25 C17 30.94 17 36.88 17 43 C-0.82 43 -18.64 43 -37 43 C-35.2778397 52.48811525 -35.2778397 52.48811525 -29.3125 59.25390625 C-24.04995602 62.29896698 -18.97844529 62.92998038 -13 62 C-7.04505859 60.17872926 -3.95003277 57.40839341 -1 52 C4.7809725 52.63065155 10.3443706 53.65155132 16 55 C15.39098473 61.49616291 11.47590248 66.8952861 6.8125 71.25 C-2.67053452 78.8821791 -14.3245121 79.81670901 -26 79 C-33.79748129 77.41881897 -40.16956956 74.41116353 -46 69 C-46.54269531 68.49855469 -47.08539063 67.99710938 -47.64453125 67.48046875 C-56.44000733 58.32872022 -58.40192876 45.92428931 -58.2734375 33.73046875 C-57.44892344 22.4817412 -53.04587648 12.74745113 -44.86328125 4.96875 C-42.65272186 3.14783546 -40.40519779 1.55267049 -38 0 C-37.3709375 -0.43441406 -36.741875 -0.86882812 -36.09375 -1.31640625 C-26.1290329 -6.99075904 -9.58808426 -5.81810028 0 0 Z " fill="#1B3552" transform="translate(353,1230)"/>
<path d="M0 0 C6.6 0 13.2 0 20 0 C20 13.2 20 26.4 20 40 C20.66 40 21.32 40 22 40 C22.22816406 39.40574219 22.45632813 38.81148437 22.69140625 38.19921875 C24.35918232 35.39635927 26.11968957 34.42208628 28.9375 32.8125 C29.81277344 32.30332031 30.68804688 31.79414062 31.58984375 31.26953125 C38.28469023 27.74307241 46.58047425 28.00162129 53.75 30.125 C61.94157085 33.34523709 66.46301666 37.72686049 70.08984375 45.73046875 C71.6556822 49.63498438 72.12246255 52.56506436 72.11352539 56.7565918 C72.11341209 58.52808846 72.11341209 58.52808846 72.11329651 60.33537292 C72.10813522 61.61044205 72.10297394 62.88551117 72.09765625 64.19921875 C72.0962413 65.50454056 72.09482635 66.80986237 72.09336853 68.15473938 C72.0895538 71.62189656 72.07973244 75.08901174 72.06866455 78.55615234 C72.05842798 82.09537182 72.0538661 85.6345981 72.04882812 89.17382812 C72.03810923 96.1159044 72.02052087 103.05794585 72 110 C65.4 110 58.8 110 52 110 C51.98598145 107.63884033 51.98598145 107.63884033 51.97167969 105.22998047 C51.93176329 99.38154964 51.86599854 93.53364391 51.79248047 87.68554688 C51.76428068 85.15599317 51.74306127 82.62635151 51.72900391 80.09667969 C51.70756171 76.45722454 51.6609014 72.81882585 51.609375 69.1796875 C51.60814636 68.05134491 51.60691772 66.92300232 51.60565186 65.76046753 C51.49046103 59.56446008 51.22601103 55.67457662 47 51 C42.25209157 47.68750575 37.62123901 47.12015389 32 48 C28.20566319 49.35982013 25.56967519 51.24043309 23.125 54.5 C21.38155323 58.37432615 20.87110809 61.71572289 20.79467773 65.95214844 C20.77473251 66.93286316 20.75478729 67.91357788 20.73423767 68.92401123 C20.70916893 70.5007663 20.70916893 70.5007663 20.68359375 72.109375 C20.66281265 73.19132141 20.64203156 74.27326782 20.62062073 75.38800049 C20.55527069 78.84193613 20.49630771 82.29594737 20.4375 85.75 C20.39430096 88.09245571 20.35068622 90.4349038 20.30664062 92.77734375 C20.19960413 98.51815182 20.09829552 104.25903588 20 110 C13.4 110 6.8 110 0 110 C0 73.7 0 37.4 0 0 Z " fill="#19334F" transform="translate(617,1197)"/>
<path d="M0 0 C7.28529174 3.98392627 11.23361318 10.28179094 14.11401367 17.97949219 C15.65019171 23.55359284 15.2880694 29.31691086 15.23828125 35.05078125 C15.23545135 36.28385513 15.23262146 37.51692902 15.22970581 38.78736877 C15.21854735 42.70990875 15.19345026 46.632217 15.16796875 50.5546875 C15.15680271 53.22069978 15.14880851 55.88670989 15.140625 58.55273438 C15.11862213 65.07430748 15.08412172 71.59570825 15.04296875 78.1171875 C8.11296875 78.1171875 1.18296875 78.1171875 -5.95703125 78.1171875 C-5.9710498 75.75602783 -5.9710498 75.75602783 -5.98535156 73.34716797 C-6.02526796 67.49873714 -6.09103271 61.65083141 -6.16455078 55.80273438 C-6.19275057 53.27318067 -6.21396998 50.74353901 -6.22802734 48.21386719 C-6.24946954 44.57441204 -6.29612985 40.93601335 -6.34765625 37.296875 C-6.34888489 36.16853241 -6.35011353 35.04018982 -6.35137939 33.87765503 C-6.46653595 27.68349071 -6.72714451 23.78748579 -10.95703125 19.1171875 C-15.50685775 16.01503307 -19.60249174 15.34458861 -24.95703125 16.1171875 C-30.22297469 17.97575577 -32.75098893 20.72032946 -35.95703125 25.1171875 C-36.9294507 28.03444584 -37.10870944 30.00522189 -37.16235352 33.04760742 C-37.18229874 34.04841843 -37.20224396 35.04922943 -37.22279358 36.08036804 C-37.23950607 37.15857315 -37.25621857 38.23677826 -37.2734375 39.34765625 C-37.2942186 40.45321365 -37.31499969 41.55877106 -37.33641052 42.6978302 C-37.40185457 46.2333854 -37.46076728 49.76901556 -37.51953125 53.3046875 C-37.56272135 55.69987758 -37.60633579 58.09506005 -37.65039062 60.49023438 C-37.75753077 66.36580838 -37.85881293 72.24145786 -37.95703125 78.1171875 C-44.55703125 78.1171875 -51.15703125 78.1171875 -57.95703125 78.1171875 C-57.95703125 51.7171875 -57.95703125 25.3171875 -57.95703125 -1.8828125 C-51.68703125 -1.8828125 -45.41703125 -1.8828125 -38.95703125 -1.8828125 C-38.62703125 1.7471875 -38.29703125 5.3771875 -37.95703125 9.1171875 C-36.78140625 7.539375 -36.78140625 7.539375 -35.58203125 5.9296875 C-26.39057076 -4.58705334 -12.34336122 -5.83943679 0 0 Z " fill="#1A3350" transform="translate(207.95703125,1228.8828125)"/>
<path d="M0 0 C7.00971887 3.92596085 10.23729333 8.85039745 13.11328125 16.18359375 C13.99694295 19.84103691 14.2351385 23.22597294 14.22680664 26.98364258 C14.22669334 28.69485039 14.22669334 28.69485039 14.22657776 30.44062805 C14.22141647 31.66162704 14.21625519 32.88262604 14.2109375 34.140625 C14.20952255 35.39872482 14.2081076 36.65682465 14.20664978 37.95304871 C14.20200698 41.28537904 14.19303353 44.61764007 14.1819458 47.94995117 C14.17168628 51.35529992 14.16714246 54.76065585 14.16210938 58.16601562 C14.15108954 64.8385632 14.1338296 71.51106899 14.11328125 78.18359375 C7.51328125 78.18359375 0.91328125 78.18359375 -5.88671875 78.18359375 C-5.90130127 76.63978027 -5.91588379 75.0959668 -5.9309082 73.50537109 C-5.98895065 67.76880926 -6.06618413 62.03263749 -6.14916992 56.29638672 C-6.18239111 53.8153314 -6.21043173 51.33420102 -6.2331543 48.85302734 C-6.26675095 45.28320374 -6.31907158 41.7140663 -6.375 38.14453125 C-6.38138992 37.03806244 -6.38777985 35.93159363 -6.3943634 34.79159546 C-6.50053688 29.20980372 -6.66653944 24.96574509 -9.88671875 20.18359375 C-13.85300451 16.58914728 -17.50259957 15.87504761 -22.83203125 15.97265625 C-27.56463759 16.45851317 -30.66712684 18.70101961 -33.69921875 22.18359375 C-36.47507411 25.9904811 -37.01121928 28.53026662 -37.09204102 33.11401367 C-37.11198624 34.11482468 -37.13193146 35.11563568 -37.15248108 36.14677429 C-37.16919357 37.2249794 -37.18590607 38.30318451 -37.203125 39.4140625 C-37.2239061 40.5196199 -37.24468719 41.62517731 -37.26609802 42.76423645 C-37.33154207 46.29979165 -37.39045478 49.83542181 -37.44921875 53.37109375 C-37.49240885 55.76628383 -37.53602329 58.1614663 -37.58007812 60.55664062 C-37.68721827 66.43221463 -37.78850043 72.30786411 -37.88671875 78.18359375 C-44.48671875 78.18359375 -51.08671875 78.18359375 -57.88671875 78.18359375 C-57.88671875 51.78359375 -57.88671875 25.38359375 -57.88671875 -1.81640625 C-51.61671875 -1.81640625 -45.34671875 -1.81640625 -38.88671875 -1.81640625 C-38.22671875 1.48359375 -37.56671875 4.78359375 -36.88671875 8.18359375 C-36.26796875 7.29671875 -35.64921875 6.40984375 -35.01171875 5.49609375 C-26.23361967 -4.79800016 -11.73811379 -5.55207019 0 0 Z " fill="#19334F" transform="translate(504.88671875,1228.81640625)"/>
<path d="M0 0 C6.11224737 4.97393409 8.41571242 10.74427449 9.6875 18.375 C3.0875 18.375 -3.5125 18.375 -10.3125 18.375 C-10.9725 16.725 -11.6325 15.075 -12.3125 13.375 C-17.7618819 10.0826651 -23.02769525 9.58939941 -29.3125 10.375 C-33.66514503 11.90976758 -33.66514503 11.90976758 -36.3125 15.375 C-36.81260524 18.33269177 -36.81260524 18.33269177 -36.3125 21.375 C-32.86357753 23.93632065 -29.62662663 24.95888815 -25.453125 25.8046875 C-23.77863281 26.16240234 -23.77863281 26.16240234 -22.0703125 26.52734375 C-19.74829945 27.00570947 -17.42538719 27.47973272 -15.1015625 27.94921875 C-5.25541932 30.06557366 2.82956541 32.85436786 8.6875 41.375 C11.63057172 47.57312984 11.74338283 54.37344403 10 60.98046875 C7.51747586 67.15574754 4.1063505 70.91119609 -2.00390625 73.52734375 C-14.14948097 78.07182643 -28.76566153 80.0030896 -41.2421875 75.3515625 C-48.58376282 71.88855527 -54.2152749 68.06878952 -57.625 60.4375 C-58.3125 57.375 -58.3125 57.375 -58.3125 50.375 C-52.0425 50.375 -45.7725 50.375 -39.3125 50.375 C-38.3225 52.685 -37.3325 54.995 -36.3125 57.375 C-32.38779475 60.76765894 -28.87862402 60.75335961 -23.8125 60.6875 C-21.87890625 60.68169922 -21.87890625 60.68169922 -19.90625 60.67578125 C-16.5551732 60.39531069 -14.26927593 59.93613356 -11.3125 58.375 C-9.78758002 55.32516004 -10.07687452 52.7326631 -10.3125 49.375 C-12.61255579 45.86438854 -16.47205796 44.78087775 -20.44799805 43.90405273 C-23.84595297 43.25762595 -27.24809072 42.6410498 -30.65625 42.05078125 C-38.07985828 40.66729062 -45.51441389 38.53562515 -51.25 33.375 C-51.79527344 32.900625 -52.34054687 32.42625 -52.90234375 31.9375 C-56.53524032 27.91212984 -56.6090034 24.34286605 -56.625 19 C-56.64175781 17.71351562 -56.65851562 16.42703125 -56.67578125 15.1015625 C-56.12371281 9.4384088 -54.03360386 5.52395303 -49.8125 1.75 C-36.70510376 -8.88207861 -14.0300017 -9.30165859 0 0 Z " fill="#193350" transform="translate(898.3125,1231.625)"/>
<path d="M0 0 C4.99052847 3.90168589 7.99323755 8.37853176 9.7109375 14.4921875 C9.7109375 15.8121875 9.7109375 17.1321875 9.7109375 18.4921875 C6.62832294 18.6668272 3.54697917 18.77312817 0.4609375 18.8671875 C-0.41175781 18.91746094 -1.28445313 18.96773437 -2.18359375 19.01953125 C-4.68353077 19.07678172 -6.8516201 19.06001372 -9.2890625 18.4921875 C-11.5859375 15.59375 -11.5859375 15.59375 -13.2890625 12.4921875 C-18.29363501 9.68573355 -23.70757175 9.85570171 -29.2890625 10.4921875 C-33.05178312 11.71898977 -33.05178312 11.71898977 -35.2890625 14.4921875 C-35.78388403 17.34148949 -35.58144707 19.56834182 -35.2890625 22.4921875 C-30.39347673 24.77806413 -25.82242832 26.13617556 -20.4765625 26.9921875 C1.73306599 30.90341351 1.73306599 30.90341351 8.6484375 39.9921875 C10.46939116 42.83971906 11.46660319 45.07150712 11.7109375 48.4921875 C11.76121094 49.16121094 11.81148437 49.83023437 11.86328125 50.51953125 C12.14910469 57.2077998 11.30266653 62.50874788 6.82421875 67.6640625 C1.91827273 72.35596201 -2.67377041 75.03151169 -9.2890625 76.4921875 C-10.01351562 76.67265625 -10.73796875 76.853125 -11.484375 77.0390625 C-24.37436446 79.12156776 -36.31399544 77.9872253 -47.7265625 71.5546875 C-52.61811176 67.61758688 -55.24267991 63.426697 -57.2890625 57.4921875 C-57.2890625 55.1821875 -57.2890625 52.8721875 -57.2890625 50.4921875 C-51.0190625 50.4921875 -44.7490625 50.4921875 -38.2890625 50.4921875 C-37.2990625 52.8021875 -36.3090625 55.1121875 -35.2890625 57.4921875 C-31.34509267 60.9502039 -27.31582716 60.92061842 -22.2890625 60.8046875 C-21.24105469 60.80952148 -21.24105469 60.80952148 -20.171875 60.81445312 C-16.11565567 60.77236028 -12.9378484 60.28094777 -9.2890625 58.4921875 C-9.18022131 57.07725199 -9.10308633 55.65985807 -9.0390625 54.2421875 C-8.99265625 53.45328125 -8.94625 52.664375 -8.8984375 51.8515625 C-9.43806321 48.5922232 -10.78413473 47.59562674 -13.2890625 45.4921875 C-15.80167316 44.5672114 -15.80167316 44.5672114 -18.578125 44.1484375 C-19.60292969 43.95378906 -20.62773438 43.75914063 -21.68359375 43.55859375 C-23.28267578 43.27822266 -23.28267578 43.27822266 -24.9140625 42.9921875 C-46.11378595 39.19248429 -46.11378595 39.19248429 -53.2890625 31.4921875 C-56.78130778 25.67620486 -57.13863295 19.10532116 -56.2890625 12.4921875 C-54.20156962 5.27294128 -49.46389519 0.92310274 -43.12890625 -2.765625 C-30.34205546 -8.56124992 -11.69108111 -7.70095104 0 0 Z " fill="#1A3350" transform="translate(590.2890625,1231.5078125)"/>
<path d="M0 0 C1.08188599 -0.01007584 2.16377197 -0.02015167 3.27844238 -0.03053284 C6.85386496 -0.05902302 10.42886552 -0.06488997 14.00439453 -0.06811523 C16.4915484 -0.07775535 18.97870055 -0.08784775 21.46585083 -0.09837341 C26.67942244 -0.11633731 31.89284493 -0.12189413 37.10644531 -0.12011719 C42.4569778 -0.11851458 47.80686091 -0.13964733 53.15722656 -0.18164062 C59.62107412 -0.23164927 66.08433811 -0.25228429 72.54837418 -0.25028801 C75.00994287 -0.2538264 77.47151766 -0.26708636 79.93297958 -0.29028511 C83.37787465 -0.31971365 86.82069582 -0.31104427 90.265625 -0.29296875 C91.27988556 -0.30982727 92.29414612 -0.32668579 93.33914185 -0.34405518 C99.33406452 -0.26420935 102.65306294 0.67783388 107.03363228 4.8525095 C109.65949591 8.2364968 109.06364815 11.59695323 108.83251953 15.64672852 C108.04232422 19.51110831 106.47080918 21.22032763 103.26220703 23.43579102 C100.87712817 24.62833045 99.39703326 24.57183622 96.73419189 24.58969116 C95.304254 24.60259186 95.304254 24.60259186 93.84542847 24.61575317 C92.7960611 24.62001312 91.74669373 24.62427307 90.66552734 24.62866211 C89.01168533 24.64092834 89.01168533 24.64092834 87.32443237 24.65344238 C83.66307118 24.67832539 80.00174882 24.69481983 76.34033203 24.70922852 C75.09194298 24.71455219 73.84355392 24.71987587 72.5573349 24.72536087 C67.31074993 24.74659667 62.06417082 24.76572623 56.81755447 24.77698326 C49.30238207 24.79321426 41.78772738 24.82636902 34.27275014 24.88338411 C28.34929625 24.92678918 22.42595761 24.942732 16.50234222 24.94911575 C13.98412135 24.95584036 11.46590836 24.97109354 8.94779205 24.99500656 C5.42361478 25.02656405 1.90074585 25.0267082 -1.62353516 25.01928711 C-3.18544083 25.04389511 -3.18544083 25.04389511 -4.77890015 25.06900024 C-9.34238639 25.02964465 -12.69805064 24.98586246 -16.36993408 22.08682251 C-19.16429926 18.95827877 -19.65948093 17.26589864 -20.05029297 13.12329102 C-19.67570151 8.7031118 -18.5739331 6.8084982 -15.73779297 3.43579102 C-10.98359868 -0.52633164 -5.88468913 -0.00785673 0 0 Z " fill="#193355" transform="translate(481.73779296875,609.564208984375)"/>
<path d="M0 0 C6.93 0 13.86 0 21 0 C21 7.26 21 14.52 21 22 C27.27 22 33.54 22 40 22 C40 27.61 40 33.22 40 39 C33.73 39 27.46 39 21 39 C21.0510353 44.76698881 21.11394232 50.53127036 21.20751953 56.29736328 C21.23573553 58.25853747 21.25694694 60.21982551 21.27099609 62.18115234 C21.29241699 65.00156977 21.33906209 67.82061743 21.390625 70.640625 C21.39185364 71.51680481 21.39308228 72.39298462 21.39434814 73.29571533 C21.50285759 78.25400311 21.50285759 78.25400311 23.82226562 82.546875 C26.93999182 84.62722324 29.537409 84.61249663 33.25 84.75 C36.59125 84.87375 36.59125 84.87375 40 85 C40 90.94 40 96.88 40 103 C15.83823038 103.84448904 15.83823038 103.84448904 7.0625 96.5625 C0.55872935 88.48205767 -0.31826809 80.28142552 -0.1953125 70.15234375 C-0.1924826 69.25504044 -0.18965271 68.35773712 -0.18673706 67.4332428 C-0.17564979 64.60118586 -0.15056747 61.76945939 -0.125 58.9375 C-0.11495537 57.00325981 -0.10583213 55.06901461 -0.09765625 53.13476562 C-0.07574814 48.4230521 -0.04129901 43.71158184 0 39 C-3.63 39 -7.26 39 -11 39 C-11 33.39 -11 27.78 -11 22 C-7.37 22 -3.74 22 0 22 C0 14.74 0 7.48 0 0 Z " fill="#1D3753" transform="translate(243,1205)"/>
<path d="M0 0 C1.13308594 0.3609375 2.26617187 0.721875 3.43359375 1.09375 C25.01581703 7.37477623 49.48428245 7.65517226 71 1 C72.99426092 0.63389281 74.99315784 0.28930198 77 0 C77.11689626 3.37470504 77.18747934 6.7488843 77.25 10.125 C77.28351563 11.07632813 77.31703125 12.02765625 77.3515625 13.0078125 C77.44820698 19.96621504 76.16000162 23.45404399 71.46484375 28.72265625 C59.94296221 38.83008686 46.03626416 40.89677295 31.27636719 40.1953125 C21.52206564 39.35839259 10.53660259 34.3507315 4 26.9375 C-0.07279354 20.95558449 -0.26167647 16.23685155 -0.125 9.1875 C-0.11597656 8.30384766 -0.10695313 7.42019531 -0.09765625 6.50976562 C-0.07419637 4.33972641 -0.03832865 2.16982753 0 0 Z " fill="#FCC99B" transform="translate(301,723)"/>
<path d="M0 0 C6.93 0 13.86 0 21 0 C21 34.98 21 69.96 21 106 C14.07 106 7.14 106 0 106 C0 71.02 0 36.04 0 0 Z " fill="#18324E" transform="translate(109,1201)"/>
<path d="M0 0 C6.27 0 12.54 0 19 0 C19.33 3.96 19.66 7.92 20 12 C21.175625 10.4221875 21.175625 10.4221875 22.375 8.8125 C26.12387891 4.47262135 30.49309402 1.634745 36 0 C38.97 0 41.94 0 45 0 C45 6.6 45 13.2 45 20 C42.97875 20.4125 40.9575 20.825 38.875 21.25 C30.79700087 23.06924617 30.79700087 23.06924617 24.90838623 28.60229492 C21.80692848 34.29838911 21.39897933 39.21270776 21.390625 45.625 C21.37408875 46.61250244 21.35755249 47.60000488 21.34051514 48.61743164 C21.29226213 51.74501913 21.27071443 54.87212119 21.25 58 C21.22182138 60.13153454 21.19189132 62.26304669 21.16015625 64.39453125 C21.08323891 69.5965726 21.04250727 74.79711073 21 80 C14.07 80 7.14 80 0 80 C0 53.6 0 27.2 0 0 Z " fill="#1C3652" transform="translate(386,1227)"/>
<path d="M0 0 C6.93 0 13.86 0 21 0 C21 26.4 21 52.8 21 80 C14.07 80 7.14 80 0 80 C0 53.6 0 27.2 0 0 Z " fill="#1C3754" transform="translate(707,1227)"/>
<path d="M0 0 C5.55538924 2.52996853 9.08794813 6.01956292 11.85546875 11.515625 C14.01502016 18.29737416 14.13647971 28.41073489 11.18359375 34.9375 C7.95301317 40.11559369 2.76701943 44.91228473 -3.25390625 46.3125 C-8.82600103 47.11834087 -13.15471458 46.84023598 -18.06640625 43.9375 C-22.90592238 40.24779798 -25.62708022 36.17536096 -27.25390625 30.3125 C-28.09481343 23.04640886 -28.53075457 14.6219099 -24.25390625 8.3125 C-17.34025005 0.92912618 -10.22258792 -3.11815507 0 0 Z " fill="#F7F8F9" transform="translate(794.25390625,1244.6875)"/>
<path d="M0 0 C3.64912533 1.89995781 5.69352129 3.40988662 7.140625 7.234375 C7.80996714 12.02094963 7.8458896 15.98057127 5.453125 20.234375 C1.56224737 23.59945836 -1.26906795 24.45044902 -6.359375 24.171875 C-10.89226257 23.55993518 -12.97839305 21.83560244 -15.859375 18.234375 C-16.189375 17.904375 -16.519375 17.574375 -16.859375 17.234375 C-16.98473152 15.63389298 -17.03512287 14.02721572 -17.046875 12.421875 C-17.06105469 11.54917969 -17.07523438 10.67648437 -17.08984375 9.77734375 C-16.84268799 7.05025224 -16.35520274 5.51489925 -14.859375 3.234375 C-9.97267803 -0.1487229 -5.93604342 -2.44425317 0 0 Z " fill="#1A3350" transform="translate(721.859375,1193.765625)"/>
<path d="M0 0 C4.83033142 2.45716859 6.72489769 5.59003619 8.859375 10.3515625 C9.354375 13.3215625 9.354375 13.3215625 9.859375 16.3515625 C-1.690625 16.3515625 -13.240625 16.3515625 -25.140625 16.3515625 C-24.03222311 9.70115117 -22.53421112 6.46019789 -17.515625 2.0390625 C-12.3472889 -1.63317631 -6.06612343 -1.83754834 0 0 Z " fill="#F7F8F9" transform="translate(341.140625,1242.6484375)"/>
<path d="M0 0 C6.93 0 13.86 0 21 0 C21 26.4 21 52.8 21 80 C14.07 80 7.14 80 0 80 C0 53.6 0 27.2 0 0 Z M2 2 C2 27.41 2 52.82 2 79 C7.61 79 13.22 79 19 79 C19 53.59 19 28.18 19 2 C13.39 2 7.78 2 2 2 Z " fill="#182D49" transform="translate(707,1227)"/>
<path d="M0 0 C14.12546511 -0.04674075 28.25091822 -0.08186601 42.37644482 -0.10362434 C48.93531665 -0.11406663 55.49413656 -0.12823407 62.05297852 -0.15087891 C68.38124922 -0.17259123 74.70946996 -0.18456528 81.03777504 -0.18975449 C83.45352274 -0.19345312 85.86926767 -0.2006755 88.28499413 -0.21146011 C91.66556102 -0.22595344 95.04592076 -0.22797882 98.42651367 -0.22705078 C99.92839485 -0.23783661 99.92839485 -0.23783661 101.46061707 -0.24884033 C108.25314102 -0.22862977 112.62775958 0.62261892 118 5 C117.67 5.99 117.34 6.98 117 8 C116.23609955 7.18860062 115.4721991 6.37720123 114.68515015 5.54121399 C110.23710562 1.86815439 105.58239297 2.29394763 100.03759766 2.34057617 C98.39768356 2.32485062 98.39768356 2.32485062 96.72463989 2.30880737 C93.12082498 2.28006899 89.51797143 2.28634798 85.9140625 2.29296875 C83.41155799 2.2798531 80.90906406 2.26454929 78.40658569 2.24714661 C72.49935998 2.21134207 66.59234453 2.19756122 60.68503511 2.1945222 C53.29641336 2.1893656 45.90804112 2.14988572 38.51953125 2.11132812 C25.3463687 2.04672385 12.17330972 2.012553 -1 2 C-0.67 1.34 -0.34 0.68 0 0 Z " fill="#FBDD3B" transform="translate(472,608)"/>
<path d="M0 0 C1.02104551 0.97850195 2.0206121 1.97980427 3 3 C3 3.33 3 3.66 3 4 C-17.13 4 -37.26 4 -58 4 C-58 3.34 -58 2.68 -58 2 C-38.86 2 -19.72 2 0 2 C0 1.34 0 0.68 0 0 Z " fill="#FDE036" transform="translate(580,822)"/>
<path d="M0 0 C0.33 0 0.66 0 1 0 C1.01981934 1.05388916 1.03963867 2.10777832 1.06005859 3.19360352 C1.13650687 7.12807889 1.22516177 11.06220323 1.31738281 14.99633789 C1.35551129 16.69450924 1.39039146 18.39275692 1.421875 20.09106445 C1.46787822 22.54145467 1.52581151 24.99132667 1.5859375 27.44140625 C1.59748871 28.19273331 1.60903992 28.94406036 1.62094116 29.71815491 C1.75052977 34.41536416 2.3276516 38.55130019 4 43 C9.07408011 46.38272008 15.00243268 45.66985868 21 46 C21 51.61 21 57.22 21 63 C20.34 63 19.68 63 19 63 C19 58.05 19 53.1 19 48 C17.824375 48.04125 16.64875 48.0825 15.4375 48.125 C10.48448416 48.10743611 5.77507692 47.77507692 2.125 44.125 C-0.39110346 39.37236014 -0.13118302 34.56211571 -0.09765625 29.296875 C-0.0962413 28.45908508 -0.09482635 27.62129517 -0.09336853 26.75811768 C-0.08778197 24.08870843 -0.07523194 21.4193838 -0.0625 18.75 C-0.05748326 16.93750121 -0.05292066 15.12500111 -0.04882812 13.3125 C-0.03781694 8.87496752 -0.02056155 4.43749809 0 0 Z " fill="#071B3A" transform="translate(262,1244)"/>
<path d="M0 0 C0.33 0 0.66 0 1 0 C1.33 12.87 1.66 25.74 2 39 C14.10557281 39.04349839 14.10557281 39.04349839 20 35 C18.48601545 38.78496138 17.9855604 39.0072198 14 41 C9.38 41 4.76 41 0 41 C0 27.47 0 13.94 0 0 Z " fill="#142943" transform="translate(501,878)"/>
<path d="M0 0 C0.66 0.33 1.32 0.66 2 1 C0.75796305 2.46512126 -0.49397056 3.92185645 -1.75 5.375 C-2.44609375 6.18710937 -3.1421875 6.99921875 -3.859375 7.8359375 C-6 10 -6 10 -7.82226562 10.8359375 C-10.7269666 12.38858483 -12.67116081 14.44763838 -14.984375 16.7890625 C-15.67506073 17.48399307 -15.67506073 17.48399307 -16.37969971 18.19296265 C-17.84125078 19.66565898 -19.29567168 21.14517403 -20.75 22.625 C-21.74302611 23.62806322 -22.73651089 24.63067257 -23.73046875 25.6328125 C-26.15897941 28.08330835 -28.58114675 30.5399667 -31 33 C-31 29.39076653 -29.9739595 28.62450074 -27.52037048 26.15483093 C-26.7658535 25.41883415 -26.7658535 25.41883415 -25.99609375 24.66796875 C-25.47999039 24.15373856 -24.96388702 23.63950836 -24.43214417 23.10969543 C-23.3351194 22.01940107 -22.23449898 20.93271459 -21.13061523 19.84936523 C-19.46158953 18.21114491 -17.80313922 16.56282904 -16.14648438 14.91210938 C-10.93161878 9.73619372 -5.68028371 4.66973108 0 0 Z " fill="#ECF9FD" transform="translate(233,286)"/>
<path d="M0 0 C2.97 0 5.94 0 9 0 C9 5.61 9 11.22 9 17 C8.34 17 7.68 17 7 17 C7 12.05 7 7.1 7 2 C4.36 2 1.72 2 -1 2 C-0.67 1.34 -0.34 0.68 0 0 Z " fill="#0B2543" transform="translate(274,1290)"/>
<path d="M0 0 C2 1 2 1 2.859375 3.1875 C3.15328125 4.115625 3.4471875 5.04375 3.75 6 C5.44636626 10.90415659 7.60511592 14.83092492 10.6328125 19.02734375 C12 21 12 21 13.0546875 23.19140625 C13.86841609 25.17817547 13.86841609 25.17817547 16 26 C13.55342148 25.61591348 12.26405685 25.25865415 10.47265625 23.50390625 C5.23882902 16.29833248 0.59084017 9.05954928 0 0 Z " fill="#ECD73A" transform="translate(465,363)"/>
<path d="M0 0 C1.65 0 3.3 0 5 0 C5 0.66 5 1.32 5 2 C10.445 1.505 10.445 1.505 16 1 C15.01 2.485 15.01 2.485 14 4 C7.07 3.505 7.07 3.505 0 3 C0 2.01 0 1.02 0 0 Z " fill="#273C57" transform="translate(460,1049)"/>
<path d="M0 0 C1.485 0.99 1.485 0.99 3 2 C3.29296875 4.8203125 3.29296875 4.8203125 3.1875 8.125 C3.16042969 9.22070312 3.13335938 10.31640625 3.10546875 11.4453125 C3.07066406 12.28835938 3.03585937 13.13140625 3 14 C1.51171875 12.85546875 1.51171875 12.85546875 0 11 C-0.29296875 8.30078125 -0.29296875 8.30078125 -0.1875 5.3125 C-0.16042969 4.31863281 -0.13335938 3.32476563 -0.10546875 2.30078125 C-0.07066406 1.54152344 -0.03585937 0.78226563 0 0 Z " fill="#273F5A" transform="translate(962,580)"/>
<path d="M0 0 C0.33 0.66 0.66 1.32 1 2 C-0.09346881 3.34212062 -1.2001575 4.67347975 -2.3125 6 C-3.23482422 7.11375 -3.23482422 7.11375 -4.17578125 8.25 C-6 10 -6 10 -9 10 C-6.03 6.7 -3.06 3.4 0 0 Z " fill="#0E2140" transform="translate(845,871)"/>
<path d="M0 0 C0.66 0.33 1.32 0.66 2 1 C-0.64 3.97 -3.28 6.94 -6 10 C-6.99 9.34 -7.98 8.68 -9 8 C-6.03 5.36 -3.06 2.72 0 0 Z " fill="#DDEFF8" transform="translate(233,286)"/>
<path d="M0 0 C2 0.66666667 4 1.33333333 6 2 C7.093125 2.309375 8.18625 2.61875 9.3125 2.9375 C10.6428125 3.4634375 10.6428125 3.4634375 12 4 C12.33 4.99 12.66 5.98 13 7 C7.92990529 6.52467862 4.02506742 3.95637706 0 1 C0 0.67 0 0.34 0 0 Z " fill="#12233F" transform="translate(295,998)"/>
<path d="M0 0 C0.66 0 1.32 0 2 0 C1.62669176 2.72574271 1.20805399 3.80822085 -0.84765625 5.703125 C-1.94400391 6.46882812 -1.94400391 6.46882812 -3.0625 7.25 C-3.79597656 7.77078125 -4.52945313 8.2915625 -5.28515625 8.828125 C-5.85105469 9.21484375 -6.41695312 9.6015625 -7 10 C-5.15014033 6.06048404 -2.92434659 3.21678125 0 0 Z " fill="#142856" transform="translate(609,658)"/>
<path d="M0 0 C2 1 2 1 2.6328125 2.84765625 C2.79523437 3.57855469 2.95765625 4.30945313 3.125 5.0625 C3.29257812 5.79597656 3.46015625 6.52945312 3.6328125 7.28515625 C3.75398437 7.85105469 3.87515625 8.41695313 4 9 C3.01 9 2.02 9 1 9 C-0.4783226 6.04335481 -0.06032783 3.25770263 0 0 Z " fill="#D0E5F3" transform="translate(919,481)"/>
<path d="M0 0 C3.3 0 6.6 0 10 0 C6 3 6 3 2.25 2.6875 C1.1775 2.460625 0.105 2.23375 -1 2 C-0.67 1.34 -0.34 0.68 0 0 Z " fill="#EEF1F2" transform="translate(869,1241)"/>
<path d="M0 0 C0.66 0.33 1.32 0.66 2 1 C2 1.66 2 2.32 2 3 C1.34 3 0.68 3 0 3 C-0.28875 3.94875 -0.5775 4.8975 -0.875 5.875 C-2 9 -2 9 -4 11 C-3.48964169 6.6109185 -2.47785723 3.66291938 0 0 Z " fill="#142846" transform="translate(245,537)"/>
<path d="M0 0 C0.66 0.33 1.32 0.66 2 1 C-0.31 3.64 -2.62 6.28 -5 9 C-5.33 8.01 -5.66 7.02 -6 6 C-4.02 4.02 -2.04 2.04 0 0 Z " fill="#142846" transform="translate(268,507)"/>
<path d="M0 0 C0.66 0.66 1.32 1.32 2 2 C-0.97 4.64 -3.94 7.28 -7 10 C-7 7 -7 7 -5.46875 5.17578125 C-4.8190625 4.56089844 -4.169375 3.94601562 -3.5 3.3125 C-2.8503125 2.68988281 -2.200625 2.06726563 -1.53125 1.42578125 C-0.77328125 0.72001953 -0.77328125 0.72001953 0 0 Z " fill="#0C1D3B" transform="translate(180,302)"/>
<path d="M0 0 C0.33 0.66 0.66 1.32 1 2 C-0.98 4.31 -2.96 6.62 -5 9 C-5.66 8.67 -6.32 8.34 -7 8 C-4.69 5.36 -2.38 2.72 0 0 Z " fill="#0E213F" transform="translate(165,319)"/>
<path d="M0 0 C3.3 0.33 6.6 0.66 10 1 C6.5647952 3.29013653 5.014669 3.17842973 1 3 C0.67 2.01 0.34 1.02 0 0 Z " fill="#C2DDEE" transform="translate(474,1025)"/>
<path d="M0 0 C4.455 0.99 4.455 0.99 9 2 C9 2.66 9 3.32 9 4 C6.36 3.67 3.72 3.34 1 3 C0.67 2.01 0.34 1.02 0 0 Z " fill="#EFF1F3" transform="translate(355,1027)"/>
<path d="M0 0 C0.66 0.66 1.32 1.32 2 2 C1.75 4.5625 1.75 4.5625 1 7 C0.01 7.495 0.01 7.495 -1 8 C-1.125 2.25 -1.125 2.25 0 0 Z " fill="#152948" transform="translate(931,693)"/>
</svg>
