<?xml version="1.0" encoding="UTF-8"?>
<svg version="1.1" xmlns="http://www.w3.org/2000/svg" width="1024" height="1536">
<path d="M0 0 C337.92 0 675.84 0 1024 0 C1024 506.88 1024 1013.76 1024 1536 C686.08 1536 348.16 1536 0 1536 C0 1029.12 0 522.24 0 0 Z " fill="#F9F9F9" transform="translate(0,0)"/>
<path d="M0 0 C3.2305765 0.01077594 6.46060155 -0.00001401 9.69116211 -0.01269531 C23.40839889 -0.02244792 36.90413406 0.71500668 50.53295898 2.26074219 C51.60276505 2.38122925 51.60276505 2.38122925 52.69418335 2.50415039 C56.98116571 2.9964454 61.25768737 3.55113276 65.53295898 4.13574219 C67.44310791 4.3961731 67.44310791 4.3961731 69.3918457 4.66186523 C111.20198216 10.47890484 152.0561499 21.77068599 190.53295898 39.26074219 C191.54326172 39.71916504 192.55356445 40.17758789 193.59448242 40.64990234 C214.77802768 50.35492191 234.76805008 61.55513058 254.15795898 74.44824219 C255.09325943 75.06880493 255.09325943 75.06880493 256.04745483 75.7019043 C264.82619569 81.54655965 273.24650014 87.73586414 281.53295898 94.26074219 C282.41983398 94.95554687 283.30670898 95.65035156 284.22045898 96.36621094 C299.36405151 108.27601548 313.58496743 121.24522939 327.25463867 134.80718994 C328.67677193 136.21742077 330.10285187 137.62366813 331.52905273 139.02978516 C336.89335226 144.3873793 341.86124502 149.90136136 346.578125 155.83837891 C348.40539777 158.1026727 350.30609614 160.25200303 352.28295898 162.38574219 C410.9282085 227.77984978 445.176626 316.34794443 456.28979492 486.32128906 C455.76146379 494.68614436 454.77196293 502.97382892 453.53295898 511.26074219 C453.38842285 512.28216309 453.24388672 513.30358398 453.0949707 514.35595703 C443.07426581 584.19017175 416.55609139 653.88365887 373.54858398 710.19433594 C372.83617554 711.14228027 372.83617554 711.14228027 372.109375 712.109375 C371.2066158 713.30459073 370.28849446 714.48840993 369.35302734 715.65820312 C367.95785296 717.42763629 367.95785296 717.42763629 366.53295898 720.26074219 C367.27898712 724.0457379 368.98358422 725.97979588 371.84545898 728.44824219 C378.4054089 734.69320495 381.61687321 742.80980469 381.84545898 751.76074219 C381.68958049 763.42328774 377.21926954 772.62045692 369.53295898 781.26074219 C360.38817403 789.98395905 350.47484319 793.67407516 337.98217773 793.53417969 C328.37115512 792.77226396 321.69187504 788.37062896 314.53295898 782.26074219 C313.20655375 781.25157078 311.87524686 780.24869008 310.53295898 779.26074219 C309.82913086 779.9271875 309.12530273 780.59363281 308.40014648 781.28027344 C301.3038861 787.93050406 293.93022313 794.05320413 286.21069336 799.96386719 C284.69326646 801.13682582 283.19763775 802.33785213 281.70483398 803.54199219 C231.69740548 843.43862913 171.37832111 870.49764081 109.51147461 885.52783203 C107.54755911 886.01108403 105.58767468 886.51106748 103.63256836 887.02880859 C89.84401245 890.65118674 75.64208776 892.35562113 61.53295898 894.26074219 C60.28530762 894.4317041 59.03765625 894.60266602 57.75219727 894.77880859 C20.94286629 899.59961449 -17.71283462 899.38583073 -54.46704102 894.26074219 C-56.27917786 894.03900392 -58.09166697 893.82012038 -59.90454102 893.60449219 C-130.1166516 884.87595554 -198.52556815 857.54201585 -256.46704102 817.26074219 C-257.20905762 816.74543945 -257.95107422 816.23013672 -258.71557617 815.69921875 C-272.87292013 805.80642841 -286.38421886 795.12337808 -299.09594727 783.42089844 C-300.42003588 782.21460354 -301.75259663 781.01690502 -303.11474609 779.85375977 C-308.84662098 774.94816719 -314.19292383 769.68761501 -319.51269531 764.34545898 C-321.02696681 762.82582551 -322.54651532 761.31161701 -324.06665039 759.79785156 C-329.40956074 754.45935896 -334.60540329 749.04653654 -339.46704102 743.26074219 C-340.01223389 742.61693604 -340.55742676 741.97312988 -341.11914062 741.30981445 C-360.04688255 718.82258477 -377.12459853 694.94862027 -391.46704102 669.26074219 C-392.24313721 667.89054932 -392.24313721 667.89054932 -393.03491211 666.49267578 C-402.77737573 649.22922122 -410.9988774 631.59720895 -418.46704102 613.26074219 C-418.89887695 612.20113281 -419.33071289 611.14152344 -419.77563477 610.04980469 C-426.18320556 594.12299932 -431.08847457 577.85072255 -435.46704102 561.26074219 C-435.75208496 560.18115234 -436.03712891 559.1015625 -436.33081055 557.98925781 C-440.34778881 542.546998 -443.345409 527.07245905 -445.46704102 511.26074219 C-445.61802246 510.21063965 -445.76900391 509.16053711 -445.92456055 508.07861328 C-448.57019177 489.11968316 -448.78161626 470.18928416 -448.84204102 451.07324219 C-448.84989624 449.85823029 -448.85775146 448.64321838 -448.86584473 447.39138794 C-449.10526499 399.7576012 -440.64767639 352.34394392 -425.46704102 307.26074219 C-425.0711377 306.07464355 -424.67523438 304.88854492 -424.26733398 303.66650391 C-418.66667886 287.0226853 -412.11832976 271.06211961 -404.46704102 255.26074219 C-403.80677253 253.87147261 -403.14660529 252.4821549 -402.48657227 251.09277344 C-392.75573731 230.88992793 -381.31221909 211.6246438 -368.46704102 193.26074219 C-367.91661133 192.47086914 -367.36618164 191.68099609 -366.79907227 190.8671875 C-359.59003639 180.57162261 -351.95532991 170.70042044 -343.92895508 161.03125 C-342.57097344 159.38661359 -341.2299703 157.73014622 -339.89672852 156.06542969 C-336.17262584 151.43239347 -332.40279732 147.04650113 -328.12719727 142.91699219 C-326.41179267 141.20562383 -324.84906245 139.41884811 -323.27954102 137.57324219 C-316.69398236 129.94941978 -309.44536084 122.74904328 -301.77172852 116.22167969 C-299.86399361 114.59848829 -297.97884945 112.95592137 -296.09985352 111.29980469 C-288.12269516 104.2865183 -280.00533417 97.58180731 -271.46704102 91.26074219 C-270.80365723 90.76606445 -270.14027344 90.27138672 -269.45678711 89.76171875 C-252.37897339 77.06373326 -234.47976064 65.96582612 -215.89526367 55.61425781 C-214.38413714 54.77194075 -212.87551712 53.92509061 -211.37084961 53.07128906 C-166.52539521 27.66297266 -114.95779652 12.14228275 -64.27954102 4.51074219 C-62.97621826 4.31198486 -61.67289551 4.11322754 -60.33007812 3.90844727 C-40.31282989 0.97470849 -20.21614242 -0.07982682 0 0 Z " fill="#1A344F" transform="translate(508.467041015625,158.7392578125)"/>
<path d="M0 0 C15.96518425 -0.40718855 31.8699903 0.72245481 47.77001953 2.06640625 C48.47056458 2.12485718 49.17110962 2.18330811 49.8928833 2.24353027 C137.93069596 9.67615495 225.0066454 44.63523681 290.36376953 104.87109375 C291.70686195 106.09644754 293.05841561 107.31322337 294.43969727 108.49536133 C300.00679078 113.26543675 305.21849823 118.36167304 310.38842773 123.55444336 C311.83027174 125.0016501 313.27739069 126.44342651 314.72509766 127.88476562 C319.95271606 133.10835547 324.98606414 138.43326529 329.77001953 144.06640625 C330.61564453 145.030625 331.46126953 145.99484375 332.33251953 146.98828125 C340.02050978 155.90832122 347.07851085 165.26147474 354.05859375 174.7421875 C355.10363181 176.1614118 356.15144252 177.57860655 357.20410156 178.9921875 C409.14918479 248.75095027 435.94393791 337.25789853 436.02001953 423.81640625 C436.02102661 424.62678345 436.02203369 425.43716064 436.02307129 426.27209473 C435.97275564 487.13331741 423.3160318 547.53572024 397.78222656 602.85693359 C396.77760797 605.04984201 395.80183984 607.25394708 394.82861328 609.4609375 C383.85712395 633.92048328 368.94084852 656.75161157 352.77001953 678.06640625 C349.68136611 676.7021913 347.69152598 675.18939345 345.40673828 672.71484375 C344.77493652 672.03655518 344.14313477 671.3582666 343.4921875 670.65942383 C342.82074707 669.92747803 342.14930664 669.19553223 341.45751953 668.44140625 C340.40008545 667.30384888 340.40008545 667.30384888 339.32128906 666.14331055 C337.13288005 663.7886098 334.95135134 661.4276621 332.77001953 659.06640625 C330.23325876 656.33263973 327.69127891 653.60382693 325.14501953 650.87890625 C324.23647217 649.90606689 324.23647217 649.90606689 323.30957031 648.91357422 C316.95332617 642.14069377 310.38292253 635.5876049 303.77001953 629.06640625 C304.9362182 625.15342492 306.41309557 621.71991016 308.43481445 618.17333984 C321.2118746 595.75476929 326.99974083 570.45384558 327.02001953 544.81640625 C327.02069427 544.05385529 327.02136902 543.29130432 327.02206421 542.50564575 C327.00559724 530.79701758 326.55653412 519.49221312 323.77001953 508.06640625 C323.60373047 507.37450195 323.43744141 506.68259766 323.26611328 505.96972656 C317.76112894 483.89881711 308.02178002 456.60532255 290.52001953 441.0690918 C285.40053863 436.24375828 282.98782201 432.40201524 282.70751953 425.3203125 C282.65388428 422.41987048 282.70601796 419.52876717 282.77001953 416.62890625 C282.7708563 415.10277864 282.76700221 413.57664152 282.75854492 412.05053711 C282.74495902 409.0645715 282.75006136 406.07966668 282.77050781 403.09375 C282.7899733 398.09185101 282.53655362 393.11882065 282.20751953 388.12890625 C281.20876847 370.72780912 281.20876847 370.72780912 282.76626587 366.11734009 C284.22753891 361.07921931 284.06509024 356.03825006 284.06054688 350.82958984 C284.0672641 349.71803528 284.07398132 348.60648071 284.0809021 347.46124268 C284.09985919 343.79573054 284.10380556 340.13040183 284.10595703 336.46484375 C284.11238785 333.90524217 284.11911642 331.34564132 284.12612915 328.78604126 C284.13809717 323.42130535 284.1418965 318.05663724 284.140625 312.69189453 C284.13942637 306.52127199 284.16047934 300.35100078 284.19211233 294.18046701 C284.22159334 288.21375315 284.22859621 282.24714467 284.22740555 276.28035355 C284.2297545 273.75677687 284.23853786 271.23319717 284.25407028 268.70966721 C284.36173852 249.40545822 283.6443961 235.33493366 270.33251953 220.31640625 C261.74522743 212.77634489 252.49286591 206.9942932 240.7333374 206.90818787 C239.71814026 206.89839905 238.70294312 206.88861023 237.65698242 206.87852478 C235.99542114 206.86989159 235.99542114 206.86989159 234.30029297 206.86108398 C233.1292804 206.85118439 231.95826782 206.84128479 230.75177002 206.83108521 C226.87766549 206.79947493 223.00354869 206.7747145 219.12939453 206.75 C216.44467408 206.72996671 213.75996577 206.70848115 211.07525635 206.68702698 C204.72887278 206.63714405 198.38246426 206.59218893 192.03603196 206.54900461 C184.80992862 206.4995946 177.58387028 206.44469045 170.3578105 206.38932502 C155.49525574 206.27557254 140.63265762 206.16871888 125.77001953 206.06640625 C125.76859451 205.27872864 125.76716949 204.49105103 125.76570129 203.67950439 C125.74777148 196.20711248 125.70586609 188.73540066 125.63792896 181.26330948 C125.60383403 177.42302092 125.57857659 173.58312276 125.57446289 169.74267578 C125.57014184 166.02698727 125.54137036 162.31217679 125.49658775 158.59676361 C125.48373281 157.18886201 125.47926183 155.78085467 125.48386574 154.37290192 C125.51400759 142.34099704 123.33846302 131.7564452 114.78955078 122.81640625 C106.65205095 115.76495572 98.14228771 112.7516628 87.40275574 112.80570984 C86.17930206 112.79997152 86.17930206 112.79997152 84.93113214 112.79411727 C82.21224094 112.78384138 79.49356307 112.78776911 76.7746582 112.79174805 C74.8194306 112.78739853 72.8642047 112.78221459 70.90898132 112.77626038 C65.60722134 112.76288377 60.30553271 112.76229031 55.00375915 112.76482368 C50.57300441 112.76589446 46.14226404 112.76100718 41.71151239 112.75621825 C31.25501097 112.74512734 20.79854547 112.7446831 10.34204102 112.75073242 C-0.4330553 112.75677039 -11.20802097 112.74446469 -21.98309499 112.72316235 C-31.24447072 112.7055281 -40.50580494 112.69954794 -49.76719683 112.7028001 C-55.29398475 112.70461044 -60.8206795 112.70200166 -66.34745216 112.68808556 C-71.54725968 112.67548248 -76.74686411 112.67747484 -81.94666862 112.69049644 C-83.85013015 112.6928565 -85.75360608 112.69014809 -87.65705109 112.68187332 C-106.46094307 112.58934439 -106.46094307 112.58934439 -122.22998047 122.06640625 C-129.56052865 130.2447049 -132.27872689 138.47865603 -132.43530273 149.43896484 C-132.45524796 150.67979828 -132.47519318 151.92063171 -132.4957428 153.19906616 C-132.51272167 154.53765746 -132.52960067 155.87625002 -132.54638672 157.21484375 C-132.56698225 158.5963296 -132.58797936 159.97780952 -132.60935974 161.35928345 C-132.66431224 164.97921923 -132.71383871 168.59920933 -132.76220703 172.21923828 C-132.81261908 175.919645 -132.86820185 179.61997372 -132.92333984 183.3203125 C-133.03059288 190.5689442 -133.13210947 197.81764116 -133.22998047 205.06640625 C-133.84159877 205.0687946 -134.45321707 205.07118296 -135.08336926 205.07364368 C-150.0176086 205.13297538 -164.95168426 205.20864019 -179.88574505 205.30212116 C-187.10797852 205.34694212 -194.3301642 205.38638767 -201.55249023 205.4128418 C-207.85303254 205.4359336 -214.15342181 205.46945445 -220.45384246 205.51510781 C-223.78488584 205.53889098 -227.11564155 205.55615979 -230.44678307 205.56402016 C-234.18032374 205.57371731 -237.91332292 205.60184456 -241.64672852 205.6340332 C-242.73142929 205.63259811 -243.81613007 205.63116302 -244.93370056 205.62968445 C-260.41043258 205.81699398 -273.78134784 210.08185009 -285.16357422 220.8125 C-295.72682939 232.33423579 -298.84274519 245.25959738 -298.73791504 260.53729248 C-298.74253382 261.96343344 -298.74889325 263.38956962 -298.75682402 264.815696 C-298.7734074 268.7027704 -298.76532154 272.58944822 -298.75287914 276.4765234 C-298.7437852 280.68118309 -298.75782003 284.88577716 -298.76879883 289.09042358 C-298.78654435 297.31587968 -298.78276126 305.5411894 -298.77114826 313.76665112 C-298.7620961 320.45674331 -298.76089765 327.14679462 -298.76524353 333.83689117 C-298.76585646 334.79092072 -298.76646939 335.74495026 -298.7671009 336.72788979 C-298.76837988 338.66634169 -298.76967673 340.60479359 -298.77099127 342.54324546 C-298.78238609 360.70294649 -298.76930189 378.86256663 -298.7477898 397.02225438 C-298.72993133 412.57867888 -298.73301475 428.13498392 -298.75146484 443.69140625 C-298.77291084 461.78216811 -298.78127547 479.87285907 -298.76901579 497.96363187 C-298.76774168 499.89597399 -298.7664842 501.82831612 -298.76524353 503.76065826 C-298.76462643 504.71124917 -298.76400933 505.66184008 -298.76337352 506.64123677 C-298.75993094 513.31541498 -298.76572559 519.98954797 -298.77516174 526.66371918 C-298.78642513 534.80896673 -298.78325148 542.95406025 -298.76203877 551.09929034 C-298.75158463 555.24918806 -298.74730904 559.39882977 -298.76063538 563.54872513 C-298.77268413 567.35866532 -298.76579503 571.16811579 -298.74472517 574.97801247 C-298.73824386 576.98572676 -298.75108294 578.99347592 -298.76495409 581.00115275 C-298.62616663 597.36283189 -294.74086957 611.34075136 -283.29248047 623.44140625 C-272.50312656 633.54997874 -260.34684825 636.70199851 -245.76393127 636.49118042 C-243.80833036 636.48761542 -243.80833036 636.48761542 -241.81322235 636.48397839 C-238.22807118 636.47714317 -234.64351123 636.44562807 -231.0585469 636.40998507 C-227.17918943 636.3760316 -223.29976345 636.3658834 -219.42028809 636.35331726 C-212.7071192 636.32896351 -205.99412949 636.29153274 -199.2810688 636.24660873 C-188.66160873 636.17691026 -178.04224768 636.15135324 -167.42259216 636.13308716 C-163.78301683 636.12631778 -160.14344197 636.11931474 -156.50386715 636.11227608 C-155.59449691 636.11053535 -154.68512667 636.10879462 -153.74819975 636.10700115 C-143.41455171 636.08674941 -133.08093128 636.05873604 -122.74731445 636.02636719 C-121.80350439 636.02342345 -120.85969434 636.02047971 -119.88728397 636.01744677 C-104.58711735 635.96846224 -89.28734181 635.88169811 -73.98741556 635.78461455 C-58.25376745 635.68605773 -42.52055629 635.64129919 -26.78659958 635.64281571 C-17.09456754 635.64179765 -7.40472 635.59726743 2.286793 635.49608512 C8.93041929 635.43046669 15.57292696 635.41615813 22.21682339 635.44160955 C26.04564127 635.45468653 29.87083736 635.44535173 33.69909096 635.3739872 C57.83607375 634.94682345 57.83607375 634.94682345 64.34684944 640.12469864 C67.22210505 642.94235029 69.46258272 646.00098074 71.60568917 649.39624429 C74.67496398 653.79893463 79.51785318 656.88309046 83.77001953 660.06640625 C84.5521582 660.66098633 84.5521582 660.66098633 85.35009766 661.26757812 C118.00373206 685.97947854 156.55756455 697.31233773 197.44189453 692.11889648 C210.98312719 690.13291314 224.01228606 686.35166026 236.6796875 681.21411133 C237.79174561 680.7736145 237.79174561 680.7736145 238.92626953 680.32421875 C239.57402344 680.05754395 240.22177734 679.79086914 240.88916016 679.51611328 C243.22007702 678.95879905 244.53444517 679.24063292 246.77001953 680.06640625 C249.10205078 682.0703125 249.10205078 682.0703125 251.58251953 684.62890625 C252.46552734 685.53769531 253.34853516 686.44648437 254.25830078 687.3828125 C256.89173564 690.1964513 259.42272062 693.07522639 261.92626953 696.00390625 C264.11798266 698.45565314 266.43069057 700.75526198 268.77001953 703.06640625 C271.70120145 705.96232583 274.53405127 708.86883196 277.20751953 712.00390625 C280.07174095 715.35565471 283.13331899 718.47200781 286.27001953 721.56640625 C290.65236688 725.90039666 294.80759014 730.34665247 298.77001953 735.06640625 C290.36188843 743.75480839 281.09028984 751.33388289 271.53271484 758.70214844 C269.85106929 760.00367688 268.18029579 761.3178829 266.51220703 762.63671875 C220.84951237 798.56560696 166.6485439 821.56223368 110.77001953 836.06640625 C109.22032322 836.48617836 107.67080485 836.90660877 106.12158203 837.328125 C85.98834734 842.49415784 64.46829457 845.38457609 43.77001953 847.06640625 C42.77446045 847.15180664 41.77890137 847.23720703 40.75317383 847.32519531 C-32.84141097 852.99295852 -106.01288335 839.30688663 -173.22998047 809.06640625 C-174.14537598 808.6595459 -175.06077148 808.25268555 -176.00390625 807.83349609 C-190.68428256 801.26857585 -204.4823627 793.38869996 -218.22998047 785.06640625 C-219.01840332 784.59138672 -219.80682617 784.11636719 -220.61914062 783.62695312 C-241.95909926 770.72129121 -262.11365003 755.54090125 -280.42919922 738.62109375 C-282.58422003 736.65542623 -284.76258191 734.74233666 -286.97216797 732.83984375 C-291.72819579 728.68902677 -296.20724805 724.28110963 -300.66748047 719.81640625 C-301.50859375 718.9744873 -302.34970703 718.13256836 -303.21630859 717.26513672 C-308.18353567 712.24862393 -312.88082912 707.20976574 -317.21826172 701.63671875 C-319.09181672 699.24293391 -321.04852387 696.94404442 -323.04394531 694.65161133 C-340.64904178 674.33346497 -355.18041909 651.51020978 -368.22998047 628.06640625 C-368.643125 627.33196289 -369.05626953 626.59751953 -369.48193359 625.84082031 C-394.94101147 580.30901464 -410.40996761 528.22256058 -416.60498047 476.50390625 C-416.68470093 475.83879028 -416.76442139 475.17367432 -416.84655762 474.48840332 C-421.19517138 437.44559629 -421.58376335 398.86175459 -415.22998047 362.06640625 C-415.03742676 360.89335938 -414.84487305 359.7203125 -414.64648438 358.51171875 C-413.34945325 350.65801649 -411.87553847 342.85440346 -410.22998047 335.06640625 C-410.02711426 334.10492676 -409.82424805 333.14344727 -409.61523438 332.15283203 C-403.34604538 303.31257402 -392.99518378 275.08262292 -381.22998047 248.06640625 C-380.88547852 247.26831543 -380.54097656 246.47022461 -380.18603516 245.64794922 C-368.96256659 219.90902206 -353.82354967 194.95097931 -336.58496094 172.81835938 C-334.52932766 170.1604811 -332.5407302 167.45517972 -330.54248047 164.75390625 C-324.25754596 156.38531778 -317.62734495 148.37271874 -310.56591797 140.6484375 C-309.27299478 139.21930334 -307.98688361 137.78356517 -306.73071289 136.32202148 C-301.98613902 130.80445138 -296.94910989 125.63596079 -291.79248047 120.50390625 C-290.98488281 119.69244141 -290.17728516 118.88097656 -289.34521484 118.04492188 C-284.4689092 113.1764749 -279.46202525 108.54773304 -274.22998047 104.06640625 C-273.16989948 103.12928386 -272.11122803 102.19056376 -271.05419922 101.25 C-203.18639241 41.52633001 -114.48132673 7.7917458 -21.22998047 1.06640625 C-19.73023682 0.9583667 -19.73023682 0.9583667 -18.20019531 0.84814453 C-12.13473 0.42616992 -6.07659414 0.18095397 0 0 Z " fill="#C6E4FC" transform="translate(504.22998046875,183.93359375)"/>
<path d="M0 0 C0.83967207 -0.00350607 1.67934415 -0.00701215 2.54446083 -0.01062447 C5.36483899 -0.01994609 8.18501101 -0.01501316 11.0053978 -0.01015663 C13.0452271 -0.01389251 15.08505496 -0.01849377 17.12488055 -0.02388728 C22.73581372 -0.03614047 28.34668737 -0.03585407 33.95763087 -0.03349853 C40.00686233 -0.03309094 46.05607456 -0.0441239 52.10529709 -0.05361366 C63.95909188 -0.07023741 75.81286743 -0.07574973 87.66667089 -0.07683842 C97.30078988 -0.07775746 106.93490242 -0.0818739 116.56901932 -0.08823967 C119.34207558 -0.09003476 122.11513185 -0.09181438 124.88818812 -0.09358943 C125.57757784 -0.09403152 126.26696755 -0.09447362 126.97724786 -0.09492911 C146.36938838 -0.10723804 165.76152666 -0.11513019 185.15367126 -0.11424255 C185.88483881 -0.1142114 186.61600636 -0.11418024 187.3693305 -0.11414814 C191.07519781 -0.11398192 194.78106512 -0.11378384 198.48693243 -0.11357872 C199.22293155 -0.11353883 199.95893067 -0.11349894 200.7172328 -0.11345784 C202.20560276 -0.11337697 203.69397272 -0.11329337 205.18234267 -0.11320706 C228.33739577 -0.11198163 251.49239028 -0.12699298 274.64742661 -0.15435219 C300.66191479 -0.18507736 326.67636448 -0.20228441 352.69087195 -0.20042574 C355.46518564 -0.20027648 358.23949933 -0.20017907 361.01381302 -0.20011711 C362.0384724 -0.20008215 362.0384724 -0.20008215 363.08383198 -0.20004648 C374.07403656 -0.19998495 385.06419026 -0.21275356 396.05437972 -0.22998164 C407.10132295 -0.24694043 418.14820667 -0.24856707 429.19515976 -0.235763 C435.17914492 -0.22922431 441.1629458 -0.22914887 447.14691353 -0.2464695 C452.62579588 -0.2621651 458.1043473 -0.25937225 463.58322141 -0.24190123 C465.56436581 -0.23882362 467.54553469 -0.24249228 469.52665022 -0.25362138 C480.81698722 -0.31284087 489.40059368 0.12127325 499.3715477 5.88226891 C505.5342809 12.57323638 507.30288325 19.90182729 507.19015121 28.76483727 C507.20088417 30.26208084 507.20088417 30.26208084 507.21183395 31.78957176 C507.22861642 35.05923075 507.20937738 38.32749815 507.18795395 41.59711266 C507.18878367 43.8881752 507.19124693 46.17923768 507.19526291 48.47029686 C507.19811388 53.26071761 507.1834888 58.05066902 507.15597153 62.84100914 C507.12191011 68.95833827 507.1279077 75.07482765 507.1466341 81.19219685 C507.15724166 85.9202267 507.14823178 90.64806377 507.13324928 95.37607574 C507.12809329 97.63054963 507.12851763 99.88504388 507.13479424 102.13951492 C507.14029108 105.30021341 507.11972735 108.45974121 507.09249496 111.62030602 C507.10228378 112.9961335 507.10228378 112.9961335 507.11227036 114.39975548 C506.92244527 127.46418346 500.64597134 139.10898332 491.8090477 148.50726891 C487.20123079 152.86504924 481.99990313 156.04917933 476.5590477 159.25726891 C475.60965317 159.96496422 475.60965317 159.96496422 474.64107895 160.68695641 C470.61758506 163.4048132 467.6983094 163.3518893 462.932827 162.49896812 C460.96251555 162.08871022 459.0043085 161.62155521 457.04732895 161.15180016 C425.28059424 154.06620055 388.31790912 159.58968835 358.9887352 172.87445641 C357.79506332 173.41328453 356.60139145 173.95211266 355.3715477 174.50726891 C353.77246567 175.25750328 353.77246567 175.25750328 352.14107895 176.02289391 C343.32540582 179.06079217 333.74183416 178.41513489 324.51729965 178.38764 C322.36512927 178.38225284 320.21316512 178.38762971 318.06100082 178.39398766 C316.67102641 178.3933272 315.28105213 178.3920467 313.89107895 178.39008141 C312.65075912 178.38895348 311.4104393 178.38782555 310.13253403 178.38666344 C306.54365071 178.25671139 303.10196317 177.82998195 299.5590477 177.25726891 C299.53326645 176.21828453 299.5074852 175.17930016 299.4809227 174.10883141 C299.1311197 164.42707462 297.84939052 156.95209301 292.9340477 148.44476891 C286.16728678 142.21222595 278.32978069 140.14839738 269.37887192 140.08026695 C268.66283295 140.07369576 267.94679398 140.06712456 267.20905685 140.06035423 C264.84394843 140.04067782 262.47890346 140.02896896 260.1137352 140.01898766 C259.30244282 140.01491213 258.49115044 140.0108366 257.65527344 140.00663757 C253.35790133 139.98579713 249.06056092 139.9714888 244.76314926 139.96210289 C240.34502748 139.95106543 235.92741306 139.91669089 231.50946999 139.87693119 C228.09487661 139.85066301 224.68040206 139.84240188 221.26571655 139.83882141 C219.63837014 139.83397879 218.0110282 139.82243181 216.38378143 139.80378342 C205.99314036 139.69214271 196.88234822 140.1482809 188.1840477 146.50726891 C182.9766378 151.96265071 180.52021853 158.30565634 180.24264145 165.80023766 C180.20074692 166.87338219 180.15885239 167.94652672 180.11568832 169.05219078 C180.07637192 170.17174156 180.03705551 171.29129234 179.9965477 172.44476891 C179.95336411 173.57592125 179.91018051 174.70707359 179.86568832 175.87250328 C179.75955671 178.66730245 179.65750385 181.46219053 179.5590477 184.25726891 C171.57418796 183.5987363 163.72860259 182.37254949 155.8324852 181.03461266 C154.49883434 180.81108592 153.16513347 180.58785738 151.83138657 180.3649044 C148.27016017 179.76881085 144.70960433 179.16879931 141.14915848 178.56806374 C137.41526819 177.93882119 133.68073962 177.313391 129.94625473 176.68768883 C123.94321969 175.68154886 117.94048424 174.6736421 111.93795395 173.66449547 C101.72619223 171.9480236 91.51203245 170.24602571 81.29745102 168.54642296 C78.44412677 168.07144671 75.5909213 167.5957636 72.73775864 167.11981773 C63.71471697 165.61473103 54.6912065 164.11256143 45.66656113 162.61711693 C41.23900295 161.88328975 36.81164581 161.14825375 32.38430405 160.41312218 C30.28101058 160.06423131 28.17761976 159.71592673 26.07412338 159.36826134 C23.16520247 158.8874448 20.25662599 158.40459166 17.3481102 157.92133141 C16.07952164 157.71248062 16.07952164 157.71248062 14.78530502 157.49941063 C10.55787129 156.79497017 6.33847467 156.0517646 2.12740707 155.25507164 C1.3210582 155.10336006 0.51470932 154.95164848 -0.31607437 154.79533958 C-9.0105759 152.59368071 -17.50591687 142.12658977 -21.97610855 134.71039391 C-26.25486927 126.47721001 -27.74065544 119.45100674 -27.74734879 110.25800133 C-27.7556723 109.27817787 -27.76399582 108.29835442 -27.77257156 107.28883934 C-27.79658267 104.06343118 -27.80543269 100.83822559 -27.81204605 97.61273766 C-27.82101883 95.35983281 -27.83014079 93.10692855 -27.83940506 90.85402489 C-27.85587325 86.13580442 -27.86359128 81.41765473 -27.86648941 76.69940758 C-27.87187215 70.67043298 -27.90955796 64.64212867 -27.95523357 58.61334324 C-27.9850573 53.96088323 -27.99221413 49.30858365 -27.99321556 44.65603638 C-27.99740692 42.43419193 -28.00979735 40.21234653 -28.03073311 37.99059677 C-28.05775814 34.87481057 -28.0527885 31.76056581 -28.04031754 28.64472008 C-28.05515182 27.73789482 -28.06998611 26.83106956 -28.08526993 25.89676476 C-28.00892767 19.15773925 -26.21873912 13.86772557 -22.4409523 8.25726891 C-15.79038965 1.82913875 -9.18148583 -0.04866573 0 0 Z " fill="#FED242" transform="translate(257.4409523010254,414.74273109436035)"/>
<path d="M0 0 C4.07438335 1.97002563 7.47218214 4.51656355 11.07421875 7.24609375 C18.5460948 11.72522906 27.23317841 13.02484167 35.6875 14.625 C36.33324982 14.74838745 36.97899963 14.8717749 37.64431763 14.99890137 C90.4547533 25.05892991 143.8397148 33.19291843 197.08105469 40.64355469 C198.87978027 40.89927246 198.87978027 40.89927246 200.71484375 41.16015625 C202.23259399 41.37103882 202.23259399 41.37103882 203.78100586 41.58618164 C206 42 206 42 207 43 C207.13381042 44.99823559 207.23143815 46.99893037 207.3125 49 C208.04145561 58.9551401 211.49192304 66.29581815 219 73 C225.05412393 76.91537734 230.45826404 78.11751587 237.62939453 78.17700195 C238.28691208 78.18357315 238.94442963 78.19014435 239.62187195 78.19691467 C241.79218681 78.21657942 243.96243254 78.22829767 246.1328125 78.23828125 C247.25045801 78.24439454 247.25045801 78.24439454 248.39068222 78.25063133 C252.33792591 78.27146744 256.28513515 78.28577727 260.23242188 78.29516602 C264.28735946 78.3061989 268.34174354 78.34056905 272.39648628 78.38033772 C275.53314149 78.40662698 278.66966753 78.41486889 281.80642319 78.41844749 C283.29980056 78.42328522 284.79317327 78.43481787 286.2864418 78.45348549 C298.08204995 78.59172787 307.42442582 77.24844574 316.24609375 68.92578125 C322.61965363 61.92764089 325.18586688 54.53410351 325.625 45.125 C325.74875 42.77375 325.8725 40.4225 326 38 C331.28 38 336.56 38 342 38 C342 38.66 342 39.32 342 40 C340.87433371 41.12566629 339.74541237 42.24816946 338.60546875 43.359375 C312.49549865 70.04109627 301.75908888 111.06957614 301.81665039 147.3671875 C302.07144263 168.77776087 306.97716194 191.01584987 316.30078125 210.36328125 C317 212 317 212 317 214 C310.71406975 215.11639298 304.55158522 215.15102926 298.17802429 215.15390015 C296.99078524 215.1582824 295.80354619 215.16266465 294.58033019 215.1671797 C291.29758963 215.17820066 288.01487587 215.18477839 284.73212111 215.18936086 C281.18667947 215.19534132 277.64125511 215.20694453 274.0958252 215.21765137 C265.54245719 215.24211289 256.9890835 215.25678985 248.43569133 215.26971143 C246.01866341 215.27342682 243.60163605 215.27739973 241.1846087 215.2814641 C226.16245709 215.30669539 211.14030451 215.3287396 196.11813641 215.34119225 C192.64296655 215.34412171 189.16779673 215.34708342 185.69262695 215.35009766 C184.82893967 215.35084371 183.96525239 215.35158976 183.07539276 215.35235842 C169.07926832 215.3650165 155.08327077 215.39825035 141.08720567 215.43989949 C126.70639713 215.48234186 112.32565356 215.50588959 97.94478256 215.51111281 C89.87488732 215.51452343 81.80519075 215.52623813 73.73535728 215.55921555 C66.86451334 215.58724837 59.99390884 215.59820105 53.12301215 215.58702008 C49.61984724 215.5818424 46.11718357 215.58466136 42.61409187 215.60948563 C38.80995298 215.63215864 35.00707215 215.62388857 31.20292664 215.60800171 C30.10456393 215.6218838 29.00620123 215.63576588 27.87455481 215.65006864 C19.50486603 215.56410036 13.00278327 213.38697046 6.5625 207.9375 C6.046875 207.298125 5.53125 206.65875 5 206 C4.195625 205.0409375 4.195625 205.0409375 3.375 204.0625 C0.10312452 199.15468678 -0.28529455 194.70055651 -0.24050903 188.91984558 C-0.24221788 188.11111364 -0.24392673 187.3023817 -0.24568737 186.46914274 C-0.24897881 183.76213427 -0.23798426 181.05537426 -0.22705078 178.34838867 C-0.22648659 176.4067892 -0.22680338 174.46518931 -0.22793579 172.52359009 C-0.22851001 167.25335575 -0.21674451 161.98321231 -0.20278788 156.71299911 C-0.19029202 151.20501779 -0.18911092 145.69703444 -0.18673706 140.18904114 C-0.18051893 129.75918517 -0.16410359 119.32937109 -0.14403808 108.89953357 C-0.12168946 97.02540514 -0.11068826 85.15127471 -0.10064721 73.27713048 C-0.07973767 48.85139709 -0.04455519 24.42570089 0 0 Z " fill="#FDD242" transform="translate(230,581)"/>
<path d="M0 0 C23.65451671 21.53359854 39.14262749 52.53506621 41.09008789 84.6784668 C42.5220634 119.42190126 33.79728377 150.69009645 10.02856445 176.68481445 C1.1494138 186.1576046 -7.97268039 194.86554337 -19.09448242 201.63208008 C-19.72757324 202.01799316 -20.36066406 202.40390625 -21.01293945 202.80151367 C-29.24463486 207.70339848 -37.71826157 211.47391018 -46.78198242 214.56958008 C-47.59997314 214.85212646 -48.41796387 215.13467285 -49.26074219 215.42578125 C-61.84491208 219.48121934 -74.74013294 220.0415926 -87.84448242 220.00708008 C-88.58983246 220.00686859 -89.3351825 220.0066571 -90.1031189 220.00643921 C-101.53464568 219.97411517 -112.17924371 219.22324087 -123.09448242 215.63208008 C-124.20307617 215.28145508 -125.31166992 214.93083008 -126.45385742 214.56958008 C-144.54877754 208.21429106 -160.2423566 197.75739683 -174.09448242 184.63208008 C-174.99166992 183.7993457 -175.88885742 182.96661133 -176.81323242 182.10864258 C-199.69955535 160.18663101 -212.3567007 130.21952594 -213.33276367 98.67114258 C-213.97435232 61.41854021 -201.68078174 30.74457971 -176.09448242 3.63208008 C-175.4215918 2.89473633 -174.74870117 2.15739258 -174.05541992 1.39770508 C-127.58607319 -47.68227911 -48.64617549 -42.99210889 0 0 Z " fill="#FD5A49" transform="translate(768.094482421875,633.367919921875)"/>
<path d="M0 0 C14.76341027 11.33420185 24.71018407 27.93633981 27.89453125 46.34765625 C30.11123651 65.05448603 25.36910756 84.53260096 13.63671875 99.47265625 C8.0961692 106.04805556 1.78058108 110.95496119 -5.78515625 115.05078125 C-6.64238281 115.52128906 -7.49960937 115.99179687 -8.3828125 116.4765625 C-25.09092558 125.23089068 -43.99952191 126.6375097 -62.0625 121.30859375 C-79.66693565 115.36040038 -93.62470276 103.37540657 -102.10009766 86.84570312 C-110.2214239 70.14609623 -111.71332427 51.26106877 -106.10546875 33.4375 C-98.8678215 14.87229242 -86.57169942 0.90870476 -68.40234375 -7.40625 C-44.99374665 -17.3915587 -20.88108047 -14.61382771 0 0 Z " fill="#C6E4FC" transform="translate(722.78515625,670.94921875)"/>
<path d="M0 0 C20.77678826 16.64423092 35.75619803 38.72572031 38.75 65.8125 C40.30602221 94.34670691 32.65515625 118.24083896 13.62890625 139.73828125 C-1.67202511 156.42786856 -24.15929228 167.14092309 -46.69921875 168.16796875 C-75.13838817 168.9692094 -98.65290402 161.65946716 -119.59130859 141.92016602 C-126.51652141 135.18635355 -131.76314871 128.41928717 -136.25 119.8125 C-136.80171875 118.76449219 -137.3534375 117.71648437 -137.921875 116.63671875 C-148.5706259 95.04927571 -150.42061338 70.63003396 -142.9609375 47.74609375 C-134.40578179 22.94905121 -116.69424527 2.08745014 -93.2265625 -9.70703125 C-90.27033902 -11.01870682 -87.30588326 -12.12999333 -84.25 -13.1875 C-83.21617187 -13.579375 -82.18234375 -13.97125 -81.1171875 -14.375 C-54.11278123 -23.23293736 -22.77075729 -16.26482664 0 0 Z M-107.4375 31.375 C-119.96051152 47.94351112 -124.20869002 66.28196987 -122.25 86.8125 C-119.25323435 104.81928285 -108.8718472 121.05997995 -94.1875 131.75 C-92.55978482 132.79948146 -90.91423396 133.82194795 -89.25 134.8125 C-88.49589844 135.27140625 -87.74179687 135.7303125 -86.96484375 136.203125 C-71.62114633 144.70747816 -52.08167831 146.53718163 -35.25 141.8125 C-16.93031787 136.03683667 -2.32504117 125.13554788 7.1484375 108.33203125 C15.53757219 91.52834025 17.23525459 72.75282919 11.48632812 54.87109375 C4.63137071 35.70630565 -7.76242769 21.14125971 -26.23828125 12.3984375 C-54.89382056 -0.05416027 -86.99296769 7.61621733 -107.4375 31.375 Z " fill="#1A344F" transform="translate(736.25,651.1875)"/>
<path d="M0 0 C6.93 0 13.86 0 21 0 C21.495 19.8 21.495 19.8 22 40 C23.65 38.35 25.3 36.7 27 35 C34.40442128 29.3662012 41.89295514 28.05365391 51 29 C60.60013881 30.99500793 68.2112615 36.325786 73.6640625 44.4921875 C80.3807863 57.10077428 80.83135489 72.92754813 78.3125 86.78125 C75.42403568 96.12061796 70.82187475 103.70049932 62.33984375 108.78125 C53.89120224 113.18187797 44.80444404 114.8193151 35.4140625 112.30859375 C30.10375207 110.14278455 26.1625058 106.89681394 22 103 C21.67 105.64 21.34 108.28 21 111 C14.07 111 7.14 111 0 111 C0 74.37 0 37.74 0 0 Z " fill="#1A334D" transform="translate(510,1194)"/>
<path d="M0 0 C0.78408078 -0.00538554 1.56816157 -0.01077108 2.37600237 -0.01631981 C4.99997909 -0.03061277 7.62345228 -0.02349247 10.24745178 -0.01637268 C12.13005987 -0.02207555 14.0126645 -0.02903949 15.89526367 -0.03717041 C21.00682747 -0.05512606 26.11821983 -0.0539289 31.22980571 -0.04822803 C35.49681225 -0.04513967 39.76378569 -0.05122469 44.03078753 -0.05726677 C54.096852 -0.07131829 64.16283162 -0.06974547 74.22889709 -0.05836487 C84.61440416 -0.04688259 94.99965302 -0.0609598 105.38512605 -0.08776134 C114.30161354 -0.10991059 123.21801994 -0.11655748 132.13453299 -0.11068493 C137.46004103 -0.10731235 142.78538354 -0.10975046 148.11086845 -0.12693596 C153.11863942 -0.14239061 158.12602758 -0.1384659 163.13378334 -0.11963081 C164.97119447 -0.11594085 166.80863387 -0.11906524 168.64601898 -0.1295166 C171.15548685 -0.1427006 173.66368255 -0.13120279 176.1730957 -0.11352539 C176.89927013 -0.1231304 177.62544455 -0.1327354 178.37362427 -0.14263147 C183.414597 -0.06962658 186.25744622 1.23942966 190.15003967 4.38768005 C193.04974514 8.09544108 193.52000584 10.80970347 193.49061584 15.46311951 C193.49038925 16.66398697 193.49016266 17.86485443 193.4899292 19.10211182 C193.47444534 20.38873215 193.45896149 21.67535248 193.44300842 23.0009613 C193.43740836 24.3390251 193.4331402 25.67709507 193.43014526 27.01516724 C193.4187286 30.52519417 193.38928954 34.03484462 193.35603333 37.54472351 C193.32526338 41.13099577 193.3116252 44.71732927 193.29652405 48.30369568 C193.26441615 55.33186007 193.21167464 62.35971319 193.15003967 69.38768005 C187.21003967 69.38768005 181.27003967 69.38768005 175.15003967 69.38768005 C175.14746155 66.66518005 175.14488342 63.94268005 175.14222717 61.13768005 C175.11936489 58.47982326 175.08635412 55.82227085 175.05238342 53.16453552 C175.03429602 51.32769525 175.02664167 49.49071973 175.02992249 47.65379333 C175.03280068 45.00153944 174.99727236 42.35204883 174.95472717 39.70018005 C174.96836807 38.48249939 174.96836807 38.48249939 174.98228455 37.24021912 C174.84489937 31.76234766 173.39641791 28.46857944 170.11784363 24.10325623 C163.3591732 18.21089387 155.58026437 18.95290436 147.07997131 18.98362732 C145.65350817 18.97791874 144.22704959 18.97095259 142.80059814 18.96282959 C138.94102819 18.94493687 135.08168607 18.94605916 131.22208714 18.95177197 C127.99403204 18.95486945 124.76602035 18.94876517 121.53797144 18.94273323 C113.91977297 18.9287024 106.30168668 18.93023726 98.68348694 18.94163513 C90.83707281 18.95311538 82.99100053 18.93903913 75.14463145 18.91223866 C68.39535214 18.89005281 61.64617991 18.88345075 54.89686674 18.88931507 C50.87133719 18.89267892 46.84602674 18.89030782 42.82052803 18.87306404 C39.0339966 18.85755073 35.24797001 18.86159842 31.46145821 18.88036919 C30.07640171 18.884043 28.69130744 18.88098192 27.30628586 18.8704834 C19.49462217 18.81581699 13.77801403 19.05810891 7.15003967 23.38768005 C2.32871477 28.57987611 1.97020562 32.22736652 1.83363342 39.11424255 C1.81285233 39.97705841 1.79207123 40.83987427 1.7706604 41.72883606 C1.70517934 44.49003498 1.64628669 47.25133043 1.58753967 50.01268005 C1.54435308 51.88248178 1.50073874 53.75227367 1.4566803 55.62205505 C1.34869294 60.21049915 1.24960905 64.79901458 1.15003967 69.38768005 C-4.78996033 69.38768005 -10.72996033 69.38768005 -16.84996033 69.38768005 C-16.94048931 61.66834367 -17.01380732 53.94920623 -17.05720901 46.22946739 C-17.07804455 42.64447105 -17.10628683 39.05985811 -17.15171814 35.4750824 C-17.19532225 32.01263815 -17.21912776 28.55056164 -17.2294693 25.08786392 C-17.24040853 23.13025523 -17.27161161 21.17279357 -17.30314636 19.21540833 C-17.30598671 7.92643676 -17.30598671 7.92643676 -12.84996033 3.38768005 C-8.67758894 0.24455438 -5.06041658 -0.04175332 0 0 Z " fill="#3D73A4" transform="translate(412.84996032714844,320.61231994628906)"/>
<path d="M0 0 C7.2828686 6.35828568 11.60184447 15.46712138 13 25 C13.88392319 38.91092231 12.70797099 51.34197509 3.98828125 62.84375 C-3.08148948 70.51077051 -12.8676985 74.73789029 -23.1875 75.2734375 C-36.04273546 75.65974956 -46.24206557 74.30805803 -56.5 65.8125 C-65.02070972 57.48544277 -68.18412996 47.07884564 -68.37988281 35.38696289 C-68.37827148 34.49614014 -68.37666016 33.60531738 -68.375 32.6875 C-68.37338867 31.76122803 -68.37177734 30.83495605 -68.37011719 29.88061523 C-68.14993747 17.59480264 -63.90575979 8.24243239 -55.05078125 -0.328125 C-39.40257431 -13.08513942 -15.6930579 -11.96050767 0 0 Z " fill="#1A334E" transform="translate(482,1232)"/>
<path d="M0 0 C1.31153549 -0.00630432 2.62307098 -0.01260864 3.97434998 -0.019104 C5.41267022 -0.01552396 6.85098925 -0.01142194 8.28930664 -0.00683594 C9.75899825 -0.00818275 11.22868943 -0.01012341 12.69837952 -0.01263428 C15.78105911 -0.01558574 18.86362291 -0.01128789 21.94628906 -0.00195312 C25.89868629 0.0094315 29.85081161 0.0028885 33.80319881 -0.00909805 C36.83921864 -0.01632466 39.87517399 -0.01402488 42.91119576 -0.00884247 C44.36845494 -0.00750766 45.82571997 -0.00914778 47.28297234 -0.01380157 C49.32015751 -0.01887854 51.35736317 -0.00976883 53.39453125 0 C55.13421425 0.00238678 55.13421425 0.00238678 56.90904236 0.00482178 C59.76196289 0.25878906 59.76196289 0.25878906 62.76196289 2.25878906 C63.14964294 4.20526123 63.14964294 4.20526123 63.16601562 6.61328125 C63.1786998 7.51471863 63.19138397 8.41615601 63.20445251 9.34490967 C63.20151688 10.32195862 63.19858124 11.29900757 63.19555664 12.30566406 C63.20079849 13.30962219 63.20604034 14.31358032 63.21144104 15.34796143 C63.21787424 17.47643102 63.21650755 19.6049361 63.20800781 21.73339844 C63.19953253 24.98209645 63.22818569 28.22901652 63.26000977 31.47753906 C63.26162275 33.54524687 63.26104239 35.61295778 63.25805664 37.68066406 C63.26929062 38.64961609 63.2805246 39.61856812 63.292099 40.61688232 C63.23212549 46.46048511 62.64729126 49.80314142 58.76196289 54.25878906 C56.11224078 55.58365012 54.07379458 55.41518999 51.10644531 55.45166016 C49.32901192 55.47575455 49.32901192 55.47575455 47.51567078 55.50033569 C42.09410058 55.54468869 36.67267613 55.58628996 31.25097656 55.60888672 C28.38834656 55.62222284 25.52642998 55.65006785 22.6640625 55.69091797 C18.54422967 55.74971271 14.42516212 55.76754587 10.30493164 55.78222656 C9.02458542 55.80489594 7.7442392 55.82756531 6.4250946 55.85092163 C-2.21520594 55.83030465 -2.21520594 55.83030465 -6.54956055 53.40844727 C-9.05906377 48.72725857 -8.89707994 44.5753855 -8.79663086 39.34082031 C-8.79429947 38.28722824 -8.79196808 37.23363617 -8.78956604 36.14811707 C-8.77983994 33.92654292 -8.75807925 31.70499318 -8.72509766 29.48364258 C-8.67556246 26.07303417 -8.66360908 22.66386583 -8.65795898 19.25292969 C-8.64387797 17.09471113 -8.62767536 14.93650514 -8.60913086 12.77832031 C-8.60108681 11.24241997 -8.60108681 11.24241997 -8.59288025 9.67549133 C-8.57689285 8.73078476 -8.56090546 7.78607819 -8.54443359 6.81274414 C-8.53379379 5.97955154 -8.52315399 5.14635895 -8.51219177 4.28791809 C-7.84023825 -0.68548042 -4.10594161 0.00563706 0 0 Z " fill="#3D73A5" transform="translate(469.238037109375,579.7412109375)"/>
<path d="M0 0 C4.24140979 3.54049885 6.83982556 8.13906522 8.5 13.375 C8.5 15.355 8.5 17.335 8.5 19.375 C-1.4 19.87 -1.4 19.87 -11.5 20.375 C-12.82 17.735 -14.14 15.095 -15.5 12.375 C-19.04598268 10.01101154 -20.73329099 10.07681626 -24.9375 10.0625 C-26.07058594 10.04574219 -27.20367188 10.02898437 -28.37109375 10.01171875 C-31.75950767 10.4051301 -33.13418525 10.9581245 -35.5 13.375 C-36.33349951 16.33159873 -36.33349951 16.33159873 -35.5 19.375 C-30.12361851 24.12163051 -23.44456161 25.2063028 -16.625 26.875 C3.34429486 31.79432011 3.34429486 31.79432011 9.5 40.375 C11.98313434 45.34126868 11.21395757 52.93876126 10.5 58.375 C8.25927428 65.09717715 4.01868695 69.65004712 -2.05078125 73.19140625 C-12.74166511 78.35781424 -26.1594599 79.33925763 -37.734375 76.61328125 C-40.13486939 75.69309174 -42.28326554 74.67107459 -44.5 73.375 C-45.593125 72.75625 -46.68625 72.1375 -47.8125 71.5 C-53.09913845 67.31986727 -56.36761032 62.77216904 -58.5 56.375 C-58.5 54.065 -58.5 51.755 -58.5 49.375 C-48.105 48.88 -48.105 48.88 -37.5 48.375 C-36.51 51.345 -35.52 54.315 -34.5 57.375 C-31.36544064 60.60751434 -28.31365814 60.57154145 -24 60.6875 C-20.04385632 60.67083086 -17.04331278 60.1891276 -13.5 58.375 C-11.17642489 55.49056254 -11.17642489 55.49056254 -11.5 51.875 C-12.12169717 48.26231523 -12.12169717 48.26231523 -14.828125 46.8359375 C-20.82684107 44.4492143 -27.09321523 43.20456917 -33.3828125 41.80078125 C-41.47433074 39.89509622 -50.21976814 37.68697257 -55.625 30.9375 C-58.69161913 25.12301426 -58.48507738 18.7280353 -57.5 12.375 C-54.75747388 4.68355457 -49.72105458 -0.06151541 -42.5 -3.625 C-29.1953112 -9.63725628 -12.1514677 -7.99498435 0 0 Z " fill="#1A324D" transform="translate(659.5,1229.625)"/>
<path d="M0 0 C5.26598306 4.34868278 9.94116204 8.97882682 14.5625 14 C20.50148403 20.39868154 26.55418764 26.64376721 32.83422852 32.70898438 C34.25869592 34.10359705 35.63478879 35.54732995 37 37 C37 37.66 37 38.32 37 39 C37.66 39 38.32 39 39 39 C40.234375 40.2578125 40.234375 40.2578125 41.75 42.125 C45.29382383 46.30909452 49.10179491 50.15147641 53 54 C57.88150339 58.8348302 62.60198578 63.71499131 67 69 C67.49113281 69.56332031 67.98226562 70.12664062 68.48828125 70.70703125 C71.51057225 74.20607802 72.82943597 76.55020578 73.375 81.1875 C72.75826294 87.45766011 69.82956026 91.37372421 65.1875 95.5 C61.32133874 97.31937 58.15706609 97.79105335 54 97 C48.57705456 94.56902446 44.94322282 91.42410365 41 87 C41 86.34 41 85.68 41 85 C40.34 85 39.68 85 39 85 C37.58984375 83.56640625 37.58984375 83.56640625 35.9375 81.5625 C33.24825006 78.39242783 30.46486623 75.41418475 27.5 72.5 C24.75499458 69.79196435 22.1272909 67.05830751 19.625 64.125 C16.737852 60.75442257 13.65753002 57.61496136 10.5 54.5 C6.78153524 50.83153141 3.2633181 47.06850777 -0.125 43.09375 C-2.48346266 40.46013336 -4.98463435 37.98192902 -7.5 35.5 C-12.73275984 30.31762437 -17.90420509 25.14369236 -22 19 C-20.7315625 17.93072266 -20.7315625 17.93072266 -19.4375 16.83984375 C-9.47628037 8.68618127 -9.47628037 8.68618127 0 0 Z " fill="#3E74A5" transform="translate(793,831)"/>
<path d="M0 0 C7.26 0 14.52 0 22 0 C22.09066559 10.37109687 22.16392542 20.74192697 22.20724869 31.11333179 C22.22805031 35.93011612 22.25623095 40.7466133 22.30175781 45.56323242 C22.34548214 50.21871925 22.36919284 54.87393132 22.37950897 59.52960777 C22.38685292 61.29848233 22.40119299 63.06734326 22.42292023 64.83609962 C22.56916973 77.24466221 22.26775594 88.6671983 13.1953125 98.2109375 C2.96096677 106.55138295 -8.27382763 107.91360793 -21 107 C-30.49621581 104.93560526 -38.09497953 100.39379688 -43.375 92.1875 C-46.97145146 85.68847767 -48.3808639 79.42684598 -48 72 C-40.63512596 71.00137301 -33.42686315 70.89668969 -26 71 C-25.85304688 71.67546875 -25.70609375 72.3509375 -25.5546875 73.046875 C-24.44925828 77.44317971 -23.61011913 80.36011896 -20.4375 83.6875 C-15.70018624 85.49629253 -11.84305566 85.54170605 -7 84 C-3.5455909 81.43274597 -1.73162322 78.20912044 -1 74 C-0.88392745 71.58612967 -0.82344545 69.16941789 -0.79467773 66.75292969 C-0.78477814 66.03058136 -0.77487854 65.30823303 -0.76467896 64.56399536 C-0.73316516 62.18332158 -0.7083467 59.80262787 -0.68359375 57.421875 C-0.66301547 55.76848846 -0.64201877 54.11510709 -0.62062073 52.46173096 C-0.56549026 48.11511417 -0.51604127 43.76845062 -0.46777344 39.42175293 C-0.41749243 34.9842514 -0.36184084 30.54681758 -0.30664062 26.109375 C-0.19916945 17.40630576 -0.09819651 8.70317883 0 0 Z " fill="#19324C" transform="translate(376,1200)"/>
<path d="M0 0 C41.91 0 83.82 0 127 0 C127 8.58 127 17.16 127 26 C85.09 26 43.18 26 0 26 C0 17.42 0 8.84 0 0 Z " fill="#C3E0F6" transform="translate(437,364)"/>
<path d="M0 0 C4.53538865 2.11130161 7.1653623 4.90552332 10 9 C11.46833703 13.40501109 11.22493708 17.69778938 11.25 22.3125 C11.270625 23.25029297 11.29125 24.18808594 11.3125 25.15429688 C11.35194764 32.15132135 10.2482841 36.40582604 5.5625 41.8125 C0.56679271 46.07712817 -5.69845755 45.49459781 -12 45 C-17.19973734 43.26675422 -19.86183594 40.44573242 -23 36 C-25.14641854 30.95180309 -25.33474141 26.39131842 -25.3125 21 C-25.33666992 19.82824219 -25.33666992 19.82824219 -25.36132812 18.6328125 C-25.36610307 12.96017451 -24.48507465 8.66212831 -20.46484375 4.35546875 C-13.7476521 -0.78120722 -8.38362857 -0.68749574 0 0 Z " fill="#F7F8F8" transform="translate(461,1243)"/>
<path d="M0 0 C4.84746131 3.51440945 6.90625398 7.11468696 8.5 12.8125 C9.23201498 20.83614471 9.32693915 29.51990616 5.5 36.8125 C2.37313196 40.50582964 -0.68692762 42.94502765 -5.5 43.8125 C-11.36877339 44.1973376 -15.22911897 43.75202981 -20.5 40.8125 C-26.40015859 34.75287766 -26.84189298 28.9463117 -26.8125 20.875 C-26.83666992 19.55338867 -26.83666992 19.55338867 -26.86132812 18.20507812 C-26.86641938 11.40825187 -25.61487993 7.19173992 -21 2 C-15.44628995 -2.85949629 -6.69181183 -2.27043616 0 0 Z " fill="#F7F8F8" transform="translate(558.5,1244.1875)"/>
<path d="M0 0 C5.28 0 10.56 0 16 0 C16 0.66 16 1.32 16 2 C14.87433371 3.12566629 13.74541237 4.24816946 12.60546875 5.359375 C3.60745323 14.55442736 -4.6408046 26.80862387 -9 39 C-9.99 39 -10.98 39 -12 39 C-12 38.34 -12 37.68 -12 37 C-13.485 37.495 -13.485 37.495 -15 38 C-13.65362707 34.92257616 -12.2298611 33.16467109 -9.6875 31 C-0.94346537 22.38374875 -0.3211937 11.56297307 0 0 Z " fill="#F3D742" transform="translate(556,619)"/>
<path d="M0 0 C1.16660156 0.00322266 2.33320312 0.00644531 3.53515625 0.00976562 C4.75847656 0.01814453 5.98179687 0.02652344 7.2421875 0.03515625 C8.47324219 0.03966797 9.70429687 0.04417969 10.97265625 0.04882812 C14.02088142 0.06064295 17.06901064 0.07711597 20.1171875 0.09765625 C19.1271875 1.58265625 19.1271875 1.58265625 18.1171875 3.09765625 C15.93408203 3.4699707 15.93408203 3.4699707 13.25 3.4609375 C12.28191406 3.46029297 11.31382812 3.45964844 10.31640625 3.45898438 C8.79466797 3.43481445 8.79466797 3.43481445 7.2421875 3.41015625 C5.73205078 3.41499023 5.73205078 3.41499023 4.19140625 3.41992188 C-4.01108608 3.36000991 -4.01108608 3.36000991 -7.8828125 1.09765625 C-5.16879956 -0.25935022 -3.03434934 -0.01472985 0 0 Z " fill="#223A56" transform="translate(672.8828125,874.90234375)"/>
<path d="M0 0 C0.33 0 0.66 0 1 0 C1 3.63 1 7.26 1 11 C-1.64 9.68 -4.28 8.36 -7 7 C-4.66666667 4.66666667 -2.33333333 2.33333333 0 0 Z " fill="#F5E040" transform="translate(761,583)"/>
<path d="M0 0 C3.375 4.5 3.375 4.5 3.29296875 8.546875 C3.28330078 9.39121094 3.27363281 10.23554687 3.26367188 11.10546875 C3.23853516 11.97816406 3.21339844 12.85085938 3.1875 13.75 C3.17396484 14.63816406 3.16042969 15.52632812 3.14648438 16.44140625 C3.11121309 18.62822578 3.06192752 20.81379966 3 23 C2.01 23 1.02 23 0 23 C0 15.41 0 7.82 0 0 Z " fill="#304A66" transform="translate(785,579)"/>
<path d="M0 0 C0.99 0 1.98 0 3 0 C3 5.61 3 11.22 3 17 C2.01 17 1.02 17 0 17 C0 11.39 0 5.78 0 0 Z " fill="#28405A" transform="translate(492,1257)"/>
<path d="M0 0 C4.95 0 9.9 0 15 0 C15 0.66 15 1.32 15 2 C11.6888987 3.10370043 9.75251051 2.92673641 6.3125 2.5625 C5.31863281 2.46066406 4.32476563 2.35882812 3.30078125 2.25390625 C2.54152344 2.17011719 1.78226563 2.08632813 1 2 C1 5.3 1 8.6 1 12 C0.67 12 0.34 12 0 12 C0 8.04 0 4.08 0 0 Z " fill="#F9EA3F" transform="translate(557,619)"/>
<path d="M0 0 C6.6 0 13.2 0 20 0 C16.27933528 2.48044315 13.13459526 2.44381173 8.8125 2.625 C8.06291016 2.66367187 7.31332031 2.70234375 6.54101562 2.7421875 C4.69440801 2.83628216 2.8472381 2.91922319 1 3 C0.67 2.01 0.34 1.02 0 0 Z " fill="#C9E1F0" transform="translate(672,658)"/>
<path d="M0 0 C2.45898655 -0.08076963 4.91533742 -0.14037143 7.375 -0.1875 C8.07367187 -0.21263672 8.77234375 -0.23777344 9.4921875 -0.26367188 C11.5234375 -0.29296875 11.5234375 -0.29296875 15 0 C15.66 0.99 16.32 1.98 17 3 C11.39 3 5.78 3 0 3 C0 2.01 0 1.02 0 0 Z " fill="#223B55" transform="translate(627,1223)"/>
<path d="M0 0 C0.66 0 1.32 0 2 0 C2 1.98 2 3.96 2 6 C2.61875 6.0825 3.2375 6.165 3.875 6.25 C6 7 6 7 7.25 9.0625 C7.4975 9.701875 7.745 10.34125 8 11 C2.25 8.25 2.25 8.25 0 6 C-0.125 2.875 -0.125 2.875 0 0 Z " fill="#EFF2F3" transform="translate(623,1243)"/>
<path d="M0 0 C2.07358419 3.11037628 2.29487123 3.99561252 2.3125 7.5625 C2.32925781 8.34753906 2.34601562 9.13257813 2.36328125 9.94140625 C2.24339844 10.62074219 2.12351562 11.30007813 2 12 C1.01 12.66 0.02 13.32 -1 14 C-1.02685938 11.85423363 -1.04633088 9.70837355 -1.0625 7.5625 C-1.07410156 6.36753906 -1.08570313 5.17257812 -1.09765625 3.94140625 C-1 1 -1 1 0 0 Z " fill="#263F59" transform="translate(963,628)"/>
<path d="M0 0 C3 1 3 1 4.16796875 2.99609375 C4.50441406 3.80175781 4.84085938 4.60742188 5.1875 5.4375 C5.53167969 6.24058594 5.87585938 7.04367187 6.23046875 7.87109375 C7 10 7 10 7 12 C6.34 12 5.68 12 5 12 C4.16180842 10.37750059 3.3295884 8.75191503 2.5 7.125 C2.0359375 6.22007812 1.571875 5.31515625 1.09375 4.3828125 C0 2 0 2 0 0 Z " fill="#E9ECEF" transform="translate(915,402)"/>
<path d="M0 0 C2.29141286 -0.05384521 4.58318188 -0.09272087 6.875 -0.125 C8.78925781 -0.15980469 8.78925781 -0.15980469 10.7421875 -0.1953125 C14 0 14 0 16 2 C15 3 15 3 13.15234375 3.09765625 C11.1015625 3.06510417 9.05078125 3.03255208 7 3 C7 2.67 7 2.34 7 2 C4.69 1.67 2.38 1.34 0 1 C0 0.67 0 0.34 0 0 Z " fill="#1F3B57" transform="translate(515,182)"/>
<path d="M0 0 C0.66 0.33 1.32 0.66 2 1 C1.25 3.9375 1.25 3.9375 0 7 C-2.125 7.875 -2.125 7.875 -4 8 C-2.87548273 5.0280615 -1.77706209 2.66559313 0 0 Z " fill="#122A51" transform="translate(559,635)"/>
<path d="M0 0 C0.33 0 0.66 0 1 0 C1.33 3.63 1.66 7.26 2 11 C1.01 11 0.02 11 -1 11 C-0.67 7.37 -0.34 3.74 0 0 Z " fill="#EFF1F2" transform="translate(965,635)"/>
<path d="M0 0 C1.98 1.65 3.96 3.3 6 5 C4.68 6.32 3.36 7.64 2 9 C1.34 8.67 0.68 8.34 0 8 C0.185625 7.236875 0.37125 6.47375 0.5625 5.6875 C1.22819173 2.91032625 1.22819173 2.91032625 0 0 Z " fill="#E0F1F8" transform="translate(797,914)"/>
<path d="M0 0 C1.22589844 0.01353516 1.22589844 0.01353516 2.4765625 0.02734375 C3.41628906 0.04474609 3.41628906 0.04474609 4.375 0.0625 C2.20318742 2.51956557 1.73612209 3.02565081 -1.6875 3.375 C-4.625 3.0625 -4.625 3.0625 -6.625 1.0625 C-4.21954362 -0.14022819 -2.67503047 -0.03821472 0 0 Z " fill="#284059" transform="translate(550.625,1051.9375)"/>
<path d="M0 0 C0.66 0 1.32 0 2 0 C2.66 2.97 3.32 5.94 4 9 C3.34 9 2.68 9 2 9 C0.14223235 5.86501708 -0.20140476 3.62528568 0 0 Z " fill="#EAEEF0" transform="translate(73,724)"/>
<path d="M0 0 C0.66 0.99 1.32 1.98 2 3 C1.360625 3.268125 0.72125 3.53625 0.0625 3.8125 C-2.33131686 4.88667752 -2.33131686 4.88667752 -3 8 C-3.33 7.34 -3.66 6.68 -4 6 C-2.68 4.02 -1.36 2.04 0 0 Z " fill="#11223D" transform="translate(131,366)"/>
</svg>
